{"glyphs":{"0":{"ha":475,"x_min":88,"x_max":546,"o":"m 469 742 q 487 726 475 731 q 510 716 499 721 q 531 703 522 711 q 540 679 540 696 q 542 651 540 664 q 545 624 544 638 q 543 596 546 610 q 532 565 540 582 q 524 512 524 538 q 510 458 525 486 q 505 435 508 447 q 501 411 501 422 q 490 366 501 388 q 485 321 479 344 l 489 317 q 474 255 478 285 q 460 196 471 225 q 456 156 463 178 q 447 115 450 135 q 440 78 443 99 q 429 40 436 58 q 410 4 422 21 q 376 -22 397 -12 q 347 -47 365 -40 q 311 -61 328 -53 q 269 -75 292 -67 q 229 -76 247 -83 q 204 -76 215 -79 q 182 -72 193 -74 q 160 -56 171 -65 q 135 -46 150 -46 q 113 -24 121 -39 q 99 4 106 -10 q 90 40 88 19 q 93 79 92 60 q 98 164 90 119 q 114 253 106 208 q 113 269 111 260 q 118 287 115 278 q 124 305 121 296 q 126 322 126 314 q 137 375 126 350 q 143 428 147 400 q 157 476 154 451 q 163 525 160 500 q 177 557 175 540 q 183 590 179 574 q 190 611 186 601 q 206 629 194 621 q 214 648 203 640 q 232 663 225 656 q 259 689 247 674 q 289 711 271 704 q 299 726 292 719 q 315 738 307 733 q 350 749 333 742 q 385 760 367 757 l 469 742 m 357 618 q 353 609 357 611 q 346 606 350 607 q 337 603 342 604 q 329 599 332 603 q 316 581 319 590 q 310 563 313 572 q 307 545 308 554 q 301 528 306 536 q 290 463 293 493 q 279 404 286 433 q 272 378 276 388 q 271 353 268 368 q 255 313 256 332 q 257 274 254 293 q 249 253 250 264 q 247 231 247 242 q 244 210 246 221 q 233 190 242 200 q 230 165 233 178 q 224 138 226 151 q 228 100 217 115 q 250 54 222 72 q 264 56 257 51 q 278 60 271 60 q 293 82 289 68 q 299 107 297 96 q 312 140 301 125 q 318 169 322 154 q 333 231 331 200 q 342 294 336 263 q 351 321 349 307 q 356 348 354 335 q 361 374 358 361 q 371 399 364 386 q 376 437 368 418 q 388 475 383 456 q 390 495 390 486 q 386 515 390 504 q 401 554 393 535 q 403 592 410 574 q 385 614 394 601 q 357 618 376 626 z "},"1":{"ha":358,"x_min":168,"x_max":456,"o":"m 340 796 q 360 798 350 796 q 376 807 369 800 q 397 803 386 803 q 417 806 407 804 q 436 806 426 807 q 456 800 446 806 q 431 700 440 751 q 418 639 424 669 q 406 579 413 608 q 396 528 397 551 q 386 482 394 506 q 386 458 388 471 q 382 435 385 446 q 366 377 375 406 q 357 319 357 349 q 348 264 350 292 q 344 214 346 236 q 326 162 325 188 q 325 111 328 136 q 318 38 318 74 q 333 -31 318 3 q 326 -40 331 -39 q 306 -29 314 -37 q 292 -11 299 -21 q 278 9 285 -1 q 264 28 272 19 q 246 15 251 24 q 231 39 235 25 q 219 65 226 53 q 202 56 210 65 q 186 40 194 46 l 181 44 q 187 105 178 74 q 193 168 196 136 q 204 202 200 185 q 208 238 208 219 q 218 280 217 261 q 231 324 219 299 q 228 344 224 333 q 238 367 232 356 q 247 390 244 379 q 242 413 250 401 q 255 443 253 428 q 254 475 257 458 q 261 497 265 486 q 264 518 257 507 q 272 558 267 538 q 276 596 276 578 q 248 578 263 590 q 224 551 233 565 l 214 553 q 219 571 224 564 q 215 589 214 578 q 210 595 214 596 q 203 592 207 594 q 185 578 194 589 q 168 574 176 567 q 183 617 169 596 q 206 660 196 639 q 191 660 199 663 q 175 660 183 657 l 185 678 q 255 747 222 708 q 331 811 288 786 q 335 803 333 808 q 340 796 336 799 z "},"2":{"ha":431,"x_min":83,"x_max":533,"o":"m 490 860 q 505 849 501 858 q 517 836 508 840 q 522 805 518 819 q 529 775 525 790 q 528 734 526 754 q 524 692 531 714 q 526 653 533 672 q 513 615 519 635 q 501 576 510 596 q 481 536 492 556 q 473 521 481 529 q 460 506 465 513 l 451 489 q 421 447 438 467 q 393 406 404 426 q 371 387 379 397 q 356 365 363 376 q 342 342 350 353 q 324 321 335 331 q 311 304 314 313 q 307 288 308 296 q 302 271 306 279 q 289 254 299 263 q 301 251 294 250 q 315 253 308 251 q 329 255 322 254 q 340 251 336 256 q 401 253 369 260 l 450 260 q 465 257 457 256 q 472 247 474 258 q 449 238 460 244 q 428 222 439 231 q 408 207 418 214 q 385 196 397 200 q 377 184 379 192 q 385 175 375 176 q 392 172 388 174 q 390 163 397 169 q 360 151 374 156 q 332 139 347 147 q 338 130 338 135 q 343 121 339 125 q 289 111 315 110 q 235 111 263 113 q 183 108 210 113 q 138 114 157 103 q 110 107 122 111 q 83 111 97 103 q 89 141 86 126 q 89 169 92 156 q 101 201 103 186 q 107 233 100 217 q 156 294 142 258 q 195 342 176 317 q 231 393 214 367 q 259 430 247 410 q 282 469 271 450 q 306 508 293 489 q 335 543 318 528 q 349 568 338 557 q 368 592 361 579 q 378 623 367 607 q 390 654 390 639 q 388 674 388 663 q 389 695 389 685 q 385 714 389 706 q 371 725 382 722 q 349 724 360 724 q 335 713 339 724 q 326 686 333 700 q 311 658 318 672 q 306 656 308 656 q 301 658 303 657 q 297 660 299 660 q 290 660 294 661 q 278 638 279 649 q 268 615 276 626 q 257 585 260 600 q 247 557 254 571 q 239 557 243 554 q 235 564 235 560 q 220 599 224 579 q 214 639 217 618 q 207 631 210 636 q 202 620 204 625 q 197 613 200 615 q 188 613 194 610 q 188 624 190 619 q 183 632 185 628 q 191 675 193 654 q 201 715 189 696 q 206 739 199 728 q 215 763 213 750 q 232 791 218 778 q 251 819 246 804 q 285 841 265 832 q 318 865 304 850 q 346 872 332 871 q 375 883 360 872 q 392 879 383 879 q 410 881 401 879 q 427 885 418 883 q 444 883 436 886 q 464 866 454 872 q 490 860 474 860 z "},"3":{"ha":439,"x_min":83,"x_max":525,"o":"m 464 814 q 477 804 469 808 q 491 795 485 800 q 501 783 497 790 q 506 767 506 776 q 517 712 511 739 q 519 653 522 685 q 520 627 525 640 q 518 603 515 614 q 510 581 513 592 q 506 560 508 571 q 499 540 504 550 q 485 522 494 531 l 468 483 q 449 467 461 472 q 429 450 436 461 q 456 418 443 433 q 464 378 469 403 q 456 327 461 353 q 447 276 451 301 q 440 226 442 251 q 440 178 438 201 q 422 126 431 153 q 388 79 414 99 q 347 44 368 61 q 304 17 326 28 q 258 3 282 7 q 210 6 235 -1 q 194 13 203 11 q 176 16 185 15 q 157 18 167 17 q 139 25 147 19 q 113 44 125 33 q 103 74 100 54 q 88 88 92 79 q 85 106 85 96 q 86 126 85 115 q 86 146 88 136 q 84 174 85 160 q 90 201 83 188 q 97 239 93 221 q 104 275 100 257 q 109 297 107 286 q 114 319 111 308 q 128 319 124 326 q 131 297 128 308 q 135 274 133 285 q 140 259 139 267 q 153 249 142 251 q 165 263 160 253 q 179 267 169 274 q 186 253 185 261 q 199 244 188 246 q 207 244 204 242 q 212 250 210 247 q 217 255 214 253 q 224 256 219 257 q 225 245 226 250 q 222 236 224 240 q 221 228 221 232 q 225 219 221 224 q 217 209 218 214 q 217 199 217 204 q 218 188 218 193 q 214 176 218 182 q 226 151 213 158 q 250 138 239 144 q 271 147 264 136 q 288 165 278 157 q 292 195 292 181 q 301 226 293 210 q 302 255 303 242 q 313 282 301 268 l 319 335 q 312 349 319 343 q 313 367 304 356 q 303 380 310 376 q 286 383 296 383 q 267 383 276 383 q 251 388 257 383 q 243 386 250 386 q 244 396 242 390 q 247 406 246 401 q 248 416 249 411 q 242 425 247 421 q 240 432 239 429 q 245 437 242 435 q 253 442 249 439 q 260 449 257 444 q 268 471 263 461 q 263 489 274 481 q 258 501 263 496 q 251 513 254 506 q 277 522 261 524 q 304 525 293 519 l 329 533 q 345 549 335 540 q 350 567 356 557 q 360 578 358 572 q 363 591 363 585 q 365 603 364 597 q 371 617 365 610 q 372 648 372 635 q 372 678 372 661 q 359 693 369 689 q 338 692 349 697 q 317 678 322 690 q 307 654 313 667 q 303 645 303 650 q 305 636 304 640 q 305 627 306 632 q 300 618 304 622 q 301 610 300 615 q 297 603 303 606 q 294 606 294 601 q 289 610 293 610 q 280 611 283 608 q 273 617 276 614 q 265 619 269 619 q 254 614 261 619 q 236 591 242 603 q 224 567 231 579 l 215 561 q 208 607 211 583 q 199 654 204 631 q 189 649 194 654 q 181 651 183 644 q 206 715 190 682 q 246 778 222 749 q 272 792 261 783 q 294 808 282 800 q 333 816 314 811 q 368 829 351 821 q 392 822 379 821 q 417 824 404 822 q 442 825 429 826 q 464 814 454 824 z "},"4":{"ha":431,"x_min":136,"x_max":526,"o":"m 289 813 q 292 799 292 806 q 294 783 292 792 q 306 797 304 788 q 319 806 307 807 q 319 756 322 782 q 311 703 317 729 q 301 659 307 681 q 290 617 294 638 q 286 592 288 604 q 283 569 285 581 q 315 563 297 560 q 350 564 332 567 q 358 590 356 576 q 361 615 360 603 q 365 640 363 628 q 374 665 367 653 q 374 682 371 674 q 380 699 376 690 q 386 715 383 707 q 388 731 389 724 l 393 744 q 399 794 396 768 q 403 843 403 821 q 410 848 406 851 q 418 843 415 844 q 425 831 422 839 q 431 822 428 824 q 431 858 435 843 q 431 892 428 874 q 443 893 438 899 q 453 883 449 888 q 458 874 457 881 q 467 869 460 868 q 473 844 468 856 q 483 822 478 833 q 492 798 488 810 q 497 772 497 786 q 510 783 504 776 q 524 788 517 790 q 522 729 526 760 q 508 671 517 699 q 506 645 513 658 q 500 617 500 632 q 501 594 504 606 q 492 573 497 583 q 485 551 488 563 q 488 531 482 540 q 478 489 488 508 q 471 447 469 469 q 466 425 468 436 q 461 403 464 414 q 447 340 454 371 q 433 278 440 310 q 426 240 429 258 q 419 201 422 221 q 404 101 408 151 q 411 7 400 51 l 404 3 q 377 28 390 14 q 356 57 364 42 q 346 53 349 58 q 339 54 343 47 q 313 114 319 83 q 302 106 306 111 q 296 94 299 100 q 289 84 293 88 q 278 85 285 81 l 286 147 q 286 171 283 158 q 292 196 289 183 q 298 221 296 208 q 297 244 300 233 q 307 285 304 265 q 314 325 310 306 q 328 365 318 346 q 326 391 325 378 q 331 417 328 404 q 306 418 318 414 q 278 414 293 422 q 257 418 268 421 q 233 417 246 415 q 213 417 222 418 q 192 417 203 417 q 163 418 176 417 q 139 426 150 419 q 138 450 136 439 q 144 472 140 461 q 149 493 147 482 q 149 517 151 504 q 157 542 153 529 q 164 569 161 556 q 173 623 169 597 q 186 675 176 649 q 193 733 192 706 q 190 788 194 760 q 201 799 199 792 q 211 808 204 806 q 216 837 218 822 q 217 864 214 851 q 214 881 217 872 q 217 897 211 890 q 257 860 242 882 q 289 813 272 838 z "},"5":{"ha":442,"x_min":113,"x_max":578,"o":"m 578 828 q 559 815 571 817 q 536 807 547 814 q 515 790 528 796 q 501 772 501 785 q 506 760 506 767 q 514 750 507 753 q 494 737 507 739 q 474 732 482 735 q 453 722 463 726 q 436 708 443 718 q 442 701 439 704 q 444 692 446 699 l 439 688 q 358 683 400 692 q 342 690 351 688 q 328 694 333 692 q 322 657 329 676 q 319 618 314 638 q 309 583 308 600 q 303 550 310 567 q 315 551 307 547 q 329 558 322 556 q 349 559 339 558 q 367 568 360 560 q 391 561 378 561 q 417 561 404 561 q 442 557 431 561 q 463 540 454 553 q 469 522 464 531 q 478 505 474 514 q 483 486 482 496 q 481 465 485 476 q 481 437 482 451 q 472 407 481 422 l 475 396 q 472 371 474 383 q 468 347 471 358 l 451 281 q 443 219 446 251 q 440 197 444 210 q 425 172 436 183 q 376 97 414 128 q 301 44 339 67 q 259 45 278 40 q 217 43 240 50 q 203 44 208 40 q 194 51 199 47 q 184 56 189 54 q 171 53 179 58 q 144 71 154 60 q 133 101 133 82 q 113 138 113 114 q 118 183 113 161 q 126 263 117 224 q 138 339 136 301 q 142 346 139 342 q 150 347 144 350 q 156 335 156 343 q 158 320 157 328 q 162 308 158 313 q 176 304 165 303 q 180 285 179 296 q 194 269 181 274 q 199 254 196 264 q 214 251 203 244 q 224 263 219 256 q 238 268 229 271 q 240 244 242 257 q 236 219 238 231 q 238 197 235 207 q 256 183 240 188 q 281 192 269 185 q 300 211 292 200 q 310 235 310 222 q 314 257 311 249 q 318 275 318 265 q 319 294 318 285 q 322 313 319 303 q 332 331 324 322 q 334 350 331 339 q 340 372 338 361 q 342 393 342 383 q 333 411 342 403 q 318 424 331 419 q 295 422 306 428 q 274 410 285 417 q 252 399 263 404 q 229 400 242 394 q 215 404 224 406 q 199 401 207 403 q 185 400 192 399 q 178 413 179 401 q 167 413 172 415 q 160 418 161 410 q 163 440 164 429 q 160 463 161 450 q 171 533 165 499 q 183 603 176 568 q 191 638 186 621 q 200 672 196 654 q 204 713 201 693 q 208 756 207 733 q 216 769 215 763 q 216 781 217 775 q 215 794 215 788 q 218 807 214 800 q 224 817 222 813 q 232 822 225 821 q 262 822 247 819 q 288 818 276 825 q 307 826 299 826 q 324 824 315 826 q 341 821 332 822 q 361 826 350 819 l 504 826 q 522 831 511 831 q 540 835 532 832 q 560 833 550 833 q 578 828 569 833 z "},"6":{"ha":461,"x_min":86,"x_max":536,"o":"m 225 -14 q 208 -14 217 -11 q 190 -21 199 -17 q 176 -17 182 -21 q 163 -10 169 -14 q 151 -2 157 -6 q 135 0 144 1 q 115 26 124 14 q 93 50 107 39 q 88 92 90 72 q 100 136 86 113 q 100 161 97 149 q 106 186 103 174 q 113 210 110 199 q 113 235 115 222 q 122 270 114 253 q 124 307 129 288 q 135 325 132 317 q 139 342 138 333 q 142 360 140 351 q 147 381 143 369 q 155 434 157 408 q 163 488 153 460 q 168 532 167 511 q 174 575 169 553 q 196 633 181 606 q 197 656 192 646 q 209 677 201 667 q 225 699 217 688 q 235 722 233 710 q 255 744 243 736 q 281 758 267 753 q 308 770 294 764 q 333 786 322 776 q 348 792 342 792 q 360 791 354 793 q 374 787 367 789 q 390 786 381 785 q 425 788 408 794 q 453 769 442 781 l 474 772 q 482 763 478 768 q 493 757 486 758 q 524 708 513 738 q 528 649 536 679 q 527 626 529 640 q 519 601 525 613 q 514 537 524 569 q 507 472 504 504 q 501 466 503 469 q 494 465 500 463 q 490 484 490 474 q 487 504 489 494 q 479 522 485 514 q 461 532 474 529 q 465 549 461 538 q 465 567 469 560 q 451 573 460 569 q 446 585 443 576 l 435 593 q 426 588 431 592 q 419 581 422 585 q 410 575 415 578 q 400 574 406 572 q 398 605 393 586 q 393 635 403 624 l 388 631 q 372 644 379 635 q 354 644 365 654 q 337 623 343 633 q 325 599 331 613 q 328 583 331 592 q 323 564 326 574 q 317 544 319 554 q 317 526 314 535 q 306 508 307 517 q 306 492 306 500 q 307 474 307 483 q 299 456 307 465 l 303 436 q 323 436 313 433 q 344 442 333 439 q 363 445 354 444 q 381 439 372 446 q 399 438 393 442 q 411 426 406 433 q 423 414 417 419 q 440 408 429 408 q 451 398 449 404 q 456 385 454 392 q 460 371 458 378 q 468 358 463 364 q 465 337 464 347 q 467 317 465 326 q 467 297 468 307 q 460 274 467 286 q 458 253 463 265 q 460 235 454 242 q 448 189 451 211 q 440 144 444 167 q 435 124 438 133 q 426 103 432 114 q 421 87 426 93 q 408 74 415 81 q 393 62 400 68 q 383 47 386 56 q 355 21 369 32 q 321 7 340 10 q 311 -1 317 0 q 299 -2 306 -1 q 288 -4 293 -3 q 278 -14 282 -6 q 258 -18 269 -19 q 240 -24 247 -17 q 231 -20 236 -21 q 225 -14 226 -19 m 265 99 q 278 108 275 100 q 290 118 281 115 q 302 138 294 128 q 307 160 310 149 q 316 175 314 168 q 318 190 318 182 q 319 205 318 197 q 325 221 319 213 q 324 237 322 229 q 329 253 326 244 q 333 269 332 261 q 328 283 333 276 q 331 297 333 293 q 322 303 328 301 q 312 308 317 306 q 307 318 307 311 q 294 315 299 319 q 282 307 289 310 q 275 293 285 299 q 264 278 265 288 q 263 257 267 267 q 255 238 260 247 q 247 218 250 228 q 249 197 244 208 q 242 162 240 179 q 236 125 243 144 q 244 106 232 110 q 265 99 257 103 z "},"7":{"ha":418,"x_min":150,"x_max":551,"o":"m 551 774 q 540 749 551 758 q 533 725 529 739 q 537 697 539 711 q 524 669 535 682 q 499 598 519 633 q 463 529 478 563 q 462 513 465 521 q 453 498 458 506 q 442 482 447 490 q 436 465 438 474 q 428 446 428 457 q 424 428 428 435 q 399 375 404 404 q 378 319 393 346 q 353 263 363 292 q 325 207 344 235 q 303 153 315 181 q 285 101 292 125 q 269 35 267 68 q 268 -31 271 1 q 262 -33 265 -33 q 257 -32 258 -33 q 252 -24 257 -26 q 244 -17 247 -22 q 233 13 239 -1 q 219 43 226 28 q 203 23 208 36 q 188 3 199 10 l 183 4 q 187 51 190 28 q 192 103 183 75 q 187 106 185 101 q 185 114 189 111 q 174 109 178 115 q 165 110 171 103 q 165 115 163 113 q 169 120 167 118 q 174 124 172 122 q 171 126 175 125 q 222 245 201 185 q 271 368 243 306 q 288 415 271 393 q 310 463 304 438 q 313 469 314 465 q 315 478 313 474 q 330 513 322 496 q 350 549 338 531 q 353 569 350 558 q 363 590 357 579 q 372 610 368 600 q 378 631 376 619 l 386 642 q 347 647 367 649 q 306 644 326 646 q 278 639 290 647 q 251 632 265 631 q 234 616 242 626 q 215 608 226 606 q 215 614 214 611 q 217 619 217 617 l 221 621 q 227 643 224 633 q 233 664 231 653 q 193 654 214 664 q 157 631 172 644 q 152 642 150 632 q 160 658 154 651 q 194 703 175 685 q 238 742 213 722 q 229 750 235 750 q 217 748 224 750 q 205 744 211 746 q 196 750 199 743 q 233 776 215 761 q 274 785 250 790 q 299 783 283 778 q 324 781 315 789 q 379 776 350 776 q 428 781 404 776 q 438 776 432 776 q 449 778 443 776 q 462 780 456 779 q 472 779 468 781 q 506 782 490 779 q 540 790 521 785 q 548 784 546 789 q 551 774 550 779 z "},"8":{"ha":439,"x_min":68,"x_max":518,"o":"m 456 763 q 467 757 458 754 q 481 753 475 760 q 504 724 496 740 q 518 690 513 707 q 515 636 514 661 q 504 579 517 611 q 503 536 514 560 q 488 492 493 513 q 465 463 476 478 q 447 431 454 447 q 427 418 438 425 q 410 403 417 411 q 428 386 421 397 q 444 367 435 375 q 449 341 450 354 q 447 313 449 328 q 442 285 444 299 q 443 260 440 272 q 440 247 443 253 q 433 233 436 240 q 428 220 429 226 q 429 207 426 214 q 417 163 425 183 q 417 118 410 142 q 397 84 404 101 q 381 49 389 67 q 364 13 374 31 q 340 -21 354 -4 q 306 -38 324 -33 q 269 -56 288 -43 q 238 -60 253 -56 q 208 -68 222 -64 q 178 -74 193 -72 q 150 -67 164 -75 l 122 -36 q 101 -31 107 -37 q 92 -15 96 -24 q 83 4 88 -6 q 68 18 79 14 q 72 52 71 33 q 74 86 74 71 l 79 106 q 78 117 78 110 q 83 132 79 125 q 87 165 81 149 q 83 196 93 181 q 96 242 86 215 q 121 289 106 268 q 134 329 121 310 q 158 367 147 349 q 177 378 165 375 q 196 392 189 382 q 188 398 193 397 q 175 401 182 399 q 160 424 167 413 q 160 450 154 435 q 151 477 149 461 q 161 508 154 493 q 160 530 163 522 q 169 550 158 538 l 167 590 q 181 617 171 604 q 192 643 192 629 q 203 667 196 656 q 224 688 210 679 q 228 698 229 693 q 232 710 226 703 q 266 733 247 725 q 301 753 285 740 q 325 762 314 757 q 349 774 336 767 q 362 774 356 775 q 374 772 368 772 q 386 771 381 771 q 399 776 392 771 q 428 772 414 771 q 456 763 443 774 m 367 658 q 354 649 361 651 q 342 646 347 647 q 328 637 332 643 q 323 622 325 631 q 319 606 321 614 q 308 590 317 597 q 307 576 310 583 q 308 564 304 568 q 298 525 297 543 q 296 488 299 507 q 308 473 303 481 q 324 464 314 465 q 351 484 343 467 q 365 515 358 501 q 373 553 365 533 q 374 589 381 572 q 381 618 381 604 q 383 647 382 632 q 374 652 381 654 q 367 658 368 650 m 289 338 q 253 310 265 332 q 235 271 242 289 q 235 244 233 257 q 222 214 224 229 q 221 183 221 199 q 217 153 226 167 q 204 125 207 140 q 204 113 203 118 q 208 103 206 108 q 210 94 210 99 q 206 83 210 89 q 208 71 207 76 q 215 63 208 65 q 240 61 226 56 q 264 75 253 67 q 277 104 271 90 q 281 132 283 118 q 287 174 286 154 q 303 214 288 194 q 302 237 300 226 q 308 261 304 247 q 307 292 306 276 q 308 325 308 308 q 298 328 300 322 q 289 338 296 335 z "},"9":{"ha":456,"x_min":93,"x_max":543,"o":"m 403 810 q 422 811 414 808 q 439 818 431 814 q 453 815 447 818 q 466 807 460 811 q 479 799 472 803 q 496 797 486 796 q 514 771 506 783 q 536 747 522 758 q 541 704 539 724 q 531 661 543 685 q 524 611 535 636 q 517 563 513 586 q 508 526 515 543 q 506 490 500 508 q 490 453 490 471 q 482 417 490 436 q 475 363 474 389 q 467 310 476 338 q 461 265 463 286 q 456 222 460 244 q 433 164 449 192 q 433 140 438 151 q 420 119 428 129 q 404 98 413 108 q 394 75 396 88 q 374 53 386 61 q 349 38 363 44 q 322 26 336 32 q 297 10 308 19 q 269 6 281 -1 q 240 10 258 13 q 205 9 222 3 q 176 28 188 15 l 157 25 q 148 34 151 29 q 138 40 144 39 q 106 88 118 60 q 103 149 93 117 q 103 171 101 157 q 110 196 104 185 q 115 260 106 228 q 122 325 125 293 q 128 331 126 326 q 135 332 131 335 q 140 313 139 324 q 142 293 140 303 q 150 275 144 283 q 168 265 156 267 q 164 248 168 258 q 164 231 160 238 q 178 224 169 228 q 183 213 186 219 l 196 204 q 210 216 204 207 q 229 222 217 225 q 233 208 233 217 q 231 192 232 200 q 230 176 229 183 q 236 163 231 168 l 242 165 q 249 160 246 164 q 257 152 253 156 q 265 147 261 149 q 276 151 269 146 q 294 174 288 163 q 304 197 300 185 q 301 215 299 206 q 306 233 303 224 q 313 251 310 242 q 313 269 315 261 q 323 288 322 279 q 323 304 324 296 q 322 322 322 313 q 331 340 322 331 l 326 360 q 306 359 317 361 q 285 354 296 357 q 266 351 275 351 q 250 358 257 351 q 231 360 238 356 q 218 371 224 364 q 206 383 213 378 q 189 388 200 389 q 178 398 182 392 q 173 412 175 404 q 169 426 171 419 q 161 439 167 433 q 165 460 165 450 q 163 481 164 471 q 163 501 163 490 q 171 524 164 511 q 171 544 167 532 q 169 563 175 556 q 181 608 178 586 q 189 651 185 629 q 203 693 193 675 q 222 723 204 713 q 246 750 239 733 q 275 776 261 765 q 308 789 289 786 q 318 797 313 796 q 330 799 324 799 q 342 801 336 799 q 350 810 347 803 q 371 815 361 817 q 389 821 381 813 q 399 817 394 818 q 403 810 403 817 m 364 699 q 351 690 354 697 q 340 679 349 682 q 327 659 335 669 q 322 638 319 649 q 314 622 315 629 q 312 608 313 615 q 310 592 311 600 q 303 575 308 583 q 305 560 307 568 q 301 544 303 551 q 297 528 299 536 q 301 514 296 521 q 299 500 296 504 q 307 494 301 496 q 318 489 313 492 q 324 478 324 486 q 336 482 331 478 q 347 489 342 486 q 349 497 346 493 q 355 504 351 501 q 362 511 358 507 q 365 519 365 515 q 367 540 363 531 q 376 560 371 550 q 383 578 381 569 q 381 599 385 588 q 388 634 389 617 q 393 671 386 651 q 385 691 397 688 q 364 699 372 694 z "},"B":{"ha":467,"x_min":32,"x_max":549,"o":"m 521 760 q 534 756 528 763 q 543 743 540 749 q 546 703 549 725 q 544 663 543 682 q 535 642 532 654 q 535 618 539 629 q 522 571 524 594 q 504 528 521 547 q 498 504 507 515 q 478 486 489 493 q 458 472 465 482 q 439 460 451 463 q 456 440 453 454 q 475 424 460 426 q 481 395 485 411 q 489 368 478 379 q 480 338 482 353 q 476 308 478 324 q 472 276 475 292 q 458 247 468 261 q 458 214 460 232 q 446 182 456 196 q 449 155 449 169 q 440 128 449 140 q 438 113 443 121 q 438 96 433 104 q 423 83 432 88 q 414 68 414 79 q 406 58 413 61 q 392 53 399 56 q 349 32 369 36 q 306 28 328 28 l 258 28 q 236 27 247 28 q 214 24 225 26 q 191 26 204 22 q 167 32 178 29 l 108 17 q 88 18 99 17 q 64 13 76 19 q 58 17 63 18 q 49 15 54 17 q 38 13 43 14 q 32 18 33 13 q 42 32 42 24 q 56 39 43 40 q 71 65 65 50 q 83 92 76 79 q 90 126 85 110 q 97 160 94 143 q 101 183 100 171 q 99 207 101 194 q 110 234 104 221 q 122 260 117 247 q 124 305 121 282 q 131 351 126 328 q 140 390 135 371 q 150 429 146 410 q 151 455 147 442 q 161 481 156 468 q 169 508 167 494 q 167 533 172 521 q 172 553 169 543 q 169 571 175 563 l 183 614 q 172 621 179 619 q 156 622 164 622 q 139 619 147 621 q 125 619 131 618 q 141 644 129 635 q 164 664 153 653 q 157 665 161 669 q 149 661 153 661 l 115 663 q 93 653 104 660 q 75 654 82 646 q 83 665 78 660 q 85 676 89 669 q 110 710 99 692 q 146 733 122 729 q 148 743 153 738 q 146 753 143 749 q 140 763 138 756 q 178 776 158 774 q 219 782 199 778 q 290 786 254 783 q 360 786 325 789 q 377 792 368 792 q 395 790 386 792 q 414 789 404 789 q 433 794 424 789 q 482 787 456 792 q 521 760 508 782 m 364 678 q 351 663 357 675 q 331 642 336 657 q 324 615 326 626 q 315 543 306 575 l 329 531 q 349 532 339 526 q 368 540 358 538 q 378 572 369 556 q 390 603 386 588 q 385 619 385 611 q 388 638 386 628 q 392 656 390 647 q 390 674 394 665 q 376 676 381 671 q 364 678 372 681 m 319 407 q 306 405 311 403 q 293 401 301 407 q 275 383 289 390 q 264 361 261 376 q 261 335 267 349 q 258 307 256 322 q 245 273 249 289 q 241 241 242 257 q 240 210 240 225 q 235 178 239 194 q 236 173 235 175 q 233 168 238 171 q 239 159 233 161 q 247 151 244 157 q 258 148 250 143 q 274 149 267 153 q 290 158 285 151 q 298 172 294 164 q 303 190 301 181 q 313 206 306 199 q 313 233 306 217 q 326 263 321 249 q 335 314 333 289 q 347 364 338 339 q 342 377 343 369 q 340 392 342 385 q 335 404 339 400 q 319 407 331 408 z "},"C":{"ha":442,"x_min":69,"x_max":526,"o":"m 481 729 q 501 724 494 729 q 510 710 507 718 q 516 692 514 701 q 522 674 518 682 q 525 631 524 651 q 518 590 526 611 q 520 561 518 575 q 514 535 522 547 l 507 494 q 480 490 493 490 q 454 474 467 490 q 441 456 451 460 q 419 449 431 453 q 407 429 417 438 q 397 410 397 421 q 381 394 385 407 q 369 372 378 381 q 364 369 367 369 q 360 372 361 369 l 358 376 q 374 456 364 414 q 379 536 385 499 l 389 572 q 381 588 383 578 q 376 606 379 597 q 369 618 374 614 q 351 618 364 622 q 336 608 346 610 q 319 600 326 606 q 285 505 301 553 q 258 408 269 457 q 251 369 254 389 q 247 331 249 350 q 233 300 236 315 q 231 269 231 285 q 229 239 231 254 q 219 207 228 224 q 222 167 222 188 q 225 129 221 147 q 235 113 226 117 q 247 97 243 108 q 281 106 263 100 q 306 131 299 111 q 316 152 311 142 q 319 172 321 163 q 347 190 332 182 q 375 192 363 197 l 379 182 q 397 194 389 186 q 410 211 404 203 q 425 225 417 219 q 446 231 433 231 q 444 177 444 207 q 429 122 443 147 q 426 89 436 104 q 408 57 415 74 q 397 41 401 50 q 388 23 392 32 q 377 6 383 14 q 360 -6 371 -1 q 321 -29 339 -18 q 281 -39 303 -40 q 240 -56 261 -54 q 200 -56 218 -58 q 168 -40 186 -43 q 139 -24 150 -37 q 105 -5 117 -22 q 82 28 93 13 q 80 52 83 40 q 73 75 76 64 q 69 98 69 86 q 76 124 69 110 q 78 148 82 138 q 78 172 75 158 q 92 219 85 196 q 104 267 99 243 q 111 342 113 307 q 131 419 121 382 q 149 494 142 457 q 160 567 158 533 q 180 620 175 592 q 208 671 185 649 q 236 703 218 690 q 271 732 254 717 l 304 744 q 330 740 315 742 q 356 749 344 738 q 369 749 363 749 q 382 753 375 750 q 433 745 406 746 q 481 729 460 744 z "},"D":{"ha":478,"x_min":40,"x_max":568,"o":"m 500 775 q 519 763 507 764 q 542 758 531 761 q 563 731 557 749 q 565 697 568 713 q 559 684 560 690 q 559 672 558 678 q 560 659 560 665 q 557 646 560 653 q 547 607 549 625 q 543 569 546 589 q 533 541 535 554 q 531 515 531 528 q 528 488 531 501 q 518 458 526 474 q 508 419 511 438 q 501 382 506 400 q 485 325 494 353 q 492 301 488 314 q 486 276 496 289 q 474 258 481 267 q 476 240 467 249 q 469 209 469 225 q 460 178 469 193 q 462 157 469 169 q 447 135 454 144 q 424 104 438 118 q 390 86 410 90 q 369 67 382 74 q 342 54 356 60 q 292 48 314 44 q 242 44 269 51 q 220 49 231 50 q 199 45 210 47 q 178 42 189 43 q 156 47 167 40 q 135 46 147 50 q 114 42 124 42 q 95 48 106 50 q 74 42 85 46 q 53 39 63 39 q 40 51 44 39 q 51 57 43 56 q 57 67 60 58 q 59 72 57 69 q 65 75 61 75 q 74 87 74 78 q 81 101 74 96 q 92 115 88 107 q 94 131 97 124 l 92 136 q 111 200 104 169 q 129 265 118 231 q 124 280 124 272 q 128 296 125 288 q 135 313 131 304 q 142 329 139 321 q 136 350 133 339 q 144 372 139 361 q 153 392 150 382 q 149 414 157 403 q 153 433 151 424 q 158 454 156 443 q 169 515 165 485 q 178 574 174 546 q 186 595 185 583 q 189 618 188 607 l 167 642 q 143 638 156 642 q 124 642 131 635 q 138 656 129 650 q 153 672 146 663 q 134 680 146 679 q 110 678 122 681 q 93 670 101 675 q 76 668 85 665 q 81 692 74 682 q 99 713 88 703 q 123 731 110 722 q 146 749 136 739 l 175 758 q 171 764 175 763 q 163 766 167 765 q 156 769 158 767 q 157 776 154 771 q 210 787 185 779 q 264 792 236 794 q 281 793 272 790 q 299 798 290 796 q 315 801 307 800 q 331 797 324 801 q 367 791 346 788 q 407 794 388 794 q 416 794 410 792 q 425 800 422 797 q 444 802 435 803 q 461 808 453 801 q 475 804 471 808 q 482 794 479 800 q 488 782 485 788 q 500 775 492 776 m 383 665 q 376 666 379 668 q 369 660 372 664 q 363 655 367 657 q 354 654 358 653 q 346 648 347 651 q 342 642 344 644 q 319 548 335 597 q 297 458 304 499 q 298 439 301 449 q 290 419 294 429 q 284 400 286 410 q 286 381 282 390 q 278 361 281 371 q 272 342 275 351 q 265 299 267 319 q 257 254 264 278 q 255 238 257 247 q 251 221 253 229 q 250 206 249 213 q 258 194 251 199 q 258 181 264 188 q 258 169 251 174 q 275 160 265 160 q 294 160 285 160 q 315 171 306 163 q 332 190 325 179 q 333 216 331 203 q 340 243 336 229 q 349 269 344 257 q 354 294 353 282 q 361 324 353 308 q 368 356 369 340 q 368 395 363 375 q 376 436 374 415 q 388 494 388 464 q 396 553 389 524 q 410 593 400 574 q 406 606 406 599 q 407 622 406 614 q 408 637 408 629 q 403 650 408 644 q 392 656 399 653 q 383 665 386 658 z "},"E":{"ha":385,"x_min":7,"x_max":575,"o":"m 360 772 q 390 781 372 775 q 418 774 407 786 q 478 777 449 781 q 538 781 507 774 q 547 778 542 778 q 558 780 553 779 q 569 780 564 781 q 575 774 574 779 q 524 740 549 760 q 475 701 499 721 q 490 698 481 699 q 503 690 500 697 q 472 668 488 678 q 447 639 456 658 q 427 640 438 636 q 406 640 417 643 q 375 634 390 640 q 344 631 360 628 q 333 625 336 629 q 331 615 331 621 q 331 603 331 610 q 329 593 331 597 q 313 563 311 581 q 308 531 314 544 q 334 523 319 518 q 367 524 349 528 q 401 525 385 521 q 436 525 418 529 q 467 528 453 536 q 463 515 469 522 q 435 491 447 504 q 408 464 422 478 q 412 458 408 461 q 418 453 415 456 q 421 447 421 450 q 415 440 421 444 l 364 407 q 365 399 364 403 q 364 392 367 396 q 354 389 358 389 q 345 390 350 389 q 335 392 340 392 q 325 392 331 393 q 315 385 321 386 q 302 383 308 385 q 291 380 296 382 q 285 369 286 378 q 284 356 288 363 q 276 341 281 349 q 269 326 272 333 q 272 311 267 319 q 269 307 268 308 q 271 303 269 306 q 256 251 256 278 q 247 194 257 224 q 266 194 257 190 q 283 196 275 199 q 318 199 303 201 q 349 196 333 197 q 360 197 354 194 q 373 201 367 199 q 384 203 379 203 q 393 197 389 203 q 404 198 399 194 q 415 199 410 201 q 377 166 399 183 q 336 133 356 149 q 344 124 336 126 q 347 113 353 122 l 290 76 q 306 65 297 69 q 317 51 314 60 q 298 42 307 44 q 280 41 289 40 q 262 42 271 42 q 242 42 253 43 q 215 35 226 35 q 193 36 204 35 q 171 38 182 38 q 146 29 160 38 q 111 33 131 32 q 74 28 92 35 q 40 33 58 38 q 8 33 22 28 l 7 35 q 17 42 10 42 q 29 44 24 43 q 63 79 47 60 q 81 118 79 99 q 92 142 89 131 q 97 166 94 154 q 101 190 99 178 q 113 215 104 203 q 113 219 110 218 q 115 222 115 219 q 116 244 113 232 q 124 269 119 257 q 128 293 128 282 q 121 314 129 304 q 143 386 135 349 q 148 414 146 400 q 153 442 150 428 q 169 501 158 469 q 174 541 176 522 q 186 579 172 560 q 186 599 185 589 q 190 619 188 610 q 138 618 167 626 q 86 590 110 610 q 78 578 81 585 q 68 572 75 571 q 68 589 65 581 q 76 606 71 597 q 87 624 81 615 q 96 642 93 633 q 111 653 101 649 q 124 668 121 658 q 101 667 113 668 q 78 663 89 667 q 82 678 78 672 q 92 690 86 685 q 106 700 99 694 q 117 713 113 706 q 133 724 125 718 q 151 736 142 729 q 135 742 144 742 q 132 753 125 742 q 177 769 154 760 q 221 769 200 778 q 238 776 229 778 q 256 781 246 774 q 270 778 263 774 q 286 783 278 783 l 360 772 z "},"F":{"ha":382,"x_min":58,"x_max":539,"o":"m 536 771 q 538 765 539 768 q 536 760 538 763 q 503 735 519 749 q 475 707 486 722 q 485 703 479 703 q 494 694 492 703 l 493 688 q 461 669 475 679 q 435 649 447 660 q 438 645 436 646 q 442 642 440 644 q 429 631 436 633 q 415 631 422 629 q 401 633 408 632 q 386 632 393 633 q 335 625 361 625 q 328 600 324 611 q 326 575 332 589 q 319 558 319 567 q 318 540 318 549 q 317 524 318 532 q 307 510 315 517 l 306 506 q 328 504 317 504 q 351 504 340 504 l 400 504 q 440 509 419 507 q 476 503 461 511 q 453 482 467 490 q 432 458 440 474 q 404 438 418 447 q 375 418 390 429 q 385 412 378 413 q 389 401 392 411 q 356 388 374 393 q 328 368 339 383 q 306 365 317 365 q 289 357 296 364 q 274 297 282 326 q 258 239 265 267 q 255 217 256 228 q 251 196 254 207 q 240 159 246 179 q 231 119 235 139 q 222 69 225 96 q 223 53 224 63 q 225 36 222 43 q 217 17 214 28 q 222 -3 219 6 l 243 -44 q 233 -49 238 -50 q 223 -47 228 -49 q 213 -42 218 -44 q 200 -42 207 -40 l 171 -17 q 158 -28 168 -26 q 150 -40 147 -31 q 149 -54 146 -46 q 140 -62 151 -62 q 115 -27 122 -49 q 101 14 108 -6 q 90 3 94 10 q 82 -8 86 -3 q 74 -18 78 -14 q 63 -22 69 -22 q 67 4 63 -10 q 69 31 71 18 q 74 54 69 43 q 79 78 78 65 l 76 78 q 83 115 79 97 q 97 151 88 132 q 103 188 99 171 q 115 222 108 206 q 110 250 108 236 q 117 278 113 264 q 128 308 122 293 q 135 336 135 322 q 149 416 146 376 q 167 497 153 456 q 167 510 167 504 q 168 524 167 515 q 178 563 176 543 q 183 603 179 582 q 142 599 164 604 q 106 575 121 594 q 96 574 103 569 q 106 596 96 586 q 115 617 115 606 q 128 629 119 625 q 135 642 138 633 q 101 649 118 651 q 65 642 85 647 l 58 642 l 61 653 q 72 662 72 654 q 79 676 71 669 q 112 700 94 688 q 144 724 129 713 q 149 725 146 722 l 135 736 q 180 759 157 747 q 226 768 203 771 q 241 772 233 771 q 254 767 249 772 q 278 765 267 765 q 304 764 290 764 q 337 766 319 764 q 369 774 354 768 q 379 771 375 772 q 389 765 383 769 q 417 773 401 769 q 444 771 433 776 l 536 771 z "},"G":{"ha":453,"x_min":86,"x_max":549,"o":"m 475 804 q 515 790 499 804 q 539 756 532 776 q 546 722 543 740 q 539 683 549 703 q 540 678 542 681 q 536 675 539 676 q 530 674 532 672 q 528 678 528 675 q 527 685 528 681 q 524 690 526 689 q 516 698 518 693 q 507 704 514 703 q 488 653 499 679 q 457 607 478 626 q 446 621 447 610 q 438 640 444 632 q 427 624 435 632 q 421 606 419 615 q 407 596 410 606 q 394 586 404 586 q 392 606 389 593 q 393 631 394 619 q 398 644 401 638 q 396 658 394 651 q 383 669 393 669 q 367 678 372 669 q 354 677 360 681 q 344 667 349 674 q 334 654 339 661 q 325 643 329 647 q 324 628 328 636 q 317 613 321 621 q 310 598 313 606 q 311 582 307 590 q 306 567 307 574 q 307 554 306 561 q 294 517 294 538 q 282 479 293 496 q 271 426 293 453 q 271 422 275 424 q 269 418 267 421 q 263 372 271 394 q 257 328 254 350 q 246 298 249 313 q 242 269 243 283 q 242 240 242 254 q 238 210 242 225 q 251 191 240 199 q 276 186 263 183 l 300 207 q 312 246 304 226 q 332 281 319 265 q 338 340 336 310 q 346 400 339 369 q 352 424 349 413 q 361 449 356 436 q 363 478 361 463 q 371 506 364 493 q 370 512 372 508 q 367 519 368 515 q 367 525 365 522 q 375 529 368 528 q 413 529 394 525 q 451 526 432 533 q 488 533 468 533 q 522 529 507 532 q 522 511 524 522 q 513 494 521 500 q 508 473 506 483 q 504 451 511 463 q 494 393 497 419 q 485 340 490 367 q 478 310 482 325 q 467 281 474 296 q 469 263 472 272 q 463 245 467 254 q 455 227 458 236 q 456 208 451 218 q 446 166 457 185 q 439 125 435 147 q 434 66 439 93 q 436 11 429 39 q 449 -17 439 -4 q 457 -46 458 -29 l 449 -51 q 415 -26 428 -40 q 388 7 401 -11 q 383 -2 383 3 q 381 -11 382 -7 q 378 -17 381 -15 q 369 -17 376 -19 q 348 4 358 -7 q 331 29 338 15 q 322 18 326 26 q 311 7 318 10 q 303 17 304 10 q 297 32 301 25 q 246 24 272 24 q 194 31 218 24 q 146 50 169 39 q 130 68 139 60 q 113 85 121 76 q 100 106 104 94 q 99 132 96 117 q 87 163 88 147 q 89 196 86 179 q 99 235 93 215 q 106 274 106 254 q 115 288 108 279 q 111 299 122 296 q 110 310 111 306 q 107 322 108 315 q 118 344 113 333 q 128 367 124 356 q 131 403 128 386 q 139 440 135 421 q 146 476 142 458 q 154 513 150 494 q 164 560 163 536 q 175 610 165 585 l 172 613 q 178 627 178 618 q 181 643 178 636 q 188 663 188 653 q 194 683 188 672 q 210 700 204 690 q 222 719 217 710 q 235 738 228 729 q 253 754 242 747 q 261 760 256 758 q 273 765 267 763 q 284 770 279 767 q 290 781 289 774 q 308 794 297 788 q 329 803 319 800 q 342 809 332 810 q 360 808 353 808 q 396 819 378 818 q 433 819 414 819 q 456 815 447 822 q 475 804 464 808 z "},"H":{"ha":450,"x_min":50,"x_max":549,"o":"m 485 765 q 501 740 493 750 q 513 711 510 731 q 524 727 521 715 q 538 733 526 739 q 542 687 549 713 q 538 639 536 661 q 522 588 524 611 q 510 536 521 564 q 506 508 510 524 q 499 478 503 493 q 491 447 494 463 q 489 419 488 432 q 478 390 485 404 q 474 361 472 376 q 467 342 471 351 q 464 322 463 333 q 463 309 467 315 q 460 294 460 303 q 440 181 454 238 q 426 72 425 125 q 415 47 417 60 q 413 20 413 33 q 411 -6 413 7 q 404 -32 410 -19 q 406 -63 403 -49 q 417 -93 410 -78 q 411 -98 414 -97 q 406 -101 408 -99 q 369 -68 382 -90 q 346 -25 357 -46 q 338 -33 340 -28 q 334 -45 336 -39 q 328 -56 332 -51 q 318 -58 325 -60 q 305 -20 307 -40 q 300 19 303 0 q 288 7 292 18 q 272 0 283 -4 q 283 57 279 28 q 293 117 286 86 q 299 139 296 128 q 306 161 303 150 q 312 222 311 193 q 319 282 313 251 q 288 287 304 286 q 256 279 271 288 q 246 282 251 285 q 238 275 240 279 q 233 229 238 251 q 215 167 226 197 q 204 104 204 136 q 200 83 201 93 q 196 61 199 72 q 191 31 193 46 q 192 0 189 15 q 183 -45 178 -24 q 186 -90 188 -67 q 192 -99 189 -96 q 194 -110 196 -103 q 183 -112 186 -115 q 176 -106 181 -108 q 168 -105 172 -108 q 161 -99 164 -101 q 147 -71 156 -83 q 133 -42 138 -58 q 125 -51 126 -44 q 122 -63 124 -57 q 118 -74 121 -69 q 107 -76 115 -78 q 89 -45 100 -60 q 75 -12 78 -31 q 64 -23 68 -14 q 53 -28 60 -32 q 53 -6 50 -17 q 60 17 56 6 q 67 39 64 28 q 69 63 71 50 q 84 149 78 104 q 103 236 90 194 q 103 269 100 253 q 113 301 107 285 q 124 333 118 317 q 129 365 129 349 q 135 385 136 375 q 131 401 133 394 q 140 422 138 413 q 146 443 143 432 q 152 483 150 463 q 161 525 154 504 q 170 578 167 551 q 182 632 174 606 l 181 683 l 193 692 q 197 690 193 690 q 195 705 200 699 q 193 719 190 711 q 185 747 190 733 q 174 771 181 760 l 178 785 q 231 768 206 779 q 276 738 257 757 q 283 744 282 739 q 285 755 285 750 q 287 763 285 760 q 297 764 289 767 q 317 733 308 750 q 321 694 325 715 q 322 647 324 671 q 314 599 319 622 q 301 546 308 572 q 290 492 294 519 q 288 480 290 486 q 284 467 286 474 q 283 456 282 461 q 289 446 283 450 q 322 449 304 454 q 357 451 340 444 q 369 484 364 468 q 378 517 374 500 q 388 585 385 550 q 401 656 392 619 q 401 669 399 661 q 406 684 403 676 q 409 699 408 692 q 401 711 410 706 q 405 720 400 717 q 417 724 410 724 q 436 715 425 717 q 438 756 438 735 q 429 792 439 776 q 439 799 432 801 q 450 794 446 796 l 485 765 z "},"I":{"ha":392,"x_min":3,"x_max":561,"o":"m 333 742 q 360 741 347 735 q 389 744 374 747 q 413 744 403 746 q 433 740 424 742 q 451 736 442 738 q 474 736 461 735 q 513 740 492 739 q 549 739 533 742 q 560 742 554 744 q 560 738 561 739 q 560 735 560 738 q 515 704 536 719 q 474 672 494 689 q 496 666 486 668 q 514 657 506 664 l 514 654 q 485 644 500 647 q 458 626 469 642 q 468 622 461 622 q 472 615 475 621 q 435 609 453 608 q 399 608 418 610 q 388 601 393 601 q 381 593 383 601 q 380 578 382 585 q 375 565 378 571 q 372 551 372 558 q 374 538 371 544 q 365 503 367 521 q 357 468 364 485 q 358 464 361 465 q 357 460 354 463 q 351 432 350 446 q 338 407 353 418 q 338 401 335 403 q 342 396 340 399 l 344 375 q 329 334 333 356 q 317 293 325 313 q 309 231 311 261 q 299 168 307 200 q 299 160 303 164 q 294 150 294 156 q 290 134 292 142 q 290 118 288 126 q 319 117 306 118 q 349 117 333 117 q 379 118 364 117 q 410 122 394 119 q 406 112 410 115 q 398 107 403 108 q 388 104 393 106 q 379 99 382 103 q 357 83 368 89 q 336 67 346 78 q 349 63 338 64 q 358 51 360 61 q 335 35 347 42 q 313 24 324 29 q 314 11 310 15 q 312 -1 310 6 q 306 -11 314 -7 q 294 -11 299 -12 q 285 -14 290 -10 q 242 -4 265 -4 q 194 -8 218 -4 q 146 -7 169 -11 q 96 -9 119 -8 q 49 -10 72 -10 q 39 -18 43 -14 q 31 -18 35 -22 q 26 -12 31 -12 q 16 -12 21 -11 q 7 -12 11 -12 q 4 -4 3 -11 l 46 24 q 38 35 47 33 q 29 43 29 38 q 63 60 47 51 q 90 83 78 68 q 88 95 92 90 q 76 101 83 100 q 65 108 64 101 q 75 113 71 115 q 86 113 79 111 l 153 118 q 170 188 163 153 q 186 263 178 222 q 190 288 188 275 q 196 314 193 301 q 205 356 200 335 q 214 397 210 376 q 219 422 217 410 q 224 447 221 435 q 228 473 225 460 q 235 500 232 486 q 239 544 239 522 q 245 570 244 556 q 250 597 246 585 q 227 594 239 594 q 208 603 215 593 q 164 604 186 601 q 121 607 142 607 q 136 621 124 618 q 154 633 149 624 q 162 635 158 632 q 168 642 165 639 l 168 644 q 153 651 161 649 q 138 657 144 654 q 158 673 147 668 q 181 682 169 678 q 202 692 192 686 q 221 708 213 697 q 231 718 231 711 q 231 724 232 722 q 228 728 229 726 q 226 733 226 731 q 228 739 225 735 q 281 740 256 746 q 333 742 307 733 z "},"J":{"ha":415,"x_min":65,"x_max":511,"o":"m 460 763 q 463 758 460 760 q 465 754 467 757 q 472 758 469 754 q 476 767 475 763 q 481 774 478 772 q 488 771 483 776 l 497 754 q 504 758 497 758 q 511 715 511 736 q 506 669 511 693 q 492 620 500 644 q 482 569 485 596 q 475 531 479 550 q 467 493 471 513 q 463 470 464 482 q 461 447 461 458 q 446 400 450 424 q 436 353 442 376 q 428 317 433 335 q 413 281 422 300 q 401 209 407 244 q 388 138 394 174 q 382 114 385 126 q 376 90 379 101 q 353 56 365 75 q 322 29 342 38 q 302 3 311 18 q 278 -18 293 -12 q 229 -29 251 -29 q 183 -32 207 -29 q 143 -22 161 -31 q 110 -1 125 -14 q 93 3 97 -3 q 88 16 89 8 q 86 32 86 24 q 82 47 86 40 q 69 71 71 58 q 71 97 68 83 q 76 123 74 110 q 76 149 79 136 q 75 184 78 167 q 65 215 72 201 q 81 228 68 228 q 98 221 89 225 q 115 213 107 217 q 125 254 125 235 q 131 297 125 274 l 139 299 q 146 274 140 286 q 158 251 151 263 q 167 227 164 239 q 169 201 171 215 q 172 197 172 199 q 175 192 172 194 q 187 202 182 197 q 201 210 192 207 q 205 200 206 206 q 203 188 204 194 q 200 176 201 182 q 200 164 199 169 q 201 142 193 150 q 217 125 210 133 q 235 126 225 125 q 251 138 244 128 q 262 182 254 160 q 277 227 269 204 q 291 272 285 250 q 299 317 297 294 q 303 344 301 331 q 308 372 306 358 q 324 436 315 404 q 340 503 332 468 q 340 519 338 511 q 345 536 342 528 q 351 552 349 544 q 350 567 354 560 q 360 589 357 578 q 365 611 363 600 q 371 644 368 628 q 378 676 374 660 q 377 694 379 685 q 368 710 375 703 q 381 719 371 719 q 399 721 392 719 q 398 765 401 742 q 381 804 394 789 q 380 809 378 807 q 385 814 382 811 q 424 791 407 804 q 460 763 442 778 z "},"K":{"ha":456,"x_min":69,"x_max":579,"o":"m 267 779 q 273 786 269 782 q 281 789 276 790 q 297 778 290 785 q 306 793 304 786 q 310 811 307 800 q 316 814 313 814 q 321 813 319 814 l 331 796 q 316 679 328 733 q 297 560 304 625 q 333 613 315 588 q 361 671 350 639 q 392 717 376 696 q 421 764 407 739 q 447 802 440 779 q 468 843 453 825 l 475 842 q 474 808 475 825 q 472 775 472 790 q 491 790 483 782 q 507 807 499 799 q 515 794 515 804 q 521 779 514 785 q 518 773 518 776 q 522 768 518 769 q 548 785 536 774 q 567 810 560 797 q 572 813 569 813 q 578 813 575 813 l 579 808 q 565 782 574 794 q 547 757 556 769 q 532 732 539 744 q 522 706 525 719 q 498 665 506 686 q 471 629 490 643 q 447 580 456 606 q 414 535 438 554 q 389 484 403 507 q 364 436 375 461 q 368 384 367 410 q 381 333 369 358 q 380 313 378 322 q 385 296 382 304 q 392 278 389 288 q 390 260 394 269 q 406 208 399 235 q 419 156 413 182 q 435 104 426 129 q 457 54 443 79 q 465 32 457 43 q 469 8 472 21 q 458 8 463 6 q 451 16 454 11 q 445 26 449 21 q 436 35 442 32 q 403 44 422 46 q 398 37 401 42 q 390 29 394 32 l 386 31 q 370 58 379 44 q 347 81 361 71 q 338 72 340 78 q 334 58 336 65 q 329 47 332 51 q 318 44 326 43 q 290 142 299 90 q 264 239 282 193 q 258 272 264 257 q 247 306 253 288 q 239 278 242 292 q 233 249 236 264 q 228 219 231 233 q 224 193 225 206 q 215 164 221 178 q 211 136 210 150 l 208 135 l 201 71 q 201 57 199 64 q 201 42 204 50 q 199 3 199 22 q 207 -31 200 -15 q 203 -37 207 -36 q 196 -40 199 -39 q 175 -10 183 -28 q 153 24 167 8 q 144 24 149 25 q 136 20 140 22 q 128 19 132 18 q 125 26 125 19 q 119 45 122 35 q 107 60 115 56 l 104 65 q 92 48 97 58 q 75 39 86 38 q 75 49 69 43 q 78 58 81 54 q 78 78 75 68 q 83 97 81 88 q 88 116 86 107 q 83 133 89 125 q 93 161 90 147 q 99 189 96 175 q 108 244 106 217 q 118 299 111 271 q 125 326 121 313 q 133 353 129 339 q 148 435 140 393 q 163 518 156 476 q 177 591 176 554 q 189 664 178 628 q 199 702 201 685 q 208 743 197 719 q 204 760 207 751 q 210 779 201 768 q 208 817 210 799 q 196 851 206 836 q 208 856 203 857 q 218 851 214 854 q 226 842 222 847 q 236 836 231 838 q 250 806 244 821 q 267 779 256 790 z "},"L":{"ha":350,"x_min":31,"x_max":436,"o":"m 303 794 q 310 790 306 793 q 315 794 314 788 l 315 800 q 322 801 319 799 q 325 806 324 803 q 328 811 326 808 q 335 814 331 814 q 347 755 350 788 q 339 689 344 722 q 338 649 340 669 q 329 607 335 628 q 320 565 325 586 q 311 524 315 544 q 306 502 308 513 q 303 481 304 492 q 290 453 294 467 q 282 426 285 440 q 274 376 276 401 q 265 322 272 350 q 253 265 254 294 q 242 211 251 236 l 254 204 q 306 201 281 199 q 358 204 332 204 q 384 203 371 204 q 408 197 397 201 q 424 198 415 194 q 436 194 433 201 q 428 188 433 189 q 418 183 422 186 q 381 166 399 175 q 350 139 364 157 q 351 128 347 132 q 358 121 354 124 q 365 114 363 118 q 365 103 368 110 q 355 97 361 99 q 343 93 349 94 q 333 88 338 92 q 329 78 329 85 q 329 67 335 76 q 289 65 308 67 q 250 64 269 64 q 210 66 229 64 q 168 75 190 68 q 144 67 156 69 q 119 68 132 65 q 106 65 113 65 q 94 58 99 64 q 72 62 83 65 q 47 61 61 58 q 31 63 36 53 q 34 70 31 65 q 44 74 38 75 q 74 109 57 89 q 88 150 90 129 q 98 186 92 169 q 107 219 104 203 q 110 242 110 231 q 108 267 111 253 q 113 283 108 275 q 124 301 118 292 q 131 341 126 321 q 139 382 135 361 q 154 449 146 415 q 169 517 163 483 q 179 567 175 542 q 188 617 183 592 q 193 654 190 636 q 200 693 196 672 q 195 704 194 699 q 199 715 196 710 q 204 727 201 721 q 206 739 207 733 q 195 796 208 771 q 163 842 182 821 q 153 846 160 846 q 150 853 147 846 q 163 858 151 858 q 205 845 186 856 q 244 824 224 835 l 247 825 q 244 849 249 836 q 254 869 240 863 q 282 835 272 856 q 303 794 292 814 z "},"M":{"ha":629,"x_min":57,"x_max":710,"o":"m 301 719 q 311 732 307 722 q 326 739 315 742 q 346 690 343 717 q 356 638 349 663 q 363 569 361 601 q 363 501 365 538 q 370 488 368 496 q 373 473 372 481 q 375 458 374 465 q 381 444 376 450 q 379 432 379 438 q 386 425 379 426 l 397 376 q 425 418 415 393 q 454 464 435 443 q 463 488 456 476 q 478 508 469 499 q 494 528 486 518 q 506 550 501 539 q 520 577 517 564 q 536 603 524 590 q 540 621 535 611 q 551 640 546 631 q 560 658 557 649 q 556 674 563 667 q 559 678 556 676 q 564 679 563 681 q 574 674 569 678 q 585 674 578 671 q 603 705 601 686 q 607 740 604 724 q 606 763 608 751 q 597 781 604 774 q 601 786 597 783 q 606 790 604 789 q 645 758 631 779 q 671 714 660 736 q 683 728 676 721 q 692 744 690 735 q 698 746 694 744 q 703 744 701 747 q 708 692 710 719 q 699 638 706 665 q 686 585 693 611 q 675 535 679 558 q 672 495 678 515 q 663 457 667 475 q 657 437 660 446 q 651 417 654 428 q 647 364 647 392 q 638 306 638 335 q 631 246 638 276 q 611 196 626 222 q 604 144 610 171 q 594 92 599 118 q 586 39 589 65 q 586 -12 583 13 q 579 -32 579 -22 q 581 -51 579 -42 q 585 -69 583 -60 q 586 -86 588 -78 l 583 -89 q 549 -67 565 -78 q 526 -33 533 -56 q 507 -35 518 -31 q 489 -40 496 -40 q 488 -15 490 -26 q 485 8 486 -3 q 477 -6 478 4 q 467 -12 476 -15 l 449 -8 q 467 94 463 44 q 479 193 471 144 q 491 247 489 219 q 497 301 493 274 l 496 301 q 467 253 476 279 q 439 207 458 228 q 435 197 440 200 q 428 189 429 194 q 403 139 418 164 q 369 90 388 114 q 356 49 358 68 q 333 11 353 31 q 327 -3 333 4 q 318 -17 321 -10 q 310 -7 310 -15 q 308 7 310 1 q 303 22 306 14 q 294 36 300 29 q 303 61 304 49 q 299 85 303 74 q 290 109 294 97 q 286 135 285 121 q 278 181 281 157 q 264 228 275 206 l 271 250 l 267 254 q 265 278 269 265 q 258 300 261 290 q 233 214 249 256 q 213 126 217 172 q 207 107 208 117 q 205 88 206 97 q 201 67 204 78 q 192 47 199 57 l 190 19 l 188 18 q 188 -43 192 -12 q 192 -100 185 -74 l 185 -103 q 156 -74 174 -87 q 131 -42 138 -61 q 120 -47 125 -39 q 108 -47 115 -54 q 101 -17 106 -32 q 93 11 97 -3 q 88 7 88 11 q 88 0 89 3 q 76 -10 81 -3 q 61 -19 71 -18 q 59 1 58 -8 q 57 22 60 11 l 58 24 q 63 38 60 31 q 65 54 67 46 q 78 99 75 76 q 89 144 82 121 q 95 177 96 160 q 103 210 94 194 q 101 228 99 219 q 109 247 104 238 q 116 266 114 257 q 113 283 118 275 l 132 325 l 128 351 q 141 408 135 379 q 154 465 147 438 q 166 520 160 493 q 181 575 172 547 q 180 592 178 583 q 185 610 182 601 q 191 628 189 619 q 190 644 193 636 q 197 672 197 658 q 201 699 196 685 q 201 704 203 701 q 199 709 200 707 q 197 713 197 711 q 203 718 197 715 q 219 718 211 719 q 235 722 228 717 q 227 759 233 742 q 207 790 221 776 l 217 796 q 261 761 236 776 q 301 719 286 746 z "},"N":{"ha":488,"x_min":79,"x_max":586,"o":"m 488 813 q 521 783 504 801 q 543 746 538 765 q 551 756 549 750 q 555 768 553 763 q 560 778 557 774 q 571 781 564 782 q 573 773 571 775 q 578 769 575 771 q 583 764 581 767 q 586 757 586 761 q 576 674 581 715 q 560 593 572 633 q 553 570 556 581 q 547 549 550 560 q 540 515 544 532 q 526 479 536 499 q 522 438 524 458 q 507 396 519 417 q 503 354 507 375 q 488 301 496 326 q 479 246 481 275 q 474 220 476 235 q 468 192 471 206 q 464 160 468 176 q 460 131 460 143 q 455 109 453 119 q 450 90 457 99 q 453 24 447 54 q 461 -37 458 -6 l 460 -44 q 451 -43 451 -47 q 449 -36 450 -39 q 430 -12 440 -22 q 413 14 419 -3 q 400 4 401 13 q 389 -3 399 -4 q 372 26 379 11 q 347 49 365 42 q 341 34 343 43 q 331 26 339 25 q 324 63 328 46 q 315 97 321 79 q 319 124 321 111 q 313 150 317 138 q 307 176 310 163 q 307 204 304 189 q 290 251 301 228 q 276 300 278 274 q 275 303 275 301 q 272 306 275 306 q 263 271 267 290 q 247 239 260 251 q 239 176 246 208 q 226 110 232 143 q 217 45 219 76 q 224 -15 215 14 q 233 -26 226 -21 q 233 -40 239 -32 q 215 -33 222 -43 q 197 -17 208 -22 q 183 -1 186 -11 q 171 17 181 10 l 161 -15 q 149 -12 153 -18 q 142 0 144 -6 q 130 30 135 14 q 114 53 125 46 q 101 35 107 46 q 86 22 94 25 q 85 66 79 42 q 92 111 90 90 q 117 253 103 178 q 146 396 132 329 q 153 428 149 411 q 161 464 158 446 q 165 506 167 485 q 175 537 171 522 q 182 567 179 551 q 191 614 188 590 q 200 664 194 638 q 206 688 201 675 q 203 711 211 701 q 210 718 206 718 q 222 718 217 721 q 233 714 228 715 q 232 747 236 732 q 225 779 228 763 q 216 794 222 786 q 211 808 210 801 l 222 811 q 263 788 240 794 q 303 764 286 782 l 308 764 q 311 779 311 769 q 322 789 311 789 q 340 766 335 779 q 348 737 346 753 q 351 706 350 721 q 357 676 353 690 l 356 676 q 365 589 363 633 q 378 503 367 544 q 381 476 378 490 q 385 449 385 461 q 388 444 385 447 q 397 478 396 461 q 401 513 397 494 q 412 555 410 536 q 425 593 414 574 q 431 619 428 606 q 436 646 433 632 q 439 688 443 671 q 444 717 453 701 q 440 724 442 721 q 440 735 439 728 q 455 735 447 738 q 469 729 463 732 q 473 754 471 742 q 476 778 475 767 q 474 801 476 790 q 461 822 471 813 q 469 829 467 829 q 475 826 472 829 q 481 818 478 822 q 488 813 483 814 z "},"O":{"ha":475,"x_min":88,"x_max":546,"o":"m 469 742 q 487 726 475 731 q 510 716 499 721 q 531 703 522 711 q 540 679 540 696 q 542 651 540 664 q 545 624 544 638 q 543 596 546 610 q 532 565 540 582 q 524 512 524 538 q 510 458 525 486 q 505 435 508 447 q 501 411 501 422 q 490 366 501 388 q 485 321 479 344 l 489 317 q 474 255 478 285 q 460 196 471 225 q 456 156 463 178 q 447 115 450 135 q 440 78 443 99 q 429 40 436 58 q 410 4 422 21 q 376 -22 397 -12 q 347 -47 365 -40 q 311 -61 328 -53 q 269 -75 292 -67 q 229 -76 247 -83 q 204 -76 215 -79 q 182 -72 193 -74 q 160 -56 171 -65 q 135 -46 150 -46 q 113 -24 121 -39 q 99 4 106 -10 q 90 40 88 19 q 93 79 92 60 q 98 164 90 119 q 114 253 106 208 q 113 269 111 260 q 118 287 115 278 q 124 305 121 296 q 126 322 126 314 q 137 375 126 350 q 143 428 147 400 q 157 476 154 451 q 163 525 160 500 q 177 557 175 540 q 183 590 179 574 q 190 611 186 601 q 206 629 194 621 q 214 648 203 640 q 232 663 225 656 q 259 689 247 674 q 289 711 271 704 q 299 726 292 719 q 315 738 307 733 q 350 749 333 742 q 385 760 367 757 l 469 742 m 357 618 q 353 609 357 611 q 346 606 350 607 q 337 603 342 604 q 329 599 332 603 q 316 581 319 590 q 310 563 313 572 q 307 545 308 554 q 301 528 306 536 q 290 463 293 493 q 279 404 286 433 q 272 378 276 388 q 271 353 268 368 q 255 313 256 332 q 257 274 254 293 q 249 253 250 264 q 247 231 247 242 q 244 210 246 221 q 233 190 242 200 q 230 165 233 178 q 224 138 226 151 q 228 100 217 115 q 250 54 222 72 q 264 56 257 51 q 278 60 271 60 q 293 82 289 68 q 299 107 297 96 q 312 140 301 125 q 318 169 322 154 q 333 231 331 200 q 342 294 336 263 q 351 321 349 307 q 356 348 354 335 q 361 374 358 361 q 371 399 364 386 q 376 437 368 418 q 388 475 383 456 q 390 495 390 486 q 386 515 390 504 q 401 554 393 535 q 403 592 410 574 q 385 614 394 601 q 357 618 376 626 z "},"P":{"ha":444,"x_min":65,"x_max":546,"o":"m 472 758 q 492 741 486 751 q 513 726 497 731 q 527 705 521 717 q 543 683 533 693 q 544 661 546 671 q 539 640 542 651 q 531 604 536 622 q 526 564 525 586 q 518 536 519 550 q 516 509 517 522 q 513 482 515 496 q 503 456 511 468 q 497 434 506 444 q 483 414 489 424 l 457 372 q 425 351 442 361 q 390 336 408 340 q 381 333 386 329 q 368 331 375 336 q 335 330 353 335 q 301 331 317 325 q 288 325 294 333 q 274 325 282 317 q 263 292 267 308 q 258 260 258 275 q 251 231 254 244 q 244 203 247 217 q 232 138 238 169 q 219 69 226 106 q 211 20 214 46 q 203 -26 208 -6 q 207 -67 206 -46 q 224 -100 208 -89 l 222 -110 l 211 -110 q 177 -85 190 -103 q 146 -53 164 -67 q 135 -56 139 -51 q 124 -57 131 -60 q 120 -35 126 -46 q 108 -15 114 -25 q 99 -12 104 -10 q 88 -18 93 -15 q 76 -22 79 -26 q 96 102 85 44 q 118 224 107 160 q 118 249 115 236 q 125 274 121 261 q 132 299 129 286 q 132 325 135 313 q 136 339 136 331 q 139 354 136 347 q 148 379 146 367 q 151 403 150 392 q 152 426 151 415 q 158 449 153 438 q 160 472 161 460 q 165 496 160 485 q 174 525 172 511 q 174 554 175 539 q 177 571 181 563 q 181 590 174 579 q 160 596 174 599 q 136 592 146 593 q 111 581 122 593 q 88 565 100 569 q 92 580 88 572 q 103 595 97 588 q 111 610 108 603 q 110 625 114 618 q 88 631 101 636 q 65 629 75 626 q 83 656 67 647 q 110 678 100 664 q 134 691 121 686 q 156 706 147 696 q 144 713 144 703 q 138 729 144 722 q 172 742 156 743 q 208 749 189 742 q 242 749 224 751 q 275 757 260 747 q 309 753 290 756 q 346 758 328 751 q 365 755 356 754 q 383 758 374 756 q 401 761 392 760 q 421 758 410 763 q 434 763 428 764 q 447 760 440 763 q 459 756 453 757 q 472 758 465 754 m 389 606 q 361 607 375 610 q 332 603 347 604 l 314 536 q 313 517 315 526 q 309 500 311 508 q 306 483 307 492 q 307 465 304 474 q 326 465 318 471 q 346 465 333 458 q 372 473 365 464 q 382 494 379 482 q 387 522 385 507 q 397 549 389 538 q 394 572 396 560 q 397 597 392 583 l 389 606 z "},"Q":{"ha":472,"x_min":97,"x_max":567,"o":"m 458 815 q 484 803 469 807 q 512 794 499 799 q 535 780 525 789 q 547 754 544 771 q 551 678 567 721 q 543 581 553 631 q 524 510 538 549 q 517 475 522 492 q 510 443 513 458 q 507 403 506 421 q 492 342 500 371 q 478 285 485 314 q 469 239 472 261 q 464 193 467 217 q 455 166 457 179 q 450 138 453 153 q 442 115 447 126 q 428 92 438 103 q 422 68 424 81 q 406 46 419 56 q 392 40 399 43 q 382 29 385 36 q 389 14 383 19 q 401 3 394 8 q 413 -8 407 -3 q 424 -21 419 -12 q 451 -28 438 -28 q 478 -33 464 -29 q 498 -32 489 -31 q 519 -29 507 -33 l 522 -33 q 506 -47 515 -44 q 490 -58 497 -49 q 461 -65 475 -61 q 433 -79 447 -68 q 417 -81 425 -78 q 403 -81 410 -85 q 390 -87 396 -83 q 382 -99 385 -92 q 387 -115 385 -106 q 399 -122 389 -124 q 393 -131 400 -128 q 381 -137 386 -135 q 306 -111 342 -129 q 257 -56 269 -93 q 147 -4 218 -1 q 131 11 142 8 q 111 25 119 14 q 100 92 103 57 q 104 163 97 128 q 101 180 100 171 q 104 198 101 189 q 110 217 107 207 q 113 236 113 226 q 117 281 111 258 q 128 328 122 304 q 131 349 131 339 q 133 369 132 358 q 140 393 136 381 q 146 417 143 406 q 158 482 153 449 q 169 547 163 515 q 185 583 178 565 q 194 619 192 601 q 199 641 197 631 q 200 663 200 651 q 206 680 200 672 q 218 694 211 688 q 231 710 225 701 q 238 729 236 718 q 259 741 247 738 q 272 760 271 744 q 314 785 293 772 q 356 813 335 799 q 369 808 361 800 q 389 818 378 817 q 408 819 399 819 q 424 816 417 818 q 440 813 432 814 q 458 815 449 813 m 385 686 q 369 681 378 683 q 358 674 361 679 q 331 629 339 653 q 317 581 322 606 q 311 549 314 565 q 306 518 308 533 q 289 467 300 493 l 292 457 l 265 368 q 264 331 272 349 q 256 293 256 313 q 254 272 257 283 q 248 250 251 261 q 243 227 244 239 q 244 206 242 215 q 240 192 239 197 q 242 181 240 186 q 246 169 244 175 q 244 156 247 164 q 247 135 247 146 q 260 122 246 124 q 271 123 265 124 q 281 122 276 122 q 291 122 286 121 q 303 128 296 122 q 318 150 313 138 q 322 174 324 163 q 339 216 336 197 q 350 257 342 235 l 346 269 q 360 340 358 307 q 371 408 363 374 q 386 440 383 425 q 389 472 389 456 q 390 503 389 488 q 400 536 392 519 q 405 572 400 554 q 414 608 410 590 q 417 650 418 631 q 404 686 417 669 q 385 686 393 678 z "},"R":{"ha":465,"x_min":56,"x_max":564,"o":"m 493 771 q 512 765 503 768 q 531 760 521 763 q 551 727 546 744 q 564 690 556 710 q 551 622 561 658 q 529 554 540 586 q 537 533 539 544 q 539 510 535 521 q 525 469 531 490 q 503 432 519 447 q 456 369 492 396 q 386 332 421 343 q 393 311 392 322 q 400 290 394 300 q 399 271 396 279 q 406 253 401 263 q 412 235 410 244 q 408 217 414 226 q 419 196 414 206 q 419 172 425 186 q 443 128 433 151 q 461 80 453 104 q 479 33 469 56 q 506 -10 489 10 q 512 -28 507 -21 q 523 -43 517 -36 q 534 -57 529 -50 q 542 -72 539 -64 q 534 -76 538 -78 q 528 -72 531 -74 q 519 -65 525 -68 q 508 -58 513 -62 q 488 -47 500 -47 q 467 -39 475 -47 q 458 -41 461 -37 q 451 -49 454 -44 q 444 -54 447 -53 q 438 -51 442 -56 q 386 -10 421 -21 q 378 -10 382 -8 q 372 -16 375 -12 q 365 -21 368 -19 q 360 -19 363 -22 l 354 -6 q 342 -6 350 -7 q 339 1 335 -6 q 347 10 347 6 q 344 17 347 14 q 338 25 342 21 q 336 35 335 29 q 296 130 317 79 q 263 229 275 181 q 256 238 258 233 q 249 247 253 243 l 244 236 q 237 193 242 215 q 226 147 232 171 q 222 115 224 131 q 222 85 219 100 q 214 2 214 44 q 229 -76 214 -40 q 226 -83 229 -81 q 221 -83 224 -86 q 208 -72 213 -79 q 201 -56 204 -64 q 192 -40 197 -47 q 176 -29 186 -33 q 163 -26 172 -28 q 151 -36 154 -25 q 151 -42 154 -39 q 144 -46 147 -44 q 128 -9 135 -31 q 108 29 121 13 q 92 17 99 26 q 74 11 85 8 q 81 56 81 35 q 89 97 82 76 q 104 186 96 144 q 121 272 113 228 q 125 310 118 290 q 139 350 132 331 q 138 381 135 365 q 146 411 140 396 q 156 442 151 426 q 160 472 161 457 q 165 511 157 492 q 169 550 174 531 q 176 578 179 565 q 181 608 174 592 q 149 616 165 617 q 115 617 132 615 q 97 613 108 607 q 107 626 100 621 q 115 640 114 631 q 110 648 113 642 q 111 657 108 654 q 109 664 113 664 q 101 663 106 664 q 93 662 97 663 q 89 667 89 661 q 81 670 85 671 q 72 667 76 669 q 63 663 67 664 q 56 667 58 663 q 76 689 64 681 q 103 705 89 697 q 133 720 118 713 q 160 740 147 728 q 163 740 163 739 q 165 743 163 742 q 160 751 164 749 q 151 755 156 753 q 145 760 147 757 q 146 769 143 763 q 174 776 163 778 q 201 782 186 775 q 228 778 215 778 q 257 781 242 778 q 284 781 269 782 q 314 781 299 781 q 358 785 335 781 q 396 779 374 779 q 421 780 408 779 q 446 781 433 781 q 471 779 458 781 q 493 771 483 778 m 353 636 q 335 622 342 632 q 326 603 329 611 q 313 546 324 571 q 306 490 303 521 q 307 476 303 479 q 318 472 311 472 q 332 472 325 472 q 343 468 339 472 q 355 476 347 472 q 369 483 363 479 q 381 493 376 488 q 383 507 385 499 q 397 565 394 536 q 407 624 400 594 q 385 642 403 638 q 353 636 368 646 z "},"S":{"ha":399,"x_min":50,"x_max":503,"o":"m 443 782 q 486 735 476 765 q 503 672 496 704 q 491 613 496 646 q 479 553 486 581 q 476 519 478 536 q 474 487 474 503 q 477 456 474 471 q 490 431 481 442 q 492 426 494 431 q 486 418 490 421 q 463 437 471 424 q 449 463 456 450 q 435 488 443 476 q 414 501 428 499 q 403 497 408 494 q 397 522 400 510 q 385 543 394 533 q 377 534 382 536 q 367 531 372 532 q 359 526 363 529 q 356 514 356 522 q 347 515 349 508 q 346 525 344 521 q 349 571 351 547 q 361 618 347 594 q 351 640 353 631 q 339 650 350 651 q 319 647 328 649 q 294 623 301 639 q 286 589 288 607 q 279 533 283 563 q 283 478 275 504 q 307 456 297 468 q 325 430 317 443 q 343 404 333 417 q 368 383 353 392 q 374 363 368 371 q 387 349 381 356 q 399 334 393 342 q 406 314 406 326 q 418 260 414 289 q 411 201 422 231 q 414 174 417 188 q 406 147 411 160 q 394 119 401 133 q 385 92 388 106 l 343 29 q 328 19 335 25 q 317 6 322 13 q 306 -6 313 0 q 290 -11 300 -11 q 258 -27 276 -28 q 226 -29 240 -26 q 206 -44 218 -36 q 189 -39 194 -51 q 174 -27 183 -29 q 156 -24 165 -25 q 136 -22 146 -24 q 121 -11 126 -19 q 114 -1 119 -4 q 102 3 108 1 q 90 8 96 6 q 82 18 85 11 q 63 42 67 24 q 50 71 60 60 q 56 128 57 97 q 65 183 56 158 l 63 185 q 67 255 74 221 q 57 325 61 289 q 60 336 61 331 q 58 347 60 342 q 57 356 57 351 q 64 364 57 360 q 81 334 71 349 q 94 304 90 319 l 97 304 q 103 266 97 285 q 125 236 110 247 q 136 238 132 231 q 147 242 140 246 q 154 219 156 232 q 165 201 153 206 q 174 203 171 200 q 179 209 176 206 q 185 215 182 213 q 193 214 189 217 q 192 192 194 203 q 190 169 190 181 q 190 149 189 158 q 199 131 190 139 q 208 132 206 136 q 215 132 210 128 q 238 134 226 135 q 261 147 250 133 l 268 160 q 270 185 268 172 q 272 208 272 197 q 269 230 272 219 q 256 247 265 240 q 255 263 260 258 q 244 271 250 268 q 233 278 238 274 q 232 294 228 283 q 222 310 231 304 q 208 324 213 315 q 193 331 196 324 q 182 343 190 339 l 151 371 q 149 393 153 383 q 138 412 144 403 q 127 430 132 421 q 122 450 122 439 q 126 508 133 479 q 135 542 132 525 q 136 576 138 558 q 148 609 139 593 q 151 642 157 625 q 175 687 167 665 q 207 726 183 708 q 229 753 215 740 q 258 774 243 767 q 286 777 272 778 q 311 792 300 776 q 338 792 324 789 q 367 797 353 794 q 400 796 382 797 q 429 783 418 794 l 443 782 z "},"T":{"ha":324,"x_min":68,"x_max":543,"o":"m 519 736 q 529 735 525 736 q 538 738 533 735 l 543 732 q 516 715 531 721 q 487 702 501 708 q 459 688 472 696 q 436 665 446 679 q 438 658 435 660 q 444 657 440 657 q 450 655 447 657 q 451 647 453 653 q 433 638 444 643 q 428 622 422 633 q 436 616 431 618 q 446 610 442 614 q 429 603 438 604 q 413 604 421 603 q 397 606 406 606 q 381 606 389 607 l 365 603 q 347 557 358 579 q 342 510 335 535 q 337 481 339 494 q 332 453 335 468 q 319 400 325 426 q 307 346 313 374 q 300 283 307 318 q 291 245 296 264 q 283 207 286 226 q 269 114 276 161 q 256 21 261 67 q 257 -25 251 -3 q 267 -71 263 -47 q 276 -93 274 -82 q 288 -112 278 -104 q 270 -117 278 -124 q 256 -107 263 -111 q 239 -86 244 -97 q 228 -62 233 -75 q 219 -38 224 -50 q 204 -17 214 -26 q 194 -20 197 -17 q 190 -28 192 -24 q 185 -35 188 -32 q 176 -37 182 -39 q 169 -3 175 -19 q 153 31 163 14 q 145 28 149 33 q 139 21 142 24 q 136 13 140 17 q 126 11 132 8 l 124 15 q 131 67 126 42 q 143 121 136 93 q 155 175 150 149 q 163 228 160 201 q 176 292 172 261 q 184 356 181 324 q 192 422 188 389 q 207 490 197 454 q 209 510 200 500 q 218 529 218 519 l 225 603 q 209 602 218 606 q 192 601 200 599 q 156 601 172 599 q 122 592 139 603 q 117 594 118 592 q 114 597 117 596 l 71 589 q 69 593 68 590 q 71 597 69 596 q 110 616 90 604 q 146 642 131 628 q 146 653 151 647 q 133 660 139 654 q 121 663 128 665 l 118 668 q 131 674 124 676 q 146 678 139 672 q 166 692 153 685 q 178 713 179 700 q 172 717 176 717 q 165 719 168 718 q 159 722 161 721 q 161 731 157 724 q 199 733 181 733 q 232 738 217 732 q 278 737 256 738 q 325 739 301 736 q 388 732 356 736 q 454 735 419 728 q 513 742 481 733 l 519 736 z "},"U":{"ha":475,"x_min":85,"x_max":550,"o":"m 263 735 q 272 708 264 719 q 283 682 281 697 q 289 690 288 685 q 292 701 290 696 q 296 708 293 706 q 306 708 299 710 l 317 668 q 324 663 324 668 q 326 656 324 658 q 324 646 321 651 q 324 635 326 640 q 305 546 308 590 q 290 456 301 501 q 276 385 285 422 q 260 313 267 349 q 249 258 257 285 q 239 204 242 231 q 228 174 235 189 q 229 143 222 158 q 226 118 226 129 q 232 96 225 107 q 245 88 239 93 q 258 80 251 83 q 271 76 264 76 q 288 85 278 76 q 303 111 300 97 q 309 139 307 125 q 314 167 311 153 q 328 194 317 181 q 334 214 333 204 q 335 233 335 224 q 338 253 336 243 q 346 275 339 264 q 349 295 346 286 q 346 313 353 304 q 353 342 354 328 q 365 369 351 356 q 371 412 367 390 q 379 457 375 433 q 385 484 382 471 q 390 511 388 497 l 396 521 q 401 556 397 539 q 411 588 404 572 q 415 617 411 603 q 421 647 418 632 q 425 673 424 660 q 422 699 426 686 q 421 741 425 719 q 404 778 417 763 q 408 783 407 781 q 411 783 408 786 q 444 763 432 778 q 472 738 457 749 q 476 748 476 743 q 483 756 476 753 q 505 730 496 744 q 521 700 514 715 q 531 710 525 703 q 543 719 536 717 q 548 708 549 717 q 550 697 547 700 q 542 645 547 672 q 539 594 536 618 q 526 531 528 560 q 513 467 524 503 q 499 403 506 435 q 485 339 492 371 q 478 301 482 319 q 472 264 475 283 q 465 224 464 244 q 461 185 465 204 q 449 162 451 174 q 445 138 446 150 q 444 113 444 125 q 438 88 443 100 q 420 44 435 64 q 394 1 406 24 q 375 -14 383 -6 q 359 -31 367 -22 q 343 -48 351 -40 q 322 -60 335 -56 q 289 -73 307 -68 q 256 -71 271 -78 q 221 -82 238 -82 q 190 -76 204 -82 q 162 -62 175 -71 q 136 -46 149 -53 q 111 -32 118 -43 q 101 -7 104 -21 q 95 22 97 7 q 85 49 93 38 q 99 144 92 97 q 115 235 106 190 q 123 272 117 254 q 129 306 129 289 l 142 393 q 150 442 151 419 q 163 492 149 464 q 167 513 165 503 q 175 535 168 524 q 180 590 181 563 q 189 649 179 618 q 189 657 185 653 q 190 665 193 661 q 192 676 193 671 q 188 685 190 681 q 185 695 186 690 q 190 706 185 700 q 205 702 197 703 q 219 697 213 701 l 225 703 q 225 738 224 719 q 219 771 226 756 q 219 780 222 775 q 219 789 217 785 q 239 783 233 790 q 247 767 244 776 q 253 749 250 758 q 263 735 256 739 z "},"V":{"ha":418,"x_min":110,"x_max":592,"o":"m 517 803 q 542 776 542 803 q 546 771 546 775 q 551 771 546 767 q 569 787 565 776 q 586 800 574 797 q 590 792 592 796 q 585 782 589 788 q 578 771 582 776 q 578 760 575 765 q 558 694 569 725 q 528 632 547 664 q 519 593 533 613 q 496 556 506 574 q 490 527 489 540 q 481 500 490 514 q 463 472 469 486 q 453 444 457 458 q 445 414 449 429 q 436 383 442 399 q 380 217 413 297 q 322 49 347 136 q 320 -8 319 21 q 336 -61 321 -37 q 329 -65 333 -65 q 324 -62 325 -65 q 311 -62 319 -60 q 300 -58 303 -65 q 281 -29 294 -43 q 254 -6 268 -15 q 249 -15 250 -8 q 247 -26 249 -21 q 244 -34 246 -31 q 233 -35 242 -37 q 217 10 225 -11 q 199 53 210 31 q 179 35 188 47 q 160 22 171 24 q 158 105 163 63 q 161 190 154 147 q 161 269 160 231 q 154 349 163 308 q 158 427 158 388 q 156 506 157 467 q 154 584 154 544 q 158 664 154 624 q 154 694 154 679 q 161 726 154 708 q 152 747 153 735 q 152 773 151 760 q 151 799 153 786 q 142 821 150 811 q 135 835 140 828 q 128 847 131 842 q 124 849 128 850 q 116 849 119 849 q 111 851 113 849 q 113 860 110 853 q 122 865 119 867 q 132 861 125 863 q 181 838 160 854 q 221 800 201 822 l 246 800 q 253 790 251 796 q 256 776 256 783 q 258 763 257 769 q 265 753 260 757 q 280 776 271 765 q 292 799 289 786 q 291 718 293 761 q 296 635 289 675 q 296 557 299 596 q 299 481 293 518 q 292 456 292 468 q 295 431 293 443 q 299 408 297 419 q 296 382 300 396 l 299 379 q 310 399 307 388 q 317 421 314 410 q 324 444 321 432 q 335 464 328 456 q 354 528 351 496 q 376 565 365 544 q 385 606 386 586 q 394 624 388 615 q 407 642 401 633 q 415 661 413 651 q 414 682 418 671 q 437 744 429 715 q 451 808 444 774 q 453 840 454 824 q 443 869 453 857 q 451 879 442 876 q 468 860 463 872 q 480 837 474 849 q 494 815 486 825 q 517 803 501 806 z "},"W":{"ha":679,"x_min":115,"x_max":826,"o":"m 165 767 q 177 750 169 757 q 192 736 185 743 q 206 722 200 729 q 213 701 213 714 q 219 706 218 703 q 219 713 219 710 q 220 720 219 717 q 228 725 221 724 q 247 717 244 731 q 256 696 250 704 q 269 640 261 668 q 268 598 264 618 q 261 558 272 578 q 265 539 265 549 q 264 520 265 529 q 263 501 263 511 q 265 482 263 492 q 260 422 257 450 q 263 363 263 394 q 302 432 285 397 q 338 504 319 467 q 347 541 340 525 q 368 574 354 557 q 384 608 374 592 q 393 642 394 624 q 398 653 399 647 q 397 666 397 660 q 397 677 396 672 q 410 683 399 682 q 426 679 415 679 q 438 716 438 697 q 435 751 439 735 q 431 761 435 758 q 429 771 426 764 q 440 773 436 778 q 450 765 444 768 q 485 729 474 754 l 486 731 q 510 705 497 718 q 529 674 522 692 q 535 690 538 681 q 544 704 533 700 q 555 678 550 690 q 556 650 560 667 q 556 625 560 639 q 554 600 551 611 q 560 569 560 585 q 560 537 561 553 q 558 504 558 521 q 561 472 557 488 q 556 450 556 461 q 560 428 557 439 q 564 406 563 417 q 563 385 565 394 l 567 358 q 594 417 586 386 q 617 481 601 449 q 639 534 631 504 q 665 589 647 564 q 674 622 668 604 q 685 657 681 639 q 688 679 688 668 q 685 700 688 690 q 686 735 692 719 q 667 763 681 751 q 669 767 669 765 q 672 771 669 769 q 703 751 690 764 q 729 726 717 739 q 744 747 740 733 q 750 771 747 760 q 756 774 753 772 q 761 775 758 776 q 783 730 769 751 q 800 682 797 708 q 807 688 804 683 q 813 696 810 692 q 819 701 817 700 q 826 699 822 703 q 806 617 824 657 q 778 535 789 578 q 748 468 763 500 q 731 400 733 436 q 713 350 728 372 q 694 301 697 328 q 665 233 675 267 q 642 160 656 199 q 616 95 631 128 q 590 26 601 63 q 588 3 592 15 q 580 -22 585 -10 q 572 -47 575 -35 q 575 -68 569 -58 q 572 -87 578 -78 q 571 -106 565 -97 q 574 -119 581 -111 q 575 -126 572 -124 q 581 -131 578 -129 q 583 -135 583 -133 q 578 -140 583 -137 q 553 -127 568 -131 q 528 -111 539 -124 q 515 -93 518 -106 q 497 -81 513 -81 q 489 -61 490 -71 q 474 -49 488 -51 q 463 -63 468 -54 q 449 -71 457 -72 q 440 15 446 -31 q 438 104 435 61 q 432 132 435 119 q 422 156 429 144 q 428 184 429 171 q 426 210 428 197 q 422 236 424 224 q 425 264 421 249 q 419 301 426 283 q 415 339 413 318 q 406 323 408 332 q 400 304 403 314 q 394 285 397 294 q 383 267 390 275 q 358 217 374 240 q 329 169 343 194 q 328 144 333 157 q 317 117 324 131 q 303 90 310 103 q 294 65 296 78 q 285 33 292 49 q 273 3 279 18 q 262 -26 267 -11 q 260 -60 257 -42 q 263 -87 263 -72 q 269 -115 263 -103 q 265 -121 269 -117 q 248 -107 254 -117 q 237 -87 242 -97 q 226 -67 232 -76 q 207 -53 219 -57 q 194 -70 200 -60 q 181 -82 189 -81 q 163 -53 171 -68 q 150 -19 154 -37 q 138 -31 143 -22 q 125 -35 132 -40 q 122 -7 121 -21 q 123 21 122 7 q 123 49 124 35 q 117 75 122 63 q 122 115 121 96 q 122 151 122 133 q 121 188 121 169 q 125 225 121 206 q 120 263 125 244 q 125 301 115 281 q 128 319 131 310 q 124 337 126 328 q 122 355 122 346 q 129 372 121 364 q 130 391 135 383 q 125 407 125 399 q 126 480 126 443 q 129 553 126 517 q 135 651 138 603 q 132 749 132 700 q 129 756 125 751 q 129 763 133 760 q 126 770 129 767 q 121 778 124 774 q 126 785 122 785 q 133 783 131 785 q 148 773 138 774 q 165 767 158 772 z "},"X":{"ha":481,"x_min":65,"x_max":592,"o":"m 543 803 l 542 781 q 565 792 553 781 q 586 810 578 803 q 590 793 592 803 q 583 774 589 783 q 579 749 585 761 q 565 724 574 736 q 549 701 557 713 q 539 675 540 689 l 533 671 q 517 633 522 653 q 490 597 511 613 q 463 540 481 568 q 429 481 444 511 q 428 454 425 467 q 433 428 431 442 q 438 401 436 415 q 433 372 439 388 q 449 267 439 319 q 468 165 458 215 q 476 149 475 158 q 478 128 478 139 q 480 110 478 118 q 493 96 482 101 q 507 62 494 75 q 532 33 519 49 q 522 26 526 28 q 494 35 507 29 q 465 47 481 42 q 465 29 464 36 q 468 11 465 22 q 451 10 460 4 q 433 19 443 17 q 413 32 421 22 q 397 53 404 42 q 383 74 390 64 q 365 90 375 85 l 361 63 q 348 61 350 53 q 340 72 346 69 q 339 90 338 79 q 333 108 340 101 q 332 119 336 115 q 335 128 328 122 q 332 141 336 135 q 325 151 328 147 q 319 207 324 181 q 308 261 314 233 l 275 217 q 267 199 274 206 q 257 181 261 192 q 231 135 239 158 q 211 88 222 111 q 210 72 213 79 q 206 57 208 64 q 202 42 203 50 q 206 29 201 35 q 185 33 193 22 q 175 48 182 43 q 160 58 168 53 q 136 34 149 49 q 128 3 124 19 q 124 -13 125 -4 q 117 -29 124 -22 l 110 -26 q 108 -3 111 -14 q 101 20 104 8 q 97 43 97 32 q 103 67 96 54 l 101 115 q 83 105 93 113 q 65 101 74 97 q 70 115 67 110 q 71 126 74 121 q 97 160 89 143 q 113 197 104 178 q 136 235 128 215 q 156 274 144 254 q 184 317 171 294 q 207 363 197 339 q 233 407 217 383 q 256 454 249 431 q 262 487 267 469 q 257 522 257 504 q 254 547 260 536 q 244 571 249 558 q 244 599 247 585 q 238 626 242 613 q 231 652 233 639 q 231 681 228 665 q 226 713 226 696 q 221 746 225 729 l 224 749 q 208 759 218 757 q 192 765 199 761 q 206 776 196 774 q 225 782 217 779 l 239 782 q 235 809 246 797 q 219 833 225 821 q 205 847 214 842 q 192 860 196 853 q 195 865 192 864 q 201 867 199 865 q 268 844 238 860 q 324 810 299 829 q 333 823 331 815 q 346 828 336 831 q 360 777 353 801 q 371 725 367 753 q 381 700 379 714 q 385 672 382 686 q 400 690 396 679 q 415 710 404 701 q 437 754 422 732 q 466 798 451 776 q 490 842 481 819 q 496 888 499 864 l 500 893 q 521 877 514 888 q 531 854 528 867 q 537 828 535 842 q 543 803 539 814 z "},"Y":{"ha":357,"x_min":99,"x_max":522,"o":"m 224 744 l 229 749 q 233 759 226 756 q 238 769 239 763 q 254 761 251 779 q 259 742 256 751 q 267 725 263 733 q 273 708 271 717 q 272 689 275 699 q 280 623 269 654 q 299 560 290 592 q 324 605 311 583 q 350 649 336 626 q 358 672 350 660 q 372 694 365 683 q 381 717 379 706 q 372 738 382 728 q 375 743 372 740 q 381 746 378 746 q 391 741 386 746 q 401 732 396 736 q 411 728 406 728 q 424 736 417 728 q 426 742 422 740 q 433 746 429 743 q 450 774 446 757 q 454 804 454 790 q 464 807 456 807 q 478 757 475 783 q 483 704 481 731 q 504 714 493 707 q 522 718 515 721 q 519 706 519 713 q 513 692 518 699 q 481 630 496 657 q 446 571 467 603 q 439 551 449 560 q 421 533 429 542 q 381 461 406 494 q 340 388 357 428 q 326 333 333 360 q 313 281 319 307 q 307 243 310 261 q 303 207 304 225 q 299 188 300 197 q 294 167 297 178 q 288 141 292 154 q 278 117 285 128 q 273 44 283 83 q 264 -28 263 6 q 265 -73 261 -51 q 265 -118 268 -94 q 259 -118 261 -121 q 256 -112 257 -115 q 251 -106 254 -108 q 244 -103 249 -103 q 226 -67 238 -83 q 203 -32 214 -50 q 195 -51 199 -42 q 185 -68 192 -61 l 182 -68 l 153 8 q 145 0 149 6 q 138 -11 142 -6 q 131 -19 135 -17 q 119 -18 126 -22 q 118 -10 117 -14 q 119 -1 119 -6 q 134 52 124 25 q 139 104 144 79 q 161 216 150 163 q 182 329 172 269 q 165 428 172 381 q 150 528 158 475 q 153 583 158 557 q 144 638 147 610 q 132 653 142 647 q 126 671 122 660 q 115 688 122 682 q 99 700 108 693 l 99 708 q 128 711 114 711 q 154 718 142 711 q 151 765 161 744 q 118 796 140 786 q 122 807 117 801 q 175 792 151 806 q 215 760 199 779 q 219 752 215 754 q 224 744 222 750 z "},"Z":{"ha":469,"x_min":79,"x_max":589,"o":"m 486 811 q 533 810 511 807 q 581 817 556 813 q 583 805 589 813 q 576 793 576 797 l 576 758 q 563 738 565 749 q 560 715 561 726 q 556 692 558 703 q 544 672 554 682 q 512 639 531 653 q 489 603 493 625 q 481 588 481 597 q 471 576 482 579 q 427 500 451 538 q 376 426 403 463 q 367 396 378 410 q 344 368 357 382 q 322 340 332 354 q 315 310 313 326 q 287 256 301 282 q 260 203 272 229 q 290 199 275 201 q 321 201 306 196 q 344 195 332 196 q 367 197 356 194 q 430 202 396 200 q 492 201 464 204 q 481 188 490 193 q 464 178 471 182 q 460 172 461 175 q 454 167 458 169 q 426 149 440 161 q 400 125 411 138 q 408 111 397 114 q 425 101 418 108 q 418 92 426 94 q 404 86 410 90 l 404 71 q 378 68 389 65 q 351 68 367 71 q 224 64 289 63 q 96 57 158 65 q 90 53 92 53 q 83 54 88 54 l 79 78 q 90 90 88 83 q 90 104 92 97 q 87 118 89 111 q 86 132 85 125 q 97 154 96 143 q 104 181 99 165 l 101 188 q 115 208 106 199 q 132 226 124 217 q 147 246 140 236 q 153 267 153 256 q 191 334 178 297 q 224 403 204 371 q 245 419 238 408 q 258 443 253 431 q 267 468 263 456 q 279 490 271 481 q 301 524 292 506 q 318 557 311 542 q 357 614 346 585 q 386 675 368 643 q 374 678 382 681 q 361 678 367 675 q 315 676 338 678 q 268 672 292 675 q 244 665 256 672 q 221 661 232 658 q 192 644 208 653 q 165 625 176 636 l 157 625 q 178 668 168 647 q 207 708 188 689 q 204 713 207 713 q 199 714 201 714 q 193 715 196 714 q 190 721 190 717 q 179 719 185 724 q 169 718 174 715 q 184 740 171 732 q 208 757 197 747 q 233 772 221 764 q 256 783 244 779 q 248 793 253 790 q 247 807 243 796 q 253 810 250 814 q 260 807 257 807 q 286 817 274 815 q 310 817 299 818 q 335 815 322 815 q 360 818 347 814 q 423 813 392 817 q 486 811 454 808 z "},"\"":{"ha":469,"x_min":189,"x_max":553,"o":"m 332 625 q 317 550 325 588 q 313 475 310 513 l 308 468 q 302 469 304 467 q 298 475 300 472 q 292 480 296 478 q 283 481 289 482 q 282 489 281 483 q 282 497 283 494 q 276 514 279 504 q 261 522 272 524 q 247 525 251 521 q 240 536 242 529 q 237 551 238 543 q 232 564 236 558 q 216 547 225 558 q 196 538 207 535 q 195 547 189 542 q 197 558 201 553 q 201 593 203 576 q 213 629 200 610 q 213 649 207 638 q 215 668 219 660 l 232 750 q 226 763 222 754 q 232 778 229 771 q 240 813 235 796 q 232 844 244 831 q 242 853 235 856 q 253 847 250 850 q 265 826 263 840 q 275 800 267 811 q 276 794 275 797 q 279 792 276 792 q 281 784 279 788 q 285 776 282 781 q 293 788 290 781 q 299 802 296 796 q 306 812 301 808 q 319 811 311 815 q 326 782 325 797 q 335 754 326 767 q 338 759 339 756 q 343 763 338 763 q 351 740 350 751 q 349 715 351 728 q 343 693 346 704 q 342 671 340 682 q 338 649 339 661 q 332 625 338 636 m 501 497 q 498 483 496 490 q 493 471 500 476 q 478 476 483 471 q 472 488 474 481 q 470 504 471 496 q 468 519 469 513 q 465 529 465 524 q 460 538 465 535 q 444 530 451 529 q 433 518 438 531 q 412 516 422 519 q 393 522 401 513 q 391 568 386 542 q 399 618 396 594 q 403 631 403 624 q 403 645 403 638 q 404 660 403 653 q 413 674 406 667 q 422 724 415 697 q 426 774 428 750 q 428 806 429 789 q 431 839 428 824 q 443 842 435 842 q 453 828 450 836 q 457 813 456 821 q 460 797 458 804 q 467 783 461 789 q 474 769 465 772 q 485 758 482 765 q 492 768 489 761 q 499 782 496 775 q 506 792 501 789 q 518 790 511 796 q 522 780 522 785 q 522 769 522 775 q 521 759 521 764 q 524 750 521 754 q 531 757 529 751 q 533 768 532 763 q 536 776 533 774 q 547 775 539 779 q 552 767 553 772 q 549 757 551 763 q 545 745 547 751 q 543 735 543 739 q 537 678 544 706 q 528 624 529 650 l 531 615 q 518 569 524 593 q 504 525 513 546 q 502 511 510 518 q 501 497 494 504 z "},"a":{"ha":450,"x_min":75,"x_max":500,"o":"m 404 501 q 426 502 415 504 q 445 498 436 500 q 465 496 454 496 q 486 501 475 496 q 493 502 490 503 q 500 503 496 501 q 494 465 499 485 q 483 426 489 446 q 477 402 471 413 q 483 379 483 392 q 461 321 468 354 q 457 299 458 310 q 454 275 456 288 q 450 260 453 268 q 445 244 447 253 q 444 229 443 236 q 451 218 444 222 q 447 197 454 207 q 436 174 439 186 q 435 153 438 164 q 428 132 432 143 q 423 111 425 121 q 425 93 421 101 q 417 57 419 74 q 419 22 414 40 q 418 6 414 15 q 421 -12 422 -3 q 426 -29 426 -19 q 436 -42 426 -39 q 441 -51 439 -44 q 436 -61 443 -58 q 429 -57 431 -62 q 422 -51 428 -51 q 387 -33 403 -44 q 350 -17 371 -21 q 340 -1 346 -8 q 326 10 335 7 q 315 5 319 10 q 305 -4 310 0 q 297 -10 300 -8 q 289 -4 293 -11 q 292 1 292 -1 q 293 7 292 4 q 285 17 281 7 q 288 33 289 26 l 294 74 q 267 61 279 74 q 239 50 254 49 q 228 43 236 43 q 215 38 221 43 q 172 18 196 21 q 128 4 147 15 q 97 26 110 11 q 78 63 83 42 q 75 125 82 93 q 89 184 86 154 q 99 246 92 214 q 105 271 101 258 q 115 296 108 283 q 115 306 117 301 q 112 315 114 311 q 110 324 110 319 q 114 335 110 328 q 126 358 124 346 q 131 383 129 371 q 137 406 132 394 q 157 426 142 417 l 218 479 q 263 487 242 479 q 307 506 285 494 q 355 503 331 506 q 404 501 379 501 m 300 368 q 292 373 297 375 q 285 367 288 371 q 278 353 283 360 q 269 339 274 346 q 261 325 264 332 q 261 310 258 318 q 246 272 251 294 q 243 232 240 250 q 237 198 232 214 q 246 167 242 182 q 257 162 251 160 q 269 169 263 164 q 282 177 275 174 q 296 178 289 181 q 308 202 304 189 q 313 228 311 215 q 318 255 315 242 q 328 281 321 268 q 327 305 325 293 q 333 328 329 317 q 339 353 336 340 q 342 379 342 365 q 320 377 331 385 q 300 368 310 369 z "},"b":{"ha":436,"x_min":78,"x_max":474,"o":"m 279 778 q 294 788 285 793 q 322 756 315 775 q 327 715 328 736 q 322 669 326 693 q 318 625 318 646 q 310 608 311 617 q 308 590 308 599 q 306 572 307 581 q 300 554 306 563 q 299 545 301 550 q 294 535 297 540 q 290 524 292 529 q 290 514 288 519 q 313 519 301 517 q 332 531 324 521 q 354 533 343 535 q 374 525 365 531 q 400 531 388 532 q 424 526 413 531 q 445 517 435 522 q 467 510 456 513 q 469 485 469 499 q 471 457 469 471 q 467 421 474 442 q 463 382 461 400 q 457 351 460 367 q 449 321 454 336 q 450 293 453 307 q 440 265 447 279 q 440 228 447 247 q 425 190 432 208 q 425 143 431 168 q 408 99 421 121 q 378 61 396 78 q 367 49 376 51 q 354 38 358 46 q 326 26 342 35 q 297 22 310 18 q 276 14 286 14 q 255 15 265 14 q 234 17 244 17 q 213 14 224 18 q 205 -12 207 0 q 206 -39 203 -25 q 169 -39 186 -42 q 146 -19 151 -36 q 127 -6 139 -11 q 113 13 115 -1 q 106 9 108 13 q 102 2 104 6 q 97 -3 100 -1 q 90 -1 94 -4 q 89 7 88 1 q 83 14 90 13 q 83 47 79 29 q 78 79 86 65 q 93 140 92 110 q 107 197 94 171 q 99 212 101 204 q 103 229 96 219 l 113 243 q 126 335 119 288 q 144 428 133 383 q 152 452 150 440 q 156 476 154 464 q 160 499 157 488 q 171 522 163 511 q 174 564 169 544 q 182 603 178 583 q 188 635 185 618 q 190 671 190 651 l 183 701 q 196 713 186 711 q 196 740 200 726 q 182 761 192 754 q 165 771 175 768 q 151 781 156 774 l 156 786 q 177 792 167 790 q 199 793 188 793 q 221 792 210 793 q 243 790 232 792 q 262 787 251 789 q 279 778 272 785 m 331 414 q 310 419 321 425 q 288 413 299 413 q 276 403 276 411 q 268 392 275 396 q 261 369 264 381 q 256 346 258 357 q 245 282 249 314 q 235 221 242 250 q 224 179 225 199 q 221 139 224 160 q 228 126 222 129 q 242 124 235 124 q 258 125 250 124 q 274 125 267 126 q 288 148 286 133 q 292 174 289 163 q 303 220 296 197 q 311 264 310 243 q 320 282 318 272 q 323 301 322 292 q 325 321 324 311 q 332 340 326 331 q 328 363 329 351 q 333 386 326 375 l 331 414 z "},"c":{"ha":447,"x_min":74,"x_max":486,"o":"m 424 528 q 433 522 432 529 q 440 513 433 514 q 449 506 446 511 q 455 497 453 501 q 460 488 457 492 q 472 485 464 485 q 484 471 482 478 q 486 455 486 464 q 484 436 486 446 q 483 417 482 426 q 480 391 481 403 q 469 367 479 379 q 458 354 465 356 q 445 353 451 353 q 433 352 439 354 q 424 339 428 350 q 418 330 422 332 q 410 321 414 328 q 397 315 401 321 q 388 303 392 310 q 378 292 383 297 q 365 286 374 286 q 358 277 363 279 q 349 273 354 275 q 340 268 344 271 q 336 257 336 265 q 324 256 328 249 q 328 294 325 275 q 325 332 331 314 q 339 360 336 347 q 339 388 342 372 q 329 393 333 389 q 322 401 325 397 q 313 406 318 404 q 300 403 308 407 q 287 383 293 393 q 269 367 281 374 q 258 336 260 351 q 244 306 257 321 q 240 257 249 282 q 232 207 231 232 q 226 184 229 194 q 215 163 224 174 q 222 135 217 149 q 213 108 226 122 q 222 99 217 104 q 233 92 226 93 q 250 92 242 96 q 268 97 258 88 q 277 105 275 100 q 281 115 279 110 q 283 124 282 119 q 292 131 285 128 q 297 151 297 140 q 308 164 297 161 q 317 152 313 161 q 333 151 322 143 q 349 153 342 156 q 362 149 356 151 q 375 148 368 147 q 390 157 382 149 q 402 168 397 161 q 411 181 407 175 q 422 191 415 188 q 436 190 428 194 q 431 152 433 172 q 425 113 429 132 q 415 78 421 94 q 400 46 410 61 q 377 26 389 35 q 354 6 365 17 q 315 -16 335 -6 q 274 -25 296 -26 q 250 -32 263 -25 q 229 -28 238 -39 q 177 -32 200 -39 q 136 -10 154 -25 q 100 6 111 -12 q 79 40 89 25 q 79 59 85 53 q 75 76 74 65 q 87 106 82 92 q 94 136 92 121 q 99 185 101 163 q 101 205 106 196 q 93 224 96 214 q 102 251 96 239 q 113 278 108 264 l 131 372 q 139 385 133 379 q 150 398 144 392 q 159 411 156 404 q 161 425 163 418 q 190 455 176 440 q 214 488 204 469 q 226 500 219 494 q 239 504 232 506 q 254 501 246 499 q 271 507 263 503 q 288 515 279 511 q 304 517 296 518 q 327 522 317 514 q 349 526 338 531 q 361 528 354 529 q 375 524 368 526 q 399 516 385 519 q 424 528 413 513 z "},"d":{"ha":450,"x_min":90,"x_max":535,"o":"m 492 788 q 507 751 504 772 q 517 764 514 754 q 529 768 521 774 q 534 742 535 756 q 531 713 533 728 q 525 684 528 699 q 524 657 522 669 q 516 630 517 643 q 518 606 515 617 q 501 540 503 572 q 489 472 500 507 q 485 453 488 460 q 478 435 482 446 q 476 421 468 426 q 482 408 483 415 q 466 377 474 392 q 461 343 458 363 q 453 318 457 331 q 447 293 450 306 q 440 241 442 267 q 438 192 438 215 q 426 172 426 182 q 426 153 425 163 q 429 132 428 143 q 424 110 431 121 q 421 69 426 90 q 421 28 415 47 q 429 0 424 11 q 436 -26 435 -11 l 429 -33 q 405 -24 418 -28 q 380 -14 392 -19 q 358 -1 368 -8 q 342 17 347 6 q 335 7 338 14 q 329 -6 332 0 q 329 -11 331 -8 q 326 -17 328 -14 q 305 -5 314 -14 q 294 19 296 4 q 289 36 279 19 q 260 24 274 33 q 232 14 247 14 q 212 6 221 11 q 192 1 203 0 q 182 8 186 4 q 171 10 178 13 q 153 16 163 15 q 139 26 144 17 q 131 28 132 24 q 126 35 129 33 q 108 44 114 35 q 99 61 103 54 q 90 96 100 79 q 115 314 94 199 q 123 334 121 324 q 126 354 125 344 q 130 373 126 364 q 143 392 133 382 q 151 431 146 410 q 181 461 157 451 q 202 487 188 476 q 231 507 217 497 q 264 514 247 507 q 296 526 281 521 q 311 526 304 528 q 324 521 318 524 q 338 517 331 518 q 354 518 346 515 q 363 515 358 521 q 372 519 368 510 q 385 613 375 568 q 400 704 394 657 q 398 713 401 708 q 391 719 394 717 q 388 726 388 722 q 394 735 388 731 l 417 736 q 414 781 421 760 q 392 817 407 803 q 397 824 392 824 q 406 822 403 824 q 429 818 418 822 q 450 808 440 814 q 469 795 460 801 q 492 788 479 789 m 306 408 q 278 393 290 408 q 275 379 279 385 q 266 368 271 374 q 259 356 261 363 q 263 343 257 350 q 256 311 258 326 q 249 281 253 296 q 241 249 246 265 q 228 218 236 233 q 236 205 236 213 q 234 188 236 197 q 229 170 232 179 q 229 154 226 161 q 235 139 226 142 q 251 133 244 136 q 271 136 261 136 q 289 146 281 136 q 295 156 294 150 q 295 168 296 163 q 294 180 294 174 q 296 190 293 186 q 303 203 300 197 q 310 219 307 208 q 309 252 307 235 q 314 288 311 269 q 325 332 319 310 q 333 378 331 354 l 328 385 q 329 396 332 393 q 322 399 326 399 q 311 401 317 400 q 306 408 306 403 z "},"e":{"ha":458,"x_min":100,"x_max":501,"o":"m 457 540 q 488 508 479 529 q 501 463 496 486 q 496 416 492 439 q 497 369 500 393 q 488 325 490 350 q 479 281 486 300 q 464 267 472 269 q 444 267 456 265 q 411 269 432 274 q 374 264 390 264 q 349 266 363 271 q 321 264 335 261 q 303 267 313 269 q 285 263 294 265 q 266 257 275 260 q 249 257 257 254 q 239 234 240 246 q 237 211 238 222 q 235 189 236 200 q 228 168 233 178 q 240 144 235 157 q 263 133 246 132 q 282 149 278 136 q 297 169 286 161 q 301 181 300 174 q 303 196 301 189 q 308 206 304 203 q 322 207 313 210 q 335 194 333 203 q 344 178 338 185 q 359 188 351 182 q 374 200 367 194 q 388 208 381 206 q 404 208 396 211 q 422 224 413 214 q 442 229 432 235 q 445 209 450 219 q 444 188 440 199 q 439 167 438 178 q 438 146 440 157 q 417 122 429 132 q 401 97 404 113 q 378 76 390 88 q 354 53 367 64 q 328 35 342 43 q 300 28 315 28 q 271 17 286 25 q 244 19 256 8 q 229 22 233 15 q 176 29 203 26 q 136 60 149 32 q 120 76 124 64 q 119 100 117 88 l 103 125 q 104 151 106 139 q 101 176 103 164 q 101 201 100 189 q 113 226 103 214 q 114 265 110 242 q 121 297 117 281 q 128 328 125 313 q 132 343 128 335 q 140 360 136 351 q 144 376 143 368 q 140 390 146 383 q 159 432 156 410 q 178 474 163 454 q 179 490 175 483 q 190 502 183 497 q 203 512 196 507 q 217 522 211 517 q 236 542 224 535 q 260 558 249 549 q 283 563 271 556 q 306 567 294 569 q 321 572 314 574 q 335 568 328 569 l 367 586 q 418 571 390 578 q 457 540 446 564 m 340 471 q 315 462 328 464 q 296 446 301 460 q 288 415 293 431 q 281 383 283 399 q 276 363 278 374 q 290 351 275 351 q 315 355 303 351 q 339 351 328 358 q 345 374 346 363 q 354 399 344 386 q 353 418 351 407 q 356 440 354 429 q 354 458 357 450 q 340 471 351 467 z "},"f":{"ha":369,"x_min":74,"x_max":538,"o":"m 479 785 q 510 787 497 788 q 538 779 522 786 l 536 774 q 492 763 514 771 q 458 733 471 754 q 442 722 450 729 q 435 707 435 715 q 447 703 439 704 q 464 703 456 703 q 457 691 465 692 q 442 686 449 690 q 431 679 438 682 q 419 673 425 676 q 409 665 413 669 q 410 653 406 660 l 410 649 q 378 644 394 651 q 347 640 363 638 q 336 632 339 639 q 332 621 333 625 q 327 599 328 610 q 326 576 326 588 q 324 555 326 565 q 313 535 321 544 l 314 528 q 340 528 328 529 q 364 521 353 528 q 409 526 386 528 q 453 528 432 525 l 458 522 q 422 499 442 513 q 388 467 403 486 q 392 461 389 463 q 399 458 396 460 q 406 453 403 456 q 407 444 408 450 q 371 422 386 438 q 336 400 356 407 q 328 385 331 393 q 318 379 326 378 q 302 378 311 378 q 286 376 293 379 q 275 357 275 367 q 272 338 275 347 q 258 296 264 317 q 246 254 251 275 q 233 174 238 214 q 218 94 228 135 q 216 65 215 79 q 210 35 217 50 q 217 9 214 24 q 228 -15 221 -6 q 229 -39 224 -29 q 246 -56 235 -49 q 232 -62 246 -68 q 210 -45 219 -56 q 189 -25 200 -35 q 178 -22 182 -29 q 171 -12 175 -15 q 117 3 147 -1 q 117 13 114 8 q 122 24 119 18 l 114 49 q 106 38 114 42 q 90 28 97 33 q 83 27 88 29 q 76 26 79 25 q 81 64 74 43 q 86 104 89 85 q 98 146 94 125 q 105 188 101 167 q 112 231 108 210 q 122 274 115 253 q 121 294 119 283 q 125 317 122 306 q 131 340 128 328 q 139 363 135 351 q 141 385 139 374 q 146 408 143 397 q 155 447 150 428 q 164 485 160 465 q 168 509 167 497 q 169 533 169 521 q 183 571 179 553 q 192 608 188 589 q 200 640 194 625 q 217 671 206 656 q 225 692 224 681 q 239 710 226 703 l 268 728 q 284 751 274 743 q 307 763 294 758 q 333 772 319 768 q 358 782 346 775 q 378 782 368 779 q 396 792 388 785 q 436 786 415 785 q 479 785 457 788 z "},"g":{"ha":447,"x_min":43,"x_max":567,"o":"m 472 593 q 497 598 485 596 q 522 604 510 600 q 541 599 531 601 q 563 604 551 597 q 567 599 567 601 q 535 570 551 585 q 507 540 518 556 q 514 534 507 533 q 525 532 521 535 q 502 492 513 511 q 482 450 492 474 q 467 378 478 413 q 453 307 456 343 q 451 286 457 299 q 447 264 446 274 q 431 176 440 218 q 413 90 422 135 q 410 59 417 75 q 404 28 403 43 q 383 -26 401 -3 q 339 -71 365 -50 q 281 -103 311 -92 q 224 -108 250 -115 q 198 -117 211 -115 q 174 -119 185 -119 q 133 -115 153 -119 q 93 -110 113 -111 q 65 -103 79 -106 q 43 -85 50 -100 l 44 -78 q 53 -78 49 -76 q 61 -81 57 -79 q 70 -83 65 -83 q 82 -78 75 -83 q 131 -62 106 -82 q 113 -48 124 -54 q 103 -29 101 -42 q 121 -29 113 -21 q 156 -17 138 -22 q 190 -10 174 -11 q 176 1 188 -3 q 168 15 165 4 q 181 17 175 21 q 193 14 186 13 q 226 21 211 10 q 260 40 242 32 q 265 51 263 46 q 275 63 267 57 q 274 76 278 69 q 276 90 271 83 q 262 89 269 93 q 247 88 254 85 q 224 92 236 92 q 201 92 213 92 q 173 95 186 92 q 153 118 160 99 q 136 118 143 115 q 125 126 129 121 q 110 160 122 146 q 99 193 99 174 q 106 210 104 201 q 107 229 107 219 q 108 248 107 239 q 114 265 110 257 q 117 291 118 279 q 118 318 115 303 q 130 355 129 335 q 138 392 131 375 q 139 427 140 410 q 150 464 138 444 q 164 495 153 481 q 178 526 175 510 q 203 556 192 539 q 240 573 225 563 q 275 594 254 583 q 294 594 285 592 q 311 601 303 597 q 328 607 319 604 q 344 607 336 610 q 353 608 349 611 q 360 611 357 604 q 415 602 388 604 q 472 593 443 600 m 324 496 q 297 472 310 488 q 288 450 290 461 q 276 428 286 439 q 269 386 278 406 q 267 347 261 367 l 251 276 q 252 261 254 269 q 251 246 250 253 q 254 231 254 239 q 263 219 254 224 q 283 218 272 221 q 301 228 294 215 q 307 235 304 231 q 307 243 310 239 q 317 285 313 263 q 326 329 321 307 q 335 373 331 351 q 344 415 340 394 q 351 446 351 431 q 353 476 350 461 q 342 490 349 488 q 324 496 335 493 z "},"h":{"ha":458,"x_min":75,"x_max":486,"o":"m 293 829 q 304 807 294 815 q 317 786 314 799 l 321 781 q 328 786 325 782 q 334 794 331 790 q 341 799 338 799 q 349 796 344 800 q 347 747 350 772 q 339 699 344 722 q 327 650 333 674 q 317 603 321 626 q 315 567 319 583 q 306 532 310 550 q 304 493 300 510 q 324 500 315 499 q 340 501 332 501 q 358 502 349 501 q 378 507 367 503 q 433 491 408 504 q 476 458 457 478 l 486 414 q 482 382 485 399 q 476 349 479 365 q 467 312 472 329 q 460 275 463 294 q 453 242 456 258 q 450 210 451 225 q 443 176 447 193 q 435 143 439 160 q 428 97 431 119 q 428 50 425 74 q 426 26 424 38 q 433 3 428 14 q 444 -17 438 -7 q 453 -39 450 -28 q 437 -42 443 -49 q 422 -33 431 -36 q 401 -10 407 -25 q 383 14 396 4 q 378 3 379 10 q 378 -8 378 -3 q 376 -17 378 -12 q 367 -21 375 -21 q 344 6 357 -7 q 328 36 331 18 q 322 42 325 39 q 315 40 319 46 q 302 28 306 38 q 289 25 299 19 q 294 83 292 53 q 304 143 297 113 q 310 165 307 154 q 315 188 313 176 q 315 199 318 194 q 317 211 311 204 q 322 237 319 225 q 328 260 325 249 q 333 307 333 281 q 333 326 338 318 q 333 346 328 335 q 330 358 335 353 q 319 367 325 364 q 292 360 304 369 q 269 342 281 351 q 265 331 268 335 q 267 324 261 326 l 264 324 q 239 218 249 268 q 227 158 232 188 q 217 96 222 128 q 208 78 210 86 q 208 60 207 69 q 210 43 210 51 q 210 25 211 35 q 214 -2 213 11 q 222 -26 215 -15 l 219 -35 q 194 -28 204 -35 q 177 -12 185 -22 q 163 9 169 -3 q 151 31 157 21 q 143 17 144 26 q 133 7 142 8 q 121 35 122 19 q 113 65 119 51 q 97 45 103 57 q 78 32 92 33 q 79 78 75 56 q 86 125 83 101 q 101 172 97 150 q 110 227 108 200 q 121 281 111 254 q 121 313 121 296 q 125 347 121 329 q 140 386 129 369 q 143 411 142 401 q 143 435 144 421 q 162 475 153 453 q 168 517 171 497 q 178 565 178 540 q 188 615 179 590 q 186 641 181 626 q 189 667 192 656 q 195 692 193 679 q 203 715 197 704 q 204 757 207 736 q 200 799 201 778 q 192 803 200 804 q 188 810 185 803 q 192 820 188 815 q 203 822 197 825 q 228 815 215 818 q 249 800 242 811 q 253 813 256 806 q 254 826 251 819 q 251 849 253 838 q 243 869 249 860 q 250 876 243 879 q 261 872 257 872 l 293 829 z "},"i":{"ha":236,"x_min":85,"x_max":322,"o":"m 233 625 q 226 619 229 624 q 220 611 222 615 q 215 603 218 607 q 207 601 211 600 q 194 628 200 615 q 190 660 188 642 q 201 715 194 690 q 201 767 208 739 q 203 773 201 769 q 208 776 204 776 q 224 767 217 774 q 240 771 232 761 q 249 811 243 789 q 242 847 254 833 q 254 852 249 853 q 263 847 260 851 q 269 836 267 842 q 275 826 272 831 q 281 791 272 806 q 296 760 289 776 q 308 769 303 761 q 319 774 313 776 q 317 726 322 751 q 306 678 313 700 q 297 615 303 650 q 285 547 292 579 l 282 544 q 270 565 275 554 q 260 587 265 576 q 249 608 256 597 q 233 625 243 618 m 211 100 q 213 49 208 72 q 225 3 218 26 q 219 1 222 0 q 213 0 215 1 q 189 31 199 11 q 158 58 179 51 q 151 44 156 51 q 140 35 147 38 q 133 45 133 38 q 129 60 132 53 l 113 96 q 106 94 108 97 q 101 86 103 90 q 97 79 99 82 q 89 78 94 76 q 86 99 85 88 q 90 124 88 111 q 95 148 93 136 q 94 171 97 160 q 106 221 103 196 q 117 271 108 246 l 119 274 q 127 307 122 290 q 135 339 132 324 q 138 383 142 363 q 149 408 142 394 q 149 432 156 421 l 161 478 q 169 554 167 514 q 178 558 175 565 q 183 547 181 550 l 213 510 q 220 528 219 517 q 235 543 221 540 q 247 508 242 525 q 258 475 253 492 q 266 481 263 476 q 275 483 269 486 q 271 436 276 461 q 260 392 267 414 q 249 349 253 371 q 245 328 246 338 q 243 307 244 318 q 235 273 236 292 q 231 236 235 254 q 215 168 221 204 q 211 100 208 132 z "},"j":{"ha":253,"x_min":-165,"x_max":326,"o":"m 201 631 q 202 654 197 642 q 210 678 207 667 q 208 733 211 706 q 189 782 206 761 q 193 788 189 786 q 201 792 197 790 q 210 786 204 789 q 222 783 215 783 q 260 740 239 761 q 265 755 264 747 q 275 765 265 763 q 307 693 292 731 q 315 702 313 696 q 324 706 318 708 l 326 697 q 315 628 319 661 q 304 563 311 594 q 296 531 300 547 q 286 499 292 515 q 277 519 278 506 q 271 543 276 532 l 258 564 q 247 556 251 561 q 235 551 242 551 q 228 569 231 560 q 224 588 226 578 q 209 576 217 582 q 194 564 201 569 q 188 569 190 564 q 194 599 194 582 q 201 631 194 615 m 256 283 q 244 245 249 264 q 238 206 240 226 l 233 199 q 222 171 226 185 q 214 142 217 157 q 209 112 211 126 q 204 85 207 97 l 200 74 q 193 21 193 46 q 175 -31 193 -4 q 157 -85 174 -58 q 114 -126 140 -112 q 84 -151 103 -144 q 49 -168 65 -158 l -8 -179 q -24 -176 -15 -175 q -42 -179 -33 -178 q -59 -181 -50 -181 q -75 -176 -68 -181 q -122 -167 -97 -169 q -165 -151 -146 -164 q -146 -147 -154 -140 q -125 -150 -137 -153 q -106 -144 -118 -146 q -90 -128 -94 -142 q -96 -117 -89 -121 q -96 -106 -103 -114 q -74 -105 -86 -103 q -53 -100 -62 -107 q -33 -86 -44 -93 q -24 -68 -21 -79 q -28 -60 -24 -62 q -36 -55 -32 -57 q -42 -50 -40 -53 q -36 -42 -43 -47 q -8 -44 -24 -49 q 22 -36 8 -39 q 58 3 49 -22 q 69 51 68 28 q 83 87 76 69 q 92 121 89 104 q 95 143 94 132 q 93 167 96 154 q 97 186 93 176 q 106 205 101 196 q 114 224 111 214 q 113 243 117 233 q 126 278 126 261 q 133 315 125 294 q 138 349 131 333 q 146 382 146 365 q 156 433 149 410 q 169 482 163 457 q 170 499 169 490 q 176 517 171 508 q 186 508 188 518 q 188 492 185 497 q 194 459 189 475 q 203 428 199 443 q 210 439 207 432 q 218 452 214 446 q 228 462 222 458 q 242 464 233 465 q 247 408 239 436 q 269 357 256 381 q 260 320 261 338 q 256 283 260 303 z "},"k":{"ha":444,"x_min":79,"x_max":503,"o":"m 314 768 q 323 777 319 771 q 331 789 326 783 q 338 796 335 794 q 347 790 342 797 q 340 727 343 758 q 325 664 336 696 q 319 608 326 635 q 308 551 313 581 q 299 524 301 538 q 296 498 297 511 q 293 472 294 485 q 286 446 292 458 q 285 426 288 436 q 285 407 282 417 q 324 448 304 428 q 353 493 343 468 q 372 517 361 506 q 385 544 382 529 q 396 546 393 549 q 399 538 399 543 q 399 526 399 532 q 401 517 399 519 q 403 510 404 514 q 408 508 403 507 q 437 546 424 526 q 447 586 450 565 q 449 594 450 589 q 456 599 449 600 q 463 587 464 596 q 465 571 463 578 q 475 542 469 556 q 481 514 481 529 q 490 523 486 515 q 500 524 493 531 q 500 514 503 519 q 494 503 497 508 q 490 493 492 499 q 490 483 488 488 q 431 399 463 442 q 371 311 399 356 q 365 305 369 308 q 357 298 361 301 q 351 290 353 294 q 354 282 350 286 l 353 282 q 362 251 353 265 q 381 224 371 236 q 392 204 385 213 q 405 188 399 196 q 416 172 411 181 q 422 151 421 164 q 465 90 443 115 q 480 60 472 75 q 499 31 488 46 l 496 22 q 477 29 486 24 q 457 31 468 35 l 457 6 l 451 4 q 408 33 428 15 q 364 61 388 50 q 360 53 361 58 q 359 42 360 47 q 356 32 358 36 q 344 31 353 28 q 292 103 321 71 q 239 175 264 136 q 230 135 235 156 q 221 93 225 114 q 213 35 214 64 q 222 -18 211 6 q 228 -25 225 -21 q 235 -33 232 -29 q 228 -37 231 -39 q 224 -40 226 -36 q 215 -31 221 -33 q 203 -26 210 -29 q 180 -1 188 -17 q 163 28 172 15 q 153 21 157 26 q 147 10 150 15 q 140 3 143 4 q 132 8 136 1 q 121 40 125 24 q 111 72 117 57 q 96 60 103 67 q 79 54 89 53 q 89 101 81 79 q 99 146 97 122 q 116 227 113 190 q 131 308 119 264 q 136 346 128 326 q 142 382 144 365 q 147 403 144 393 q 153 425 150 414 q 165 495 160 461 q 179 565 169 529 q 189 579 188 572 q 189 593 190 586 q 186 608 188 600 q 189 624 185 615 q 197 651 200 638 q 193 675 194 664 q 199 697 196 686 q 204 719 201 708 q 210 770 210 746 q 197 813 210 794 q 203 819 199 819 q 211 819 208 819 l 235 790 q 237 806 240 799 q 236 819 233 813 q 238 831 239 825 q 235 841 236 836 q 234 851 233 846 q 243 860 235 856 q 282 817 268 843 q 314 768 296 790 z "},"l":{"ha":253,"x_min":74,"x_max":350,"o":"m 292 825 q 295 832 296 828 q 294 840 294 836 q 295 848 294 844 q 303 853 296 851 q 311 845 308 850 q 317 835 314 840 q 325 827 321 831 q 336 825 329 824 q 345 801 340 814 q 343 775 350 788 q 342 731 347 753 q 333 689 338 710 q 329 668 331 678 q 329 647 328 658 q 313 591 321 619 q 299 532 306 563 q 291 491 294 511 q 286 451 288 471 q 278 427 281 439 q 272 403 275 415 q 267 374 269 388 q 261 346 264 361 q 254 317 258 331 q 246 289 250 303 q 240 269 243 278 q 235 249 238 260 q 224 184 228 217 q 214 118 221 151 q 213 99 215 110 q 210 79 211 89 q 209 60 208 69 q 217 44 210 50 q 228 21 219 33 q 249 7 236 8 q 247 1 247 3 q 242 -4 247 -1 q 208 3 225 1 q 171 11 190 4 q 178 -7 174 3 q 190 -22 182 -17 q 176 -26 186 -32 q 154 -8 165 -21 q 126 4 143 4 l 104 38 q 99 31 100 36 q 97 22 97 26 q 94 15 96 18 q 86 14 92 13 q 74 67 74 38 q 89 124 74 96 q 101 198 96 163 q 114 271 106 233 q 120 298 117 285 q 128 325 124 311 q 129 332 126 329 q 131 338 132 335 q 142 394 136 365 q 154 451 147 422 q 165 508 160 479 q 176 569 171 538 q 193 629 188 601 q 200 710 201 671 q 207 740 203 724 q 194 764 211 757 q 201 774 197 772 q 210 774 206 775 q 220 770 215 772 q 231 769 225 768 q 231 790 233 781 q 225 807 229 799 q 216 824 221 815 q 208 842 211 832 q 203 847 207 846 q 194 849 199 849 q 188 852 190 850 q 189 861 186 854 q 215 863 203 867 q 239 854 226 858 l 292 825 z "},"m":{"ha":686,"x_min":85,"x_max":726,"o":"m 253 569 q 256 555 256 564 q 267 549 257 546 q 276 563 274 553 q 288 568 278 574 q 296 532 292 550 q 297 497 300 514 q 328 513 313 504 q 360 528 344 521 l 361 533 q 388 549 375 544 q 413 556 400 554 q 440 557 426 557 q 469 561 454 557 q 484 544 482 556 q 494 526 486 533 q 496 506 497 517 q 501 489 494 496 l 540 513 q 556 533 546 526 q 576 544 565 540 q 599 553 588 549 q 621 567 610 558 q 654 565 639 569 q 685 561 669 561 q 711 533 696 546 q 722 496 726 521 q 719 466 719 481 q 715 436 718 451 q 697 357 707 399 q 678 274 688 315 q 665 213 671 243 q 656 156 660 183 q 647 129 647 142 q 647 105 646 117 q 648 81 647 93 q 644 56 649 68 q 647 28 646 42 q 650 3 647 14 q 633 8 639 0 q 618 19 628 17 q 602 41 611 32 q 588 63 593 50 q 578 51 581 60 q 568 46 576 43 q 551 92 557 68 q 543 142 546 117 q 533 132 536 139 q 528 119 531 125 q 523 110 526 113 q 513 114 519 108 q 520 176 518 142 q 533 238 522 210 q 539 265 531 249 q 546 297 547 282 q 553 314 551 306 q 554 330 554 322 q 555 346 554 338 q 563 363 556 354 q 561 407 558 381 q 548 411 557 415 q 535 414 539 407 q 518 403 525 407 q 501 394 511 400 q 484 371 490 383 q 475 346 478 358 q 472 325 472 335 q 469 306 472 315 q 463 284 465 294 q 458 263 461 274 q 452 233 454 247 q 447 203 450 218 q 431 151 442 179 q 432 85 428 115 q 440 21 436 56 q 442 13 443 15 q 434 11 438 8 q 428 14 431 14 q 417 36 428 29 q 403 57 406 43 q 395 65 397 60 q 388 72 393 71 q 376 57 379 65 q 369 38 372 49 q 366 36 368 35 q 361 36 364 38 q 341 70 357 56 q 324 106 325 85 q 317 100 319 104 q 315 92 315 96 q 311 85 314 88 q 301 85 308 82 q 313 196 299 138 q 332 307 326 254 q 336 328 336 318 q 336 349 336 339 q 338 369 336 360 q 347 388 340 379 l 346 411 q 322 406 335 414 q 299 386 308 397 q 281 372 293 376 q 263 334 269 353 q 253 296 257 315 q 245 254 249 275 q 235 214 242 233 q 231 193 232 203 q 226 174 229 183 q 222 141 224 157 q 222 107 219 125 q 219 62 219 86 q 229 18 218 38 q 227 12 231 13 q 221 8 224 11 q 200 41 207 24 q 178 72 193 58 q 169 63 171 69 q 166 50 167 57 q 162 39 165 43 q 150 38 158 35 q 133 69 138 50 q 118 103 128 89 q 103 90 110 100 q 86 83 97 79 l 85 94 q 92 126 92 110 q 96 156 92 142 q 103 205 93 182 q 111 254 114 228 q 117 266 114 260 q 126 276 119 272 q 129 285 125 282 q 133 294 133 289 q 124 307 126 301 q 126 321 121 313 q 135 337 133 328 q 140 354 136 346 q 144 397 140 376 q 153 437 149 417 q 161 479 158 457 q 158 503 156 490 q 154 526 161 515 q 148 537 153 533 q 149 547 143 540 q 159 550 154 551 q 168 546 164 549 q 176 541 172 543 q 188 539 181 539 q 201 569 193 554 q 201 600 210 585 q 194 617 199 610 q 183 631 190 624 l 188 636 q 209 624 201 633 q 223 605 217 615 q 235 585 229 594 q 253 569 242 575 z "},"n":{"ha":447,"x_min":99,"x_max":499,"o":"m 265 631 q 272 647 272 636 q 282 657 272 657 q 306 624 303 647 q 304 581 308 601 l 307 578 q 353 604 331 596 q 400 624 376 613 q 454 613 432 629 q 492 578 476 597 q 492 533 499 556 q 483 488 486 511 q 459 347 468 417 q 438 204 450 276 q 437 200 440 201 q 433 196 433 199 q 433 146 438 172 q 440 96 428 119 q 450 83 443 88 q 457 69 457 79 q 448 66 453 63 q 440 63 443 69 q 427 74 435 69 q 412 85 419 79 q 398 97 404 90 q 390 114 392 103 q 386 99 388 108 q 376 85 385 90 q 353 108 360 92 q 339 139 346 124 q 325 135 332 142 q 311 135 318 129 q 302 140 304 135 q 300 150 300 144 q 300 162 300 156 q 297 172 300 168 q 305 213 300 192 q 314 254 310 233 q 325 335 325 299 q 336 394 333 367 q 342 454 339 422 l 332 465 q 300 444 317 453 q 275 419 283 436 q 267 381 268 403 q 254 344 265 360 q 238 244 247 294 q 226 146 229 194 q 231 107 224 124 q 249 71 239 90 q 242 63 246 64 q 235 65 239 63 q 228 69 232 67 q 222 72 225 72 l 182 121 q 175 103 176 114 q 163 94 174 93 q 147 115 154 103 q 136 140 140 128 q 121 137 129 143 q 106 135 113 131 q 99 167 99 150 q 103 200 100 183 q 110 234 107 217 q 114 268 114 251 q 125 319 121 294 q 135 369 129 343 q 140 392 138 381 q 146 415 143 403 q 154 442 149 429 q 164 469 160 454 q 158 488 157 479 q 163 506 160 497 q 171 525 167 515 q 174 544 175 535 q 174 570 176 556 q 174 596 172 585 q 166 606 171 601 q 165 618 161 611 q 175 619 171 621 q 183 617 179 618 q 192 614 188 615 q 201 615 196 613 q 199 658 201 639 q 183 692 197 676 q 195 698 189 699 q 207 694 201 697 q 240 667 225 682 q 265 631 254 651 z "},"o":{"ha":461,"x_min":92,"x_max":496,"o":"m 468 514 q 486 451 476 483 q 482 385 496 419 q 469 339 478 363 q 468 294 461 315 q 465 271 465 282 q 461 249 464 260 q 449 200 454 224 q 438 147 443 176 q 423 126 428 138 q 415 103 418 114 q 366 50 397 71 q 301 14 335 29 q 288 9 294 8 q 274 11 281 10 q 260 12 267 13 q 246 4 253 11 q 210 12 229 11 q 175 24 190 13 q 151 27 161 24 q 129 36 140 31 q 117 58 122 46 q 96 78 111 71 q 95 92 99 86 q 94 107 92 99 q 93 128 92 117 q 96 152 94 140 q 98 175 97 164 q 96 197 99 186 q 106 247 104 222 q 113 296 107 271 q 119 318 115 307 q 129 342 122 329 q 130 367 126 354 q 139 392 133 379 q 149 417 144 404 q 154 442 154 429 q 210 517 178 481 q 279 554 243 549 q 336 567 310 567 q 397 557 368 567 q 451 539 426 547 l 468 514 m 324 443 q 307 441 317 446 q 290 432 297 436 q 281 418 290 424 q 274 404 272 413 q 266 379 269 392 q 260 356 263 367 q 253 311 254 333 q 250 264 251 289 q 248 249 251 256 q 241 234 244 242 q 236 219 238 226 q 240 204 235 213 q 239 175 236 189 q 238 147 242 161 q 259 134 244 136 q 286 133 274 132 q 300 151 292 143 q 308 169 308 158 q 306 199 306 183 q 318 229 307 215 q 337 321 333 275 q 356 410 340 367 q 350 415 353 414 q 344 421 347 415 q 338 435 347 429 q 324 443 329 440 z "},"p":{"ha":464,"x_min":51,"x_max":510,"o":"m 497 524 q 503 499 497 511 q 499 474 510 488 q 503 432 507 456 q 495 406 500 419 q 490 379 490 393 q 482 333 482 356 q 468 286 482 310 q 467 260 469 272 q 457 236 465 249 q 446 199 457 217 q 428 163 435 181 q 394 138 413 147 q 360 118 376 129 q 319 102 340 110 q 279 101 299 94 q 255 99 267 101 q 229 94 243 97 q 209 -11 215 40 q 194 -117 203 -62 q 196 -174 193 -146 q 201 -231 199 -203 q 192 -232 194 -236 q 188 -225 190 -228 q 181 -210 186 -215 q 172 -197 175 -206 q 167 -193 169 -194 q 168 -187 164 -192 q 159 -169 161 -181 q 146 -156 157 -158 q 134 -158 139 -153 q 122 -160 129 -164 q 119 -142 119 -151 q 108 -132 118 -133 q 103 -112 106 -121 q 86 -104 100 -104 q 78 -112 81 -107 q 74 -121 76 -117 q 69 -128 72 -125 q 60 -128 67 -131 q 67 -64 65 -96 q 79 0 69 -32 q 103 140 90 75 q 132 281 117 206 q 135 312 132 297 q 144 341 139 326 q 151 370 149 356 q 153 400 154 385 q 152 413 158 408 q 149 426 146 417 q 105 431 128 432 q 58 418 82 429 q 56 423 51 419 q 58 431 61 426 q 69 444 63 439 q 84 455 76 450 q 98 465 92 460 q 107 481 104 471 q 114 488 108 485 q 124 493 119 490 q 128 499 128 496 q 124 507 129 503 q 126 516 122 514 q 133 519 129 518 q 140 522 138 519 q 140 531 143 524 l 132 538 l 128 535 q 125 542 129 539 q 117 549 121 546 q 112 556 113 553 q 121 563 111 560 q 180 565 149 560 q 240 567 211 571 q 280 568 260 569 q 319 576 300 567 q 361 576 339 574 q 406 579 383 579 q 434 576 421 579 q 458 565 447 574 q 482 551 474 567 q 497 524 490 535 m 325 440 q 312 435 319 439 q 300 425 304 432 q 295 407 300 415 q 285 391 290 399 q 277 375 279 383 q 281 357 275 367 q 272 302 274 329 q 265 247 269 275 q 266 234 263 240 q 275 222 269 228 q 291 217 282 215 q 311 219 300 219 q 324 229 318 224 q 333 242 331 235 q 335 263 333 253 q 339 285 336 274 q 344 306 342 296 q 349 325 346 315 q 353 360 349 344 q 360 392 357 376 q 363 410 363 401 q 361 431 364 419 q 360 438 363 438 q 353 438 357 439 q 348 438 350 438 q 349 444 346 438 q 337 441 340 443 q 325 440 333 439 z "},"q":{"ha":450,"x_min":79,"x_max":496,"o":"m 496 550 q 489 510 492 531 q 486 468 486 490 q 467 406 474 436 q 453 343 460 375 q 456 323 456 332 q 458 306 456 314 q 445 274 449 289 q 441 247 442 260 q 438 219 440 233 q 431 188 436 204 l 418 117 q 412 83 413 100 q 410 49 411 67 q 406 14 410 32 q 393 -22 403 -4 q 392 -73 396 -47 q 385 -124 388 -99 q 384 -172 382 -149 q 403 -217 386 -196 q 408 -218 410 -214 q 411 -225 407 -222 q 403 -233 410 -232 q 392 -231 396 -233 l 332 -175 q 321 -174 325 -171 q 313 -182 317 -178 q 304 -189 308 -186 q 296 -185 300 -192 l 300 -182 q 292 -149 294 -167 q 278 -118 289 -131 q 267 -120 274 -122 q 258 -126 261 -118 q 253 -129 257 -129 q 249 -126 250 -129 q 256 -56 246 -92 q 265 19 265 -21 q 269 35 272 28 q 268 49 265 42 q 228 53 249 49 q 186 51 208 58 q 165 57 176 56 q 141 60 153 58 q 119 65 129 61 q 104 79 110 68 q 91 88 97 83 q 85 100 85 92 q 84 135 79 115 q 79 167 89 154 q 94 199 92 183 q 97 229 97 214 q 99 260 97 244 q 111 292 100 275 q 113 322 106 307 q 117 353 119 336 q 124 386 121 368 q 129 422 126 404 q 147 469 135 447 q 188 503 160 492 q 225 528 204 524 q 268 535 246 533 q 290 546 281 546 q 308 542 299 546 q 327 536 317 539 q 350 540 338 533 q 399 542 374 538 q 442 540 424 547 q 455 545 447 544 q 469 545 463 546 q 481 544 475 544 q 492 550 488 544 l 496 550 m 315 413 q 297 412 306 417 q 278 404 288 407 q 265 381 268 393 q 258 354 261 368 l 253 350 q 246 317 250 335 q 236 283 242 299 q 234 255 239 269 q 226 225 229 240 q 226 197 224 210 q 243 178 228 185 q 265 183 256 175 q 286 193 275 190 q 297 227 290 208 q 308 265 303 246 q 329 393 314 328 l 315 413 z "},"r":{"ha":371,"x_min":92,"x_max":493,"o":"m 489 582 q 491 566 492 575 q 490 547 490 557 q 489 529 489 538 q 493 514 489 521 q 463 493 476 507 q 440 464 449 479 q 424 461 432 458 q 413 465 417 464 q 381 433 393 451 q 364 392 369 414 q 360 390 363 389 q 356 389 358 390 q 356 425 354 406 q 356 461 358 444 q 338 496 363 489 q 323 490 331 492 q 308 487 315 489 q 295 481 300 485 q 289 467 290 476 q 286 446 288 456 q 282 425 285 436 q 274 390 278 407 q 265 356 269 374 q 257 300 260 329 q 249 264 249 283 q 246 225 249 244 q 244 117 225 168 q 253 88 249 103 q 272 67 257 74 l 268 58 q 247 65 256 58 q 230 80 238 71 q 214 98 222 89 q 194 111 206 107 q 187 104 189 110 q 183 93 185 99 q 177 85 181 88 q 168 86 174 82 q 159 106 163 96 q 151 126 156 117 q 140 143 147 136 q 121 153 133 150 q 113 148 117 153 q 106 140 108 143 q 99 135 103 136 q 92 142 96 135 q 103 176 100 158 q 108 212 107 193 q 112 249 110 231 q 121 283 114 267 q 124 306 119 297 q 136 326 129 315 q 134 356 129 340 q 144 386 139 371 q 140 404 146 396 q 146 422 133 413 q 151 446 149 433 q 157 472 154 458 q 167 530 164 500 q 167 586 171 560 q 156 601 164 597 q 140 613 147 606 q 158 618 149 619 q 179 617 168 617 q 192 618 186 619 q 206 624 199 617 q 232 619 217 618 q 263 628 247 619 q 285 626 274 626 q 307 625 296 625 q 351 632 332 625 q 392 632 372 632 q 431 627 413 632 q 465 612 450 622 q 489 582 481 601 z "},"s":{"ha":413,"x_min":46,"x_max":475,"o":"m 310 567 q 322 572 317 572 q 334 571 328 572 q 347 569 340 569 q 360 572 353 568 q 398 564 381 574 q 433 549 415 554 q 444 516 442 533 q 457 483 447 499 q 451 467 450 475 q 454 453 451 460 q 460 440 457 446 q 461 426 463 433 q 463 367 465 397 q 475 314 460 338 q 471 309 472 311 q 464 307 469 307 q 454 318 463 310 q 438 335 444 325 q 426 356 432 346 q 411 375 419 367 q 389 386 403 383 q 384 399 386 393 q 375 408 382 406 q 357 400 363 410 q 342 383 351 390 l 333 385 q 338 408 340 397 q 336 432 335 418 q 326 442 332 439 q 314 449 321 446 q 306 442 311 443 q 297 440 301 440 q 289 438 293 439 q 283 429 285 436 q 285 385 272 404 l 285 375 q 389 296 328 325 l 413 243 q 410 204 407 222 q 408 167 413 186 q 388 131 403 147 q 378 96 374 115 q 365 75 372 85 q 356 56 358 65 q 329 40 343 49 q 301 23 315 31 q 272 12 286 15 q 246 13 258 8 q 229 7 239 10 q 213 8 219 4 q 196 14 206 14 q 177 13 186 14 q 160 14 168 13 q 147 26 151 15 l 129 44 q 94 60 106 43 q 75 93 82 76 q 76 126 75 108 q 79 160 78 143 q 79 194 81 178 q 69 225 78 210 q 58 246 67 238 q 46 265 49 254 q 60 269 51 275 q 69 260 63 261 q 79 253 76 260 q 93 228 86 242 q 119 218 100 215 q 130 199 124 211 q 151 194 136 188 l 153 192 q 168 205 161 197 q 185 211 175 213 q 197 197 196 208 q 200 175 199 186 q 206 156 201 164 q 228 151 211 149 q 241 153 235 146 q 254 165 247 161 q 258 188 260 176 q 254 208 257 199 q 226 240 242 224 q 190 261 211 256 q 174 282 186 275 q 151 295 163 289 q 130 310 139 301 q 122 335 121 318 q 115 351 114 342 q 119 369 115 360 q 125 387 122 378 q 122 404 128 396 q 133 439 122 424 q 146 474 144 454 q 172 505 157 489 q 201 536 186 521 q 215 544 208 542 q 228 547 222 546 q 241 551 235 549 q 254 561 247 553 q 273 566 265 561 q 289 574 281 571 q 301 572 296 571 q 310 567 307 572 z "},"t":{"ha":324,"x_min":63,"x_max":458,"o":"m 303 706 q 320 679 314 694 q 333 649 326 664 q 340 658 340 651 q 349 667 339 664 q 355 649 356 661 q 357 628 354 636 q 349 590 350 608 q 346 553 347 572 q 374 551 358 550 q 404 549 390 553 q 414 553 410 554 q 422 551 418 553 q 428 547 425 549 q 438 547 432 544 q 449 547 443 546 q 458 543 456 549 q 438 524 451 532 q 413 507 424 517 q 399 490 408 496 q 386 472 389 483 q 402 460 392 464 q 415 447 413 457 q 397 434 408 439 q 390 418 386 429 q 372 411 382 411 q 352 413 363 411 q 332 412 342 414 q 315 397 322 410 q 303 360 308 378 q 293 322 297 342 q 279 240 285 282 q 261 156 274 199 q 253 123 254 139 q 252 91 251 107 q 253 60 253 75 q 251 28 254 44 q 255 8 251 17 q 257 -10 258 0 q 250 -14 253 -14 q 245 -11 247 -14 q 240 -6 243 -8 q 233 -1 238 -3 q 222 16 225 4 q 215 38 218 28 q 203 56 211 49 q 179 58 196 63 q 176 57 178 56 q 172 58 174 58 q 171 91 175 74 q 150 114 167 108 q 138 104 140 114 q 126 96 136 94 q 134 147 125 119 q 144 201 143 174 q 153 247 147 226 q 164 289 158 268 q 169 313 167 300 q 169 339 171 325 q 179 371 176 354 q 186 403 182 388 q 144 408 167 410 q 104 415 122 407 q 81 411 93 414 q 63 415 69 408 q 74 424 65 422 q 89 425 82 425 q 107 438 100 429 q 121 456 114 447 q 118 460 121 458 q 113 465 115 463 q 109 469 110 467 q 111 476 108 472 q 135 490 121 482 q 153 510 150 497 q 155 526 156 521 q 151 539 154 531 l 140 543 l 143 551 q 178 549 160 553 q 214 549 197 546 q 225 593 226 572 q 232 636 224 614 q 224 656 225 644 q 219 676 224 667 q 204 706 204 692 q 224 699 217 708 q 242 685 232 690 q 254 684 250 688 q 263 678 258 681 q 274 703 271 690 q 269 728 276 717 q 277 732 272 732 q 282 729 282 732 q 290 715 288 722 q 303 706 293 707 z "},"u":{"ha":481,"x_min":96,"x_max":533,"o":"m 244 536 q 286 510 258 510 q 283 428 288 469 q 268 343 278 386 q 259 304 264 324 q 249 265 254 285 q 249 242 251 254 q 244 218 246 231 q 243 194 242 206 q 254 175 244 183 q 277 170 267 172 q 301 172 288 168 q 313 196 313 183 q 324 219 314 208 q 338 272 338 249 q 349 319 338 296 q 358 360 353 340 q 368 399 363 379 q 372 464 375 431 q 381 492 386 478 q 378 519 376 507 q 398 530 393 519 q 410 547 403 540 l 410 597 q 425 592 419 603 q 456 551 442 572 q 481 508 469 529 q 478 504 481 506 q 478 501 475 503 l 489 496 q 494 503 492 499 q 494 510 497 507 q 503 517 500 510 q 509 530 507 524 q 515 538 511 536 q 525 531 518 539 q 526 520 522 524 q 533 510 531 517 q 522 472 525 490 q 518 435 519 454 q 514 397 517 417 q 503 357 511 378 q 490 299 496 326 q 476 244 483 272 q 471 217 474 231 q 467 188 468 203 q 461 171 467 179 q 451 153 456 163 q 442 135 446 144 q 442 117 439 126 q 400 63 429 85 q 339 28 371 40 q 292 21 315 24 q 247 18 269 18 q 196 22 221 18 q 169 36 181 28 q 143 46 158 44 q 108 80 118 58 q 97 126 99 101 q 98 175 96 150 q 99 221 100 200 q 109 251 108 236 q 113 276 110 265 q 120 299 117 288 q 126 321 124 310 q 135 395 133 360 q 151 472 136 431 q 153 490 151 482 q 149 504 156 497 q 159 510 151 513 q 174 513 167 508 q 181 560 179 535 q 161 601 182 586 q 169 609 163 608 q 179 604 176 610 q 198 588 190 597 q 212 570 206 579 q 225 551 218 561 q 244 536 232 542 z "},"v":{"ha":401,"x_min":139,"x_max":510,"o":"m 431 681 q 458 649 447 668 q 476 610 469 629 q 483 616 481 611 q 488 626 486 621 q 493 633 490 631 q 503 635 496 636 q 503 579 510 610 q 487 531 497 556 q 465 483 476 506 q 450 440 456 461 q 438 400 444 419 q 422 361 431 381 q 396 322 413 342 q 394 309 393 315 q 385 297 394 303 q 372 249 379 272 q 349 201 364 225 q 335 140 333 171 q 353 89 336 110 q 361 74 361 83 q 368 58 361 64 l 361 51 q 350 59 357 57 q 336 63 343 61 q 323 69 329 65 q 313 79 317 72 q 303 77 308 76 q 294 78 299 78 l 286 96 q 279 80 279 89 q 278 61 279 71 q 269 51 278 50 q 256 53 260 51 q 237 72 244 63 q 222 92 229 81 l 201 121 q 191 106 196 114 q 176 97 186 99 q 172 197 176 146 q 161 296 168 249 q 162 321 163 308 q 160 346 161 333 q 160 371 158 358 q 168 396 161 383 q 162 435 171 417 q 160 474 153 453 q 163 505 163 488 q 154 533 164 522 q 154 539 151 536 q 160 544 157 542 q 140 599 165 578 q 147 608 140 607 q 158 611 154 608 q 169 613 163 608 q 161 647 167 631 q 142 675 156 663 q 142 682 139 678 q 149 686 146 686 q 169 674 156 675 q 193 668 182 674 q 219 649 208 661 q 244 631 229 638 q 251 647 249 638 q 260 661 254 656 q 278 645 267 654 q 293 625 289 636 q 290 584 289 604 q 294 544 292 564 q 297 505 296 525 q 293 463 297 485 q 296 426 296 444 q 297 392 296 408 q 338 492 319 442 q 371 593 356 542 q 371 602 372 597 q 368 611 369 607 q 367 619 367 615 q 375 625 368 622 q 387 613 381 618 q 401 607 393 608 q 412 616 413 610 q 415 629 411 622 q 418 660 419 644 q 413 688 417 675 q 417 694 413 692 q 425 696 421 697 l 431 681 z "},"w":{"ha":611,"x_min":88,"x_max":733,"o":"m 642 579 q 672 563 657 571 q 694 540 686 556 q 702 553 701 544 q 713 557 703 561 q 727 519 721 540 q 714 475 733 499 q 694 431 710 451 q 674 386 679 410 q 663 369 665 378 q 658 351 660 360 q 652 335 656 343 q 639 318 649 326 q 634 282 636 300 q 614 250 632 264 q 592 196 604 222 q 560 142 579 169 q 558 132 561 138 q 553 121 556 126 q 549 110 550 115 q 554 103 549 106 q 554 92 554 97 q 547 81 554 86 q 528 63 540 69 q 521 39 515 56 l 507 6 q 510 -17 510 -6 q 514 -40 511 -29 q 503 -42 507 -47 q 493 -35 499 -36 q 481 -24 485 -31 q 472 -9 476 -17 q 463 6 468 -1 q 447 15 458 13 q 425 43 440 33 q 413 33 421 36 q 404 21 404 31 q 390 29 393 18 q 382 47 386 40 q 378 76 388 64 q 368 104 369 89 q 361 174 360 136 q 356 240 363 211 q 356 261 357 251 q 354 282 356 271 q 333 247 340 267 q 315 208 326 228 q 317 200 319 206 q 313 192 315 194 q 296 172 300 183 q 290 150 292 161 q 284 128 288 139 q 269 108 281 117 q 260 90 261 99 q 258 72 258 81 q 258 53 258 63 q 253 35 257 44 q 256 12 258 24 q 265 -7 254 0 q 259 -17 268 -17 q 247 -14 250 -17 q 228 -1 236 -8 q 206 -6 219 6 l 206 -4 q 181 22 196 7 q 160 57 167 38 q 145 51 153 60 q 131 47 138 42 q 122 177 119 111 q 117 310 125 243 q 118 372 114 342 q 115 433 122 401 q 117 465 119 450 q 112 493 115 479 q 106 522 108 507 q 104 553 103 536 q 94 567 101 560 q 90 581 88 574 q 124 576 110 582 q 154 563 139 571 l 176 549 q 181 559 181 553 q 180 570 181 565 q 181 578 179 575 q 192 579 183 581 q 216 558 203 568 q 233 529 229 547 q 243 516 246 526 q 243 496 240 506 q 244 449 242 469 q 247 401 247 429 q 247 369 250 386 q 246 336 243 353 q 256 356 251 347 q 263 375 260 364 q 288 427 278 403 q 311 475 299 451 q 315 495 315 486 q 317 515 314 504 q 331 515 325 519 q 344 508 338 511 q 356 511 351 506 q 364 524 361 517 q 363 563 365 543 q 347 597 361 583 q 356 607 347 607 q 392 578 374 592 q 425 547 411 564 q 427 539 422 540 q 435 535 432 538 q 440 518 435 521 q 451 535 449 524 q 467 538 454 546 q 474 511 465 524 q 476 485 482 499 q 481 452 482 469 q 485 419 481 435 q 486 358 482 388 q 488 297 490 329 q 514 349 499 321 q 539 401 529 376 q 555 434 551 417 q 572 469 558 451 q 575 484 575 476 q 582 499 575 492 q 594 492 588 496 q 604 500 601 489 q 613 555 614 528 q 600 603 613 582 q 606 606 601 606 q 613 604 611 607 l 642 579 z "},"x":{"ha":478,"x_min":60,"x_max":524,"o":"m 506 650 l 500 643 q 500 601 497 621 q 496 560 503 582 q 503 556 497 556 q 513 556 508 556 q 521 556 518 557 q 522 547 524 554 q 497 519 511 533 q 481 490 483 506 q 436 435 457 463 q 401 376 415 408 q 411 313 400 343 q 433 256 422 283 q 463 199 449 228 q 486 139 476 171 q 474 132 481 136 q 463 121 467 128 q 460 100 457 108 q 469 85 464 92 q 480 70 475 78 q 485 51 485 63 q 465 54 474 50 q 447 65 456 58 q 430 76 439 71 q 411 85 421 82 q 384 104 399 96 q 360 129 369 113 q 350 122 353 128 q 344 109 347 115 q 338 101 342 103 q 329 108 335 100 q 327 135 333 124 q 319 161 321 147 q 314 174 315 167 q 308 189 313 182 q 286 226 303 207 q 249 178 267 206 q 225 122 232 150 q 224 108 225 115 q 221 92 224 100 q 224 69 221 81 q 229 49 228 58 l 219 44 q 195 68 207 57 q 169 90 183 79 q 153 65 153 81 q 158 55 157 61 q 151 44 160 49 q 141 58 140 46 q 139 79 142 71 q 129 90 132 83 q 126 104 126 97 q 123 117 125 111 q 115 128 121 124 q 88 117 101 122 q 61 113 74 113 l 60 118 q 109 188 88 151 q 163 257 131 225 q 200 312 182 286 q 233 367 218 338 q 226 392 226 381 q 222 418 225 403 q 198 480 207 447 q 167 539 189 513 q 139 569 164 565 l 140 578 q 160 580 151 583 q 181 588 169 576 q 158 627 169 607 q 126 658 146 647 q 133 664 124 664 q 160 651 149 661 q 189 640 171 640 l 253 613 q 263 628 264 619 q 265 644 263 638 q 276 640 272 644 q 282 630 279 636 q 287 617 285 624 q 292 604 289 610 q 314 556 304 581 q 335 507 324 531 q 363 540 349 522 q 388 576 376 558 q 402 593 399 583 q 407 613 406 603 q 410 631 408 622 q 419 646 413 639 q 436 633 428 639 q 451 619 444 628 q 474 653 467 632 q 488 692 482 674 q 497 684 494 689 q 499 673 499 679 q 499 660 499 667 q 506 650 500 654 z "},"y":{"ha":421,"x_min":26,"x_max":486,"o":"m 438 586 q 447 592 443 589 q 457 594 451 596 q 464 563 456 576 q 472 535 472 550 q 485 532 483 540 q 482 515 486 524 q 464 434 465 475 q 450 353 463 393 q 442 306 447 329 q 432 258 438 282 q 422 211 426 235 q 418 164 418 188 q 403 119 411 140 q 397 74 394 97 q 386 50 394 63 q 385 25 378 38 q 365 -28 381 -1 q 321 -68 349 -54 q 299 -74 310 -68 q 278 -88 289 -81 q 258 -101 268 -96 q 235 -106 247 -107 q 190 -112 213 -111 q 150 -107 168 -114 q 135 -101 144 -101 q 116 -102 126 -101 q 96 -104 106 -103 q 78 -103 86 -106 q 67 -92 75 -94 q 51 -87 60 -89 q 35 -83 43 -86 q 26 -69 28 -79 l 69 -69 q 91 -69 81 -69 q 114 -64 101 -68 q 124 -60 118 -61 q 133 -51 129 -58 q 133 -44 135 -47 q 128 -38 131 -40 q 122 -33 125 -36 q 121 -26 119 -31 q 168 -6 144 -29 q 150 7 160 1 q 126 11 140 13 l 125 18 q 148 23 136 24 q 172 22 160 22 q 197 22 185 21 q 221 31 208 22 q 261 40 242 26 q 269 65 267 51 q 271 90 272 79 q 219 81 244 86 q 168 85 193 76 q 151 97 161 93 q 131 106 142 101 q 113 118 121 111 q 104 139 106 125 q 92 176 93 156 q 93 217 90 196 q 100 259 96 238 q 104 300 104 281 q 117 346 113 322 q 128 422 125 385 q 138 496 132 460 q 133 507 138 503 q 125 514 129 511 q 117 520 121 517 q 115 531 114 524 q 128 532 121 532 q 142 533 135 532 q 155 537 149 533 q 167 550 161 540 q 169 563 167 557 q 174 576 171 569 q 178 606 178 590 q 179 636 178 622 q 192 636 185 642 q 214 594 203 615 q 242 554 225 572 q 250 560 246 556 q 257 568 254 564 q 264 574 260 572 q 272 574 268 576 l 281 535 q 272 501 272 518 q 260 469 271 485 q 251 406 258 438 q 240 360 246 383 q 229 313 233 338 q 231 301 232 308 q 229 286 231 293 q 227 272 228 279 q 231 260 226 264 q 239 249 238 256 q 240 236 240 243 q 239 223 239 229 q 246 213 239 217 q 267 217 257 214 q 288 226 278 219 q 296 250 296 238 q 296 275 296 263 q 308 305 307 289 q 311 336 308 321 q 322 383 317 360 q 332 431 328 407 q 342 490 339 461 q 342 544 346 519 q 345 552 342 549 q 353 554 349 556 q 367 556 360 553 q 374 582 371 569 q 383 608 376 594 q 383 619 385 614 q 381 628 382 624 q 381 638 379 633 q 389 647 382 643 q 413 616 404 635 q 438 586 421 597 z "},"z":{"ha":450,"x_min":99,"x_max":538,"o":"m 376 568 q 410 573 392 579 q 442 568 428 567 q 488 573 468 575 q 531 572 507 571 q 528 553 538 565 q 518 531 519 542 q 516 521 521 525 q 518 513 511 517 q 519 502 519 507 q 521 493 518 497 q 513 476 522 482 q 504 463 504 471 q 490 435 499 446 q 465 413 482 424 q 446 393 458 400 q 428 372 433 386 l 422 372 q 358 307 386 342 q 297 240 329 272 q 337 238 317 239 q 376 238 357 238 q 428 238 403 238 q 482 239 454 239 l 481 232 q 444 208 464 217 q 414 181 425 200 q 422 179 419 182 q 424 172 424 176 q 424 162 425 167 q 426 154 424 157 q 410 147 419 150 q 392 141 400 144 q 378 131 383 138 q 372 113 372 125 q 344 106 357 106 q 317 106 332 107 l 154 107 q 142 111 149 113 q 127 108 135 110 q 112 105 119 106 q 99 110 104 104 q 107 143 110 126 q 110 178 104 160 q 122 192 121 185 q 122 210 124 200 q 118 222 121 215 q 125 235 115 229 q 211 317 172 276 q 289 403 250 357 q 307 419 297 413 q 322 436 317 425 q 281 438 301 436 q 239 440 260 440 q 193 435 215 440 q 147 414 171 429 l 144 414 q 148 422 143 418 q 151 429 153 426 q 161 444 154 436 q 163 458 168 453 q 133 450 147 456 q 104 438 119 444 q 102 445 99 440 q 108 453 106 450 q 145 488 128 469 q 186 517 163 507 q 167 528 176 526 q 146 533 157 531 q 157 543 149 542 q 169 547 165 544 q 198 560 183 557 q 227 564 213 563 q 257 567 242 565 q 288 576 272 569 q 330 567 307 568 q 376 568 353 565 z "},":":{"ha":263,"x_min":113,"x_max":333,"o":"m 189 478 q 176 476 181 469 q 190 550 183 513 q 203 622 196 588 q 210 629 203 629 q 231 618 225 629 q 247 600 238 607 q 259 606 251 608 q 272 610 267 603 q 281 609 278 613 q 288 601 285 606 q 294 593 290 597 q 304 590 297 589 l 331 601 q 331 592 333 596 q 324 578 324 586 q 318 564 325 571 q 306 509 308 539 q 300 453 304 479 q 283 450 290 444 q 268 454 276 456 q 251 470 257 461 q 240 490 246 479 q 224 492 229 489 q 219 499 222 497 q 211 503 215 500 q 207 494 211 497 q 199 490 203 492 q 192 486 194 489 q 189 478 189 483 m 256 238 q 256 217 258 228 q 246 199 253 207 q 248 190 249 194 q 240 182 247 185 q 230 190 233 179 q 219 204 226 200 q 199 215 211 207 q 175 213 186 224 q 164 205 168 204 q 156 209 160 206 q 149 217 153 213 q 142 222 146 221 q 125 222 133 228 q 113 222 117 217 q 135 303 126 264 q 158 388 144 343 q 159 394 158 392 q 165 400 160 397 q 169 388 168 394 q 170 374 169 381 q 174 360 171 367 q 185 350 176 354 l 203 342 q 217 353 211 344 q 229 358 222 361 q 238 344 228 347 q 256 339 249 342 q 263 340 258 338 q 269 343 267 342 q 275 344 272 344 q 279 338 278 343 q 272 308 272 322 q 269 278 271 293 q 261 257 260 268 q 256 238 263 246 z "},"+":{"ha":450,"x_min":97,"x_max":507,"o":"m 311 593 l 346 543 q 357 552 353 546 q 368 564 361 558 q 375 554 378 561 q 381 543 372 547 q 373 521 369 532 q 372 500 376 510 l 367 457 q 376 458 372 460 q 385 453 381 456 q 426 456 404 457 q 467 463 447 456 q 483 460 474 460 q 501 464 493 460 q 505 463 504 465 q 507 458 506 460 q 490 446 500 451 q 471 435 481 440 q 453 422 461 429 q 443 404 446 414 q 452 392 451 400 q 457 379 453 385 q 436 371 447 374 q 425 354 425 368 q 424 344 425 350 q 428 338 424 339 q 393 329 411 329 q 356 329 375 329 q 344 303 349 317 q 338 276 340 290 q 331 237 333 257 q 325 197 328 217 q 321 183 321 190 q 314 168 321 175 q 308 172 308 168 q 308 179 307 175 q 309 188 308 183 q 306 196 310 193 q 289 225 301 215 q 278 217 283 222 q 267 211 274 211 q 256 235 258 219 q 246 263 253 250 q 240 256 240 260 q 239 249 240 253 q 228 247 235 249 q 219 250 222 246 l 215 257 q 224 288 222 272 q 231 324 225 304 q 207 326 219 326 q 183 326 194 326 q 142 325 163 326 q 99 322 121 324 l 97 328 q 130 342 117 335 q 163 363 143 350 q 161 374 165 369 q 160 386 157 379 q 188 399 172 389 q 210 424 204 410 q 202 440 211 435 q 197 457 193 446 q 213 458 206 463 q 226 457 219 454 q 241 459 233 458 q 253 464 249 460 q 263 535 257 497 q 272 607 269 574 q 269 615 268 610 q 269 624 269 619 q 279 626 275 629 q 291 603 288 618 q 311 593 294 589 z "},"":{"ha":447,"x_min":194,"x_max":554,"o":"m 351 767 q 368 767 358 771 q 376 749 371 756 q 376 732 381 743 q 346 677 360 704 q 324 621 332 650 q 313 599 314 610 q 299 582 311 588 q 283 548 292 564 q 260 521 274 532 q 246 501 258 508 q 245 494 250 497 q 240 488 240 492 q 231 483 236 483 q 224 486 226 483 q 225 512 224 499 q 233 536 226 525 q 232 553 236 546 q 222 568 228 561 q 225 580 222 574 q 230 592 228 586 q 231 601 232 597 q 222 608 229 606 q 211 605 218 606 q 200 607 204 604 q 197 616 194 610 q 201 625 199 622 q 219 651 211 638 q 228 678 228 665 q 258 739 244 710 q 278 804 271 768 q 285 823 285 813 q 286 843 285 833 q 298 845 293 851 q 304 835 303 839 q 306 812 301 822 q 311 790 310 801 q 332 788 322 789 q 349 779 342 786 l 351 767 m 550 721 q 551 713 554 718 q 546 706 547 708 q 507 628 528 667 q 464 553 486 589 q 446 512 450 532 q 424 474 442 492 q 408 454 421 460 l 404 457 l 417 514 q 413 522 413 518 q 389 518 400 510 q 384 531 383 524 q 386 547 385 539 q 388 562 388 554 q 383 576 388 569 q 369 571 376 578 q 358 574 361 564 l 376 607 q 377 613 374 610 q 381 618 381 615 q 397 653 392 636 q 415 689 403 671 q 425 703 425 696 q 431 718 425 711 q 430 736 426 728 q 439 752 433 744 q 448 767 444 760 q 447 783 451 775 q 460 799 451 793 q 476 813 468 806 q 483 813 483 811 q 490 811 483 814 q 488 805 490 808 q 490 799 485 801 q 486 779 483 792 q 506 803 497 789 q 525 825 514 818 q 535 828 532 832 q 546 826 539 824 l 546 814 q 527 762 535 786 q 511 711 519 738 q 515 701 513 707 q 525 701 518 696 q 537 715 532 706 q 550 721 542 725 z "},"":{"ha":464,"x_min":210,"x_max":535,"o":"m 433 565 q 418 558 426 558 q 402 569 410 565 q 394 583 394 572 q 398 640 397 611 q 394 696 399 668 q 396 717 400 707 q 401 738 392 728 q 403 772 401 756 q 414 804 406 789 q 418 825 410 814 q 415 832 411 828 q 418 840 418 836 q 424 847 419 844 q 433 849 429 849 q 444 826 439 838 q 446 803 449 815 q 456 790 449 793 q 471 782 463 786 q 474 772 474 778 q 476 760 475 765 q 479 752 476 756 q 490 750 482 749 q 499 758 493 754 q 511 760 506 761 q 519 755 518 761 q 517 744 519 749 q 512 716 514 731 q 517 690 510 701 q 515 628 514 658 q 524 568 515 599 q 526 549 521 557 q 535 532 531 540 q 522 524 529 521 q 508 529 514 526 q 499 549 507 542 q 483 563 490 556 q 463 556 472 560 q 443 557 453 553 l 433 565 m 217 517 q 210 522 210 517 q 211 529 211 528 q 217 610 214 569 q 225 689 219 650 q 226 710 226 700 q 224 731 225 721 q 223 750 222 740 q 229 771 224 760 q 228 782 228 775 q 236 793 229 789 l 240 793 l 254 740 q 261 736 261 743 q 283 750 268 753 q 294 741 290 747 q 299 728 297 735 q 305 715 301 721 q 315 706 308 708 q 322 710 319 707 q 327 716 325 713 q 332 720 329 719 q 339 718 335 721 l 335 683 q 338 679 340 682 q 339 674 336 676 q 337 637 335 654 q 333 600 339 619 q 331 584 326 590 q 333 571 335 578 q 340 556 340 564 q 340 539 340 547 q 339 523 339 531 q 346 510 339 515 q 341 492 346 500 q 331 474 336 483 q 323 470 324 471 q 315 468 322 469 q 316 475 315 471 q 311 479 317 479 q 306 497 313 488 q 297 469 299 485 q 288 442 294 453 q 280 437 285 435 q 268 433 275 439 l 261 443 q 256 494 260 471 q 249 542 251 517 q 241 547 246 544 q 232 542 236 549 q 227 527 226 536 q 217 517 228 518 z "},"^":{"ha":532,"x_min":143,"x_max":629,"o":"m 515 739 q 549 659 535 700 q 592 585 564 618 q 611 551 604 569 q 629 518 618 533 q 618 513 625 513 q 610 518 615 517 q 600 521 606 519 q 590 525 594 522 q 585 535 586 528 q 572 546 581 542 q 551 549 564 550 q 546 546 549 549 q 539 542 543 543 q 523 567 533 556 q 496 581 513 578 q 485 568 486 578 q 485 553 483 558 q 492 532 493 544 q 475 544 478 533 q 464 565 472 556 q 453 579 456 568 q 442 596 450 590 q 424 638 436 619 q 401 676 413 656 l 399 676 q 314 601 357 640 q 239 518 271 563 q 235 510 238 514 q 228 507 232 506 q 215 492 218 501 q 204 479 213 482 q 210 510 201 493 q 221 543 218 528 q 215 549 219 549 q 207 547 211 549 q 200 544 203 544 q 197 551 197 544 q 202 568 200 558 q 199 585 204 578 q 176 583 188 588 q 154 572 165 578 q 147 573 151 575 q 146 576 143 571 q 154 584 149 583 q 164 589 160 585 q 203 639 181 615 q 251 686 226 663 q 298 733 275 710 q 336 785 321 757 q 360 794 346 796 q 390 800 375 793 q 417 797 404 807 q 435 799 425 796 q 453 804 444 801 q 469 806 461 807 q 481 796 476 806 q 496 767 488 781 q 515 739 504 754 z "},"|":{"ha":253,"x_min":65,"x_max":344,"o":"m 258 853 q 260 830 256 839 q 258 807 264 821 l 264 800 q 275 812 271 806 q 286 817 279 818 q 293 794 293 808 q 300 771 293 779 q 297 758 294 764 q 301 746 300 753 q 323 769 317 753 q 331 800 329 785 q 340 808 332 806 q 344 797 344 804 q 340 781 343 789 q 335 764 338 772 q 335 747 333 756 q 328 709 328 728 q 321 671 329 690 q 315 638 319 654 q 308 604 311 622 q 283 441 292 522 q 253 276 274 360 q 243 239 250 257 q 233 203 236 221 q 230 178 231 190 q 233 154 229 165 q 221 77 222 113 q 208 1 219 42 q 203 -33 206 -17 q 197 -67 201 -50 q 185 -107 193 -87 q 185 -130 182 -119 q 185 -151 188 -140 q 175 -151 181 -153 q 171 -126 168 -140 q 172 -99 174 -112 q 169 -92 172 -94 q 164 -87 167 -89 q 160 -82 161 -85 q 163 -74 160 -79 q 156 -69 160 -72 q 144 -74 151 -67 q 133 -91 138 -81 q 118 -104 129 -101 q 118 -81 115 -93 q 115 -57 121 -68 q 106 -67 108 -60 q 96 -71 104 -75 q 96 -64 94 -68 q 94 -57 97 -60 q 83 -82 88 -71 q 72 -104 79 -93 q 66 -88 65 -97 q 69 -70 67 -79 q 74 -51 72 -61 q 75 -33 76 -42 q 91 50 88 11 q 103 133 94 89 q 107 147 106 140 q 104 161 108 154 q 113 201 114 183 q 124 238 111 219 q 128 285 121 263 q 136 333 136 308 q 146 355 144 343 q 147 378 147 367 q 148 400 147 389 q 156 422 149 411 q 157 450 150 438 q 161 478 164 463 q 169 524 164 501 q 174 549 172 536 q 179 575 176 563 q 189 635 186 603 q 195 651 194 643 q 195 667 196 658 q 194 683 194 675 q 201 699 194 690 q 202 722 203 710 q 211 744 201 733 q 216 791 208 765 q 231 840 224 817 q 231 856 233 849 q 240 871 229 864 q 236 884 238 878 q 242 897 235 890 q 245 899 244 901 q 249 899 246 897 q 251 886 251 893 q 249 872 250 879 q 250 860 249 865 q 258 853 251 854 z "},"/":{"ha":379,"x_min":44,"x_max":499,"o":"m 419 797 q 437 778 428 789 q 450 756 446 767 q 456 749 451 749 q 465 754 461 750 q 478 775 472 764 q 492 793 483 786 q 497 785 499 792 q 493 771 494 778 q 496 747 496 760 q 493 724 496 735 q 486 703 490 713 q 472 683 482 693 q 456 653 468 667 q 447 625 444 640 q 415 557 431 590 q 381 489 400 524 q 374 459 381 474 q 354 433 368 444 q 331 367 351 401 q 299 300 310 332 q 268 238 282 268 q 239 176 254 208 q 208 108 229 140 q 176 43 186 75 q 165 -7 161 19 q 175 -54 168 -33 q 174 -60 174 -57 q 171 -64 174 -62 q 148 -47 157 -57 q 128 -29 139 -36 l 108 -3 q 98 -25 99 -12 q 89 -47 97 -37 q 83 -39 83 -44 q 82 -26 82 -33 q 81 -12 82 -19 q 75 -1 79 -6 q 72 22 72 10 q 69 42 72 33 q 63 38 65 42 q 58 30 60 33 q 53 24 56 26 q 44 25 50 22 q 60 77 49 51 q 85 128 72 103 q 111 178 99 153 q 132 232 124 204 q 158 279 143 256 q 168 328 172 303 q 194 363 186 344 q 207 399 201 381 q 220 438 213 418 q 244 474 228 457 q 265 528 250 500 q 297 581 279 556 q 308 619 300 599 q 336 654 315 640 l 357 715 q 353 722 356 719 q 354 731 350 725 q 372 733 363 733 q 388 740 381 733 q 388 776 388 760 q 371 806 389 793 q 373 811 371 810 q 378 815 375 813 q 398 806 389 813 q 419 797 407 800 z "},"\\":{"ha":382,"x_min":144,"x_max":383,"o":"m 329 -24 q 301 -17 315 -21 q 278 -6 286 -12 q 269 -3 274 -1 q 261 -11 264 -6 q 259 -33 260 -22 q 254 -54 258 -44 q 246 -50 247 -57 q 242 -37 244 -43 q 218 -3 226 -22 q 219 40 210 17 q 219 71 215 56 q 214 97 224 86 q 212 166 213 132 q 214 236 211 200 q 206 262 206 247 q 213 292 206 276 q 204 321 206 304 q 203 355 203 338 q 203 390 203 372 q 200 422 204 407 q 201 484 203 454 q 199 546 200 514 q 197 615 192 578 q 194 681 201 651 q 181 725 197 707 q 147 757 165 743 q 147 762 150 760 q 149 767 144 764 q 178 763 164 768 q 207 760 193 758 l 239 749 q 238 770 243 760 q 236 793 232 781 q 247 789 243 793 q 254 779 251 785 q 261 769 257 774 q 272 764 265 765 q 286 747 281 757 q 300 733 292 738 q 304 739 304 735 q 304 747 304 743 q 306 753 304 751 q 314 756 307 756 q 324 708 322 733 q 326 657 326 683 q 325 605 325 631 q 331 554 325 579 q 329 506 331 531 q 343 463 328 481 q 335 423 333 442 q 340 387 336 404 q 345 351 343 369 q 339 313 347 333 q 345 260 346 289 q 340 203 344 231 q 350 168 347 188 q 339 128 353 149 l 349 69 q 356 66 351 67 q 358 60 361 65 q 342 49 351 53 q 331 36 333 44 q 348 8 340 21 q 379 -7 356 -6 q 376 -18 383 -11 q 352 -20 364 -21 q 329 -24 340 -19 z "},"%":{"ha":724,"x_min":156,"x_max":731,"o":"m 611 810 q 636 733 636 776 q 656 746 647 736 q 672 763 664 756 q 677 754 676 760 q 678 743 678 749 q 678 733 678 738 q 682 724 679 728 q 664 696 671 711 q 651 665 657 681 q 638 635 644 650 q 618 606 631 619 q 586 539 614 568 q 554 467 568 503 q 525 394 540 431 q 517 387 522 389 q 514 379 511 385 q 542 394 529 386 q 572 408 554 403 q 594 421 583 419 q 613 419 604 422 q 633 413 622 417 q 654 410 643 408 q 669 397 660 400 q 690 392 679 394 q 709 387 700 390 q 721 371 718 383 q 728 349 726 361 q 728 325 729 338 q 728 299 728 313 q 731 275 728 286 q 722 235 724 253 q 717 197 721 218 q 708 174 710 186 q 706 150 707 163 q 700 125 704 138 q 686 101 696 113 l 667 54 q 631 24 646 38 q 594 -6 615 10 q 563 -15 581 -10 q 536 -10 546 -19 q 494 -10 517 -12 q 457 0 472 -7 q 440 22 447 11 q 415 36 432 33 q 413 66 413 50 q 408 96 413 82 q 410 122 417 111 q 417 139 414 129 q 417 157 419 149 l 413 157 q 385 106 393 133 q 357 56 376 79 q 350 28 354 40 q 339 1 346 17 l 335 -69 q 318 -62 324 -72 q 306 -44 313 -51 l 292 -17 q 282 -23 285 -18 q 276 -33 279 -28 q 270 -41 274 -37 q 261 -43 267 -44 q 258 13 253 -14 q 269 68 263 39 q 256 58 263 65 q 242 53 249 51 q 261 106 250 78 q 283 160 272 133 q 315 236 301 196 q 347 310 329 276 q 349 327 344 319 q 360 342 354 335 q 372 358 367 350 q 375 374 376 365 q 337 372 354 372 q 301 356 319 371 q 267 362 281 351 q 233 372 253 372 q 219 379 229 383 q 203 383 208 375 q 194 393 203 392 q 179 397 185 394 q 159 438 160 413 q 156 489 158 463 q 164 526 158 506 q 167 561 169 546 q 180 600 168 579 q 186 640 192 621 q 210 682 192 663 q 243 722 229 701 q 269 741 256 735 q 296 751 282 747 q 324 757 310 754 q 353 765 338 760 q 392 758 369 760 q 435 750 415 756 q 468 731 454 744 q 481 692 482 718 q 472 669 474 681 q 471 644 471 657 q 470 620 471 632 q 464 596 469 608 q 466 581 464 589 q 467 565 468 574 q 495 624 483 593 q 525 683 507 654 q 538 719 528 703 q 554 754 547 736 q 550 761 553 758 q 550 771 547 764 l 571 775 q 580 804 578 790 q 578 833 582 818 l 582 840 q 603 829 592 833 q 611 810 615 825 m 332 629 q 319 624 326 625 q 310 615 313 622 q 299 583 308 600 q 297 553 290 567 q 289 518 289 536 q 300 489 289 500 q 313 488 307 488 q 325 492 318 489 q 340 514 336 500 q 346 539 343 528 q 350 583 350 558 q 338 621 350 607 q 332 629 338 629 m 589 288 q 565 261 568 281 q 556 225 561 242 q 551 204 554 214 q 547 186 547 194 q 545 172 540 179 q 544 157 550 165 q 540 144 538 147 q 548 140 542 140 q 560 137 554 139 q 567 129 567 135 l 579 135 q 588 149 590 140 q 592 167 586 158 q 604 197 606 182 q 608 229 603 213 q 614 243 614 236 q 613 256 614 250 q 611 269 611 263 q 617 282 611 275 q 608 279 611 278 q 603 283 606 281 q 597 288 600 286 q 589 288 593 290 z "},"!":{"ha":274,"x_min":72,"x_max":349,"o":"m 164 444 q 172 483 167 463 q 181 522 176 503 q 188 560 185 542 q 190 597 190 579 q 197 624 197 611 q 201 650 197 638 q 206 664 207 658 q 206 678 206 669 q 193 688 201 683 q 192 703 185 693 q 208 707 199 706 q 224 714 217 708 q 225 771 222 740 q 217 825 228 801 q 233 822 226 829 q 249 813 239 815 q 272 782 263 800 q 293 750 282 764 l 303 724 q 312 734 308 728 q 317 747 315 740 q 323 758 319 753 q 333 763 326 763 q 342 733 335 747 q 338 700 349 718 q 339 694 338 694 l 342 694 q 328 649 335 671 q 318 604 322 626 q 311 546 311 572 q 301 500 304 522 q 294 454 297 478 q 276 368 289 410 q 254 283 264 326 q 246 226 249 257 q 240 223 243 219 q 233 224 236 226 q 230 197 231 210 q 222 172 229 183 q 203 188 210 176 q 194 213 197 200 q 184 212 190 215 q 172 210 178 208 q 163 243 163 224 q 158 278 164 263 q 151 267 154 274 q 140 263 147 260 l 154 385 q 158 414 160 399 q 164 444 157 429 m 221 117 q 214 72 218 94 q 208 26 210 49 q 208 -19 206 3 q 219 -58 210 -40 q 207 -60 211 -68 q 197 -51 203 -53 q 175 -37 185 -46 q 156 -21 165 -29 q 150 -24 153 -21 q 145 -31 147 -28 q 141 -34 143 -33 q 136 -32 139 -35 q 115 -14 121 -26 q 100 7 110 -1 q 85 -4 90 6 q 74 -12 81 -14 l 75 18 l 78 17 q 78 35 72 24 q 78 54 83 46 q 96 110 85 81 q 110 167 107 140 q 121 172 115 175 q 128 158 128 167 q 135 147 128 150 q 135 131 132 139 q 144 117 139 124 q 151 124 149 118 q 157 133 154 129 q 163 139 160 138 q 174 136 167 140 q 180 125 171 125 q 192 118 189 125 q 206 117 200 119 q 221 117 213 114 z "},"?":{"ha":442,"x_min":157,"x_max":525,"o":"m 518 560 q 509 533 519 544 q 493 508 499 522 q 470 460 483 485 q 429 425 457 435 q 403 400 414 414 q 376 381 392 386 q 360 363 364 374 q 353 342 356 353 q 350 319 351 331 q 344 300 349 308 q 337 266 342 283 q 328 233 332 249 q 324 195 332 215 q 314 156 317 175 q 306 153 307 151 q 305 160 304 156 q 306 169 306 164 q 303 176 307 174 l 288 214 l 243 217 l 231 250 q 222 247 225 250 q 217 239 219 243 q 213 232 215 235 q 204 233 210 229 q 203 253 203 243 q 210 275 203 264 l 207 278 q 214 316 217 299 q 225 354 211 333 q 232 384 226 368 q 253 410 238 400 q 274 448 254 435 q 308 481 293 461 q 333 499 322 488 q 354 518 343 511 q 365 534 363 526 q 367 550 367 542 q 369 567 368 558 q 374 585 369 576 q 376 617 372 600 q 368 643 381 635 q 365 651 369 649 q 357 654 360 653 q 329 644 342 657 q 307 621 317 631 q 298 592 304 608 q 293 561 292 576 q 282 547 289 551 q 268 540 275 543 q 256 533 261 538 q 249 517 250 528 q 240 513 243 510 q 235 517 238 517 q 227 526 228 519 q 219 535 226 532 q 194 514 207 519 q 178 493 186 503 q 167 468 169 483 l 160 468 q 158 500 157 483 q 163 533 160 517 q 172 568 167 551 q 182 603 176 585 q 188 646 176 625 q 207 688 200 667 q 225 706 217 694 q 242 728 233 718 q 263 747 251 739 q 289 754 274 754 q 326 778 304 775 q 365 788 347 781 q 404 782 385 783 q 443 781 424 781 q 473 767 460 775 q 500 751 486 758 q 508 734 506 743 q 511 715 510 725 q 514 697 513 706 q 521 679 515 688 q 521 619 525 651 q 518 560 517 588 m 299 99 q 295 51 296 75 q 285 3 294 26 q 288 -26 288 -10 q 293 -56 289 -42 q 288 -64 292 -60 q 281 -64 285 -68 q 248 -48 261 -58 q 228 -18 235 -37 q 215 -22 221 -14 q 200 -28 208 -29 q 193 -6 200 -15 q 179 15 186 4 q 169 14 172 21 q 160 11 165 7 q 159 62 160 36 q 174 115 158 88 q 174 141 176 126 q 186 163 171 156 q 194 155 193 161 q 201 143 196 149 q 218 128 214 138 q 233 111 222 119 q 241 121 239 114 q 251 128 243 128 q 276 92 269 114 q 288 100 282 94 q 299 99 293 106 z "},"&":{"ha":526,"x_min":74,"x_max":617,"o":"m 461 779 q 484 761 472 768 q 499 738 496 754 q 517 722 514 735 q 526 700 519 710 l 532 706 q 533 692 529 697 q 535 679 536 686 q 538 656 539 668 q 535 631 538 643 q 539 623 540 628 q 533 615 538 618 q 524 620 526 614 q 517 628 522 626 q 502 624 508 625 q 490 615 496 622 q 483 592 483 604 q 471 574 482 581 q 451 588 456 576 q 420 556 431 575 q 399 519 410 538 l 389 519 q 393 528 389 524 q 390 536 397 533 q 397 593 396 564 q 390 644 399 622 q 372 655 383 656 q 353 657 361 654 q 322 625 336 643 q 311 585 308 607 q 305 549 307 569 q 306 513 303 529 q 328 485 314 497 q 361 479 342 472 q 401 474 381 471 q 443 478 422 478 q 479 469 460 478 l 572 476 q 579 467 574 468 q 592 469 585 467 q 606 471 599 471 q 617 464 613 471 q 608 455 615 456 q 596 449 600 454 q 563 424 578 438 q 533 401 549 411 q 538 394 533 397 q 547 388 543 390 q 553 381 551 385 q 547 371 554 376 q 511 329 521 354 q 497 331 504 331 q 482 328 489 331 q 470 303 474 317 q 469 279 467 290 q 463 242 468 261 q 454 204 458 224 q 449 183 451 193 q 449 161 447 172 q 435 132 442 147 q 435 101 429 117 q 420 78 428 90 q 410 51 413 65 q 393 38 399 46 q 384 22 388 31 q 375 7 381 14 q 358 -4 369 0 q 338 -19 350 -15 q 313 -24 325 -22 q 287 -29 300 -26 q 264 -40 274 -32 q 244 -37 253 -40 q 222 -40 236 -33 q 169 -36 194 -39 q 132 -12 144 -33 q 115 -3 121 -11 q 106 13 110 4 q 97 31 101 22 q 82 43 92 39 l 74 65 q 84 106 86 85 q 89 149 82 128 q 90 156 85 150 q 93 167 94 161 q 106 240 106 200 q 114 267 108 256 q 114 293 119 279 q 136 339 125 317 q 167 382 147 361 q 172 394 165 389 q 184 406 178 400 q 194 417 190 411 q 193 431 197 422 q 174 457 186 446 q 161 483 163 468 q 165 529 161 507 q 172 575 168 551 q 181 606 176 590 q 188 638 185 622 q 199 655 193 646 q 207 675 204 664 q 202 683 203 678 q 200 693 201 689 q 222 709 208 704 q 235 729 235 714 q 255 740 244 735 q 272 757 265 746 q 294 765 283 763 q 314 768 304 767 q 333 772 324 769 q 354 783 343 775 q 368 785 361 782 q 381 792 375 789 q 394 794 388 794 q 404 786 400 794 q 432 782 418 779 q 461 779 446 785 m 278 344 q 260 322 265 335 q 254 294 256 308 q 246 262 247 279 q 238 231 244 244 q 233 175 240 204 q 228 119 225 146 q 235 106 232 113 q 246 97 238 100 q 266 95 254 94 q 286 101 278 96 q 297 133 299 119 q 313 178 304 153 q 321 224 322 204 q 326 243 326 233 q 326 263 326 253 q 334 302 332 282 q 329 339 336 322 q 319 347 325 346 q 306 345 313 347 q 292 342 299 343 q 278 344 285 340 z "},"~":{"ha":589,"x_min":140,"x_max":640,"o":"m 631 511 q 603 465 615 488 q 568 422 590 442 l 569 419 q 583 422 576 421 q 596 417 590 422 q 589 402 593 410 q 581 387 585 394 q 576 372 576 379 q 579 360 575 365 q 543 327 568 335 q 497 311 518 319 q 457 310 478 313 q 421 319 436 308 l 414 313 q 403 319 411 319 q 389 325 394 319 q 361 344 378 336 q 332 361 344 351 q 290 364 313 369 q 249 343 268 358 q 229 324 238 338 q 210 313 221 311 q 181 258 190 290 q 174 258 176 254 q 175 268 176 264 q 171 275 174 272 q 166 281 168 278 q 165 289 164 285 l 178 342 q 174 346 176 346 q 167 344 171 346 q 160 342 164 343 q 154 343 157 340 q 166 369 158 357 q 174 396 174 382 q 168 393 171 396 q 163 394 165 390 q 157 396 160 397 q 151 392 154 394 q 146 390 149 390 q 140 393 143 389 q 153 410 149 400 q 165 428 157 419 q 214 467 190 447 q 268 494 238 488 q 301 515 283 507 q 335 517 318 522 q 354 511 344 515 q 372 503 364 507 q 389 495 381 499 q 407 493 397 492 q 432 467 422 483 q 465 453 442 450 q 488 452 476 454 q 509 450 499 450 q 530 453 519 450 q 550 468 540 456 q 588 488 569 475 q 617 521 606 501 q 631 524 622 528 q 631 511 640 521 z "},"*":{"ha":621,"x_min":150,"x_max":693,"o":"m 556 740 q 562 717 558 729 q 558 692 565 706 q 565 690 561 686 q 572 694 568 694 q 585 705 578 700 q 592 719 592 710 q 600 721 594 722 q 604 713 606 719 q 607 694 607 703 q 610 676 607 686 q 588 637 599 656 q 567 596 578 618 q 574 588 568 589 q 588 587 581 586 q 602 589 594 588 q 615 590 610 590 q 643 585 631 583 q 674 586 656 588 q 690 588 683 594 q 693 583 693 586 q 692 578 693 581 q 665 559 674 572 q 646 535 657 546 q 626 522 636 528 q 606 510 617 517 q 617 498 610 503 q 625 483 625 493 q 616 474 622 476 q 610 463 610 471 q 569 451 590 456 q 528 444 549 447 q 532 419 526 431 q 544 398 538 408 q 558 376 551 388 q 564 350 564 364 q 568 331 561 339 q 578 313 575 322 q 589 292 579 299 q 599 269 599 285 l 590 267 q 560 276 576 272 q 538 289 544 279 q 528 292 532 289 q 519 299 524 296 q 508 302 514 301 q 497 297 503 303 q 483 297 489 294 q 474 305 478 300 q 467 316 471 310 q 458 326 464 322 q 450 322 453 326 q 445 315 447 318 q 441 310 443 311 q 435 313 439 308 q 437 319 435 314 q 433 324 439 325 l 413 375 l 408 375 q 364 326 382 353 q 322 276 346 300 q 310 249 321 261 q 296 221 300 236 q 290 219 292 221 q 286 213 288 217 q 283 208 285 210 q 276 207 281 206 q 272 228 274 218 q 269 254 271 239 q 273 259 276 257 q 274 264 269 261 q 278 276 275 269 q 274 282 281 282 q 269 289 271 288 q 259 286 265 289 q 250 289 253 283 q 254 314 247 303 q 258 339 261 325 q 244 342 254 343 q 231 350 233 342 q 275 392 254 368 q 315 439 296 415 q 283 441 300 442 q 251 440 267 440 q 224 442 238 440 q 200 450 211 443 q 175 448 189 453 q 150 446 161 443 q 157 456 151 453 q 169 463 163 460 q 181 472 175 467 q 190 485 188 476 q 204 494 203 488 q 206 507 206 500 q 208 519 206 514 q 224 525 210 525 q 233 528 228 528 q 244 532 239 529 q 238 540 236 532 q 240 554 240 549 l 244 557 q 233 564 242 561 q 228 575 225 567 q 258 582 243 578 q 289 583 274 586 l 315 585 q 303 618 311 601 q 288 651 294 635 q 275 662 283 658 q 272 676 267 665 q 281 681 275 681 q 289 689 288 682 q 258 725 275 707 q 231 763 242 743 q 251 766 239 768 q 269 761 263 764 q 319 740 293 747 q 361 714 344 733 q 369 719 368 715 q 372 726 371 722 q 374 734 372 731 q 382 739 375 738 q 410 716 394 728 q 422 683 425 704 q 433 663 433 676 q 439 639 432 650 q 452 651 447 643 q 461 667 457 658 q 472 681 465 675 q 489 690 478 688 q 499 710 492 701 q 515 725 507 719 q 529 772 536 746 q 535 776 532 778 q 540 775 538 775 l 556 740 z "},"(":{"ha":358,"x_min":107,"x_max":417,"o":"m 414 869 q 384 822 399 847 q 372 774 369 797 q 390 782 381 778 q 407 783 399 786 q 402 766 400 774 q 408 751 404 758 q 415 738 413 744 q 408 724 417 732 q 394 707 397 717 q 386 689 392 697 q 356 636 371 661 q 331 583 342 611 q 308 556 315 572 q 306 525 301 540 q 285 479 290 501 q 274 433 279 457 q 269 413 271 422 q 261 392 267 403 q 253 304 258 349 q 244 215 249 260 q 255 133 253 174 q 268 51 257 92 q 266 28 263 38 q 275 8 269 18 q 284 -11 281 -1 q 282 -33 288 -21 q 308 -82 294 -58 q 340 -128 322 -106 q 333 -142 343 -137 q 312 -139 321 -143 q 294 -128 303 -135 q 278 -116 286 -122 q 263 -107 271 -110 l 253 -97 q 248 -109 250 -103 q 239 -118 246 -115 q 225 -109 233 -112 q 208 -101 217 -106 q 193 -91 200 -97 q 186 -74 186 -85 q 182 -78 183 -75 q 178 -84 181 -81 q 174 -88 176 -87 q 167 -86 171 -89 q 161 -71 165 -78 q 153 -57 157 -64 q 146 -42 149 -50 q 146 -22 143 -33 q 125 38 129 6 q 110 101 121 71 q 112 124 111 113 q 118 146 113 135 q 114 194 121 171 q 118 242 107 217 q 113 283 107 261 q 118 325 119 304 q 133 373 129 347 q 150 422 138 399 q 150 472 143 447 q 165 518 154 496 q 188 563 176 540 q 194 587 188 576 q 210 608 201 597 q 226 628 219 618 q 233 654 233 639 q 260 695 253 672 q 283 736 268 718 q 288 753 290 744 q 292 769 285 763 q 313 783 301 779 q 326 801 324 788 q 347 825 336 815 q 365 849 358 835 q 374 853 371 850 q 381 860 378 857 q 386 865 383 864 q 393 863 389 867 q 399 873 394 869 q 410 881 404 876 q 416 877 415 882 q 414 869 417 872 z "},")":{"ha":379,"x_min":118,"x_max":428,"o":"m 122 -131 q 151 -82 136 -107 q 163 -33 165 -57 q 146 -42 156 -37 q 128 -44 136 -47 q 133 -27 135 -35 q 126 -12 131 -19 q 120 1 122 -6 q 126 17 118 8 q 141 33 138 24 q 149 51 144 43 q 179 104 164 79 q 206 157 194 129 q 226 184 219 168 q 229 215 233 200 q 251 260 244 238 q 261 307 257 283 q 267 328 264 318 q 274 349 269 338 q 283 436 278 392 q 290 525 288 481 q 280 608 282 567 q 267 689 278 649 q 269 713 272 703 q 260 731 265 722 q 251 750 254 740 q 253 774 247 760 q 226 822 240 797 q 194 868 213 846 q 203 881 192 876 q 223 878 214 882 q 240 868 232 874 q 256 856 249 863 q 272 847 264 850 l 282 836 q 288 848 286 842 q 296 857 289 854 q 310 848 301 851 q 328 840 319 844 q 342 830 336 836 q 349 813 349 824 q 353 817 351 814 q 356 824 354 821 q 361 828 358 826 q 368 826 364 829 q 374 811 369 818 q 382 797 378 804 q 389 781 386 789 q 389 761 392 772 q 410 701 406 733 q 425 638 414 669 q 423 617 424 628 q 417 594 422 606 q 421 546 414 568 q 417 497 428 524 q 423 478 422 489 q 422 458 424 468 q 419 436 421 447 q 417 415 417 425 q 401 366 406 392 q 385 317 397 340 q 388 292 389 306 q 385 267 388 279 q 369 221 381 243 q 347 176 358 199 q 340 152 347 163 q 325 132 333 142 q 310 111 317 122 q 303 86 303 100 q 275 45 283 68 q 251 3 267 22 q 248 -13 244 -4 q 244 -31 251 -22 q 222 -43 233 -39 q 208 -62 211 -47 q 188 -85 199 -76 q 169 -110 176 -94 q 160 -114 164 -110 q 154 -122 157 -118 q 149 -126 151 -125 q 142 -122 146 -126 q 135 -133 140 -129 q 125 -142 131 -137 q 119 -137 119 -142 q 122 -131 118 -133 z "},"[":{"ha":364,"x_min":56,"x_max":519,"o":"m 519 903 q 508 897 514 896 q 496 892 501 897 q 462 874 481 881 q 431 847 443 867 l 443 832 q 449 831 444 835 l 447 824 l 417 815 q 417 806 415 811 q 420 797 419 801 q 419 789 421 793 q 410 783 418 785 l 360 779 q 342 742 349 761 q 336 706 335 724 q 333 683 336 694 q 326 658 329 671 q 320 634 322 646 q 321 611 318 622 q 313 586 315 599 q 307 560 310 574 q 292 472 297 515 q 276 386 288 428 q 270 351 274 368 q 263 319 267 335 q 257 288 260 304 q 253 254 254 272 q 242 232 244 243 q 240 209 240 221 q 237 185 239 197 q 228 163 235 174 q 220 106 222 135 q 211 50 218 78 q 238 49 222 46 q 265 51 253 53 q 290 49 279 53 q 314 51 301 44 q 331 49 322 49 q 347 44 340 49 q 329 30 344 33 q 303 19 314 26 q 278 3 292 7 q 254 -15 265 -1 q 259 -28 251 -24 q 269 -37 267 -33 q 274 -35 272 -35 q 276 -39 276 -36 q 272 -45 275 -43 q 265 -49 268 -47 q 260 -54 261 -51 q 261 -61 258 -57 q 265 -68 264 -64 q 260 -75 267 -72 q 253 -74 256 -74 q 250 -69 251 -75 q 240 -77 247 -78 q 226 -79 233 -76 q 190 -82 210 -85 q 150 -92 169 -79 q 136 -83 142 -93 q 119 -83 128 -81 q 101 -88 110 -85 q 83 -93 92 -92 q 67 -90 75 -94 q 61 -91 64 -92 q 56 -92 58 -90 q 63 -81 57 -85 q 74 -78 69 -78 q 78 -56 78 -67 q 78 -33 78 -44 q 81 -10 79 -22 q 90 14 83 1 q 104 99 94 57 q 118 185 114 140 q 128 227 125 204 q 126 268 132 250 q 133 326 121 296 q 157 386 146 357 q 168 451 160 418 q 174 513 176 483 q 181 549 176 532 q 189 585 185 567 q 190 633 196 611 q 202 661 197 647 q 210 690 207 675 q 217 732 214 711 q 225 772 221 753 q 228 785 233 779 q 225 799 222 792 q 233 823 228 810 q 240 850 238 836 q 244 872 243 861 q 242 893 244 882 q 244 906 243 900 q 253 918 246 913 l 258 914 q 296 913 278 914 q 333 919 314 913 q 378 914 354 914 q 405 915 392 914 q 429 917 418 915 q 462 917 444 914 q 496 921 479 919 q 511 917 507 924 q 519 903 515 910 z "},"]":{"ha":350,"x_min":7,"x_max":471,"o":"m 7 -101 q 18 -95 11 -94 q 31 -90 25 -96 q 65 -72 46 -79 q 96 -46 85 -65 l 83 -31 q 79 -29 82 -32 l 81 -22 l 108 -14 q 108 -5 110 -10 q 106 4 107 0 q 107 13 106 8 q 115 18 108 17 l 168 22 q 185 59 179 40 q 189 96 192 78 q 201 142 190 117 q 206 190 211 168 q 213 217 210 204 q 219 244 217 231 q 234 331 229 288 q 250 415 239 375 q 256 449 253 433 q 263 481 260 465 q 269 513 265 496 q 274 547 272 529 q 284 569 282 557 q 287 592 286 581 q 289 616 288 604 q 297 639 290 628 q 306 695 304 667 q 315 751 308 724 q 288 752 303 756 q 261 750 274 749 q 237 753 249 749 q 211 750 225 757 q 195 753 204 753 q 178 757 186 753 q 197 772 182 768 q 222 782 211 775 q 248 799 233 794 q 271 817 263 803 q 267 830 274 825 q 258 839 261 835 q 250 840 253 835 q 262 851 253 847 q 264 863 271 854 q 261 869 264 865 q 267 876 258 874 q 273 876 269 875 q 276 871 276 876 q 285 878 278 879 q 299 881 293 878 q 337 883 317 886 q 375 893 357 881 q 392 885 385 894 q 409 884 400 882 q 426 890 418 886 q 444 894 435 893 q 461 892 453 896 q 465 892 464 893 q 469 893 467 892 q 464 883 471 886 q 454 879 457 879 q 449 857 450 868 q 448 835 449 846 q 445 812 447 824 q 436 788 443 800 q 423 703 432 744 q 408 617 414 661 q 399 574 403 597 q 400 533 394 551 q 392 475 404 506 q 371 415 381 444 q 365 382 369 399 q 358 350 361 365 q 353 319 356 335 q 353 289 351 304 q 347 252 351 269 q 339 218 342 235 q 336 168 332 192 q 315 108 321 139 q 308 69 311 89 q 303 29 306 49 q 298 16 293 22 q 301 3 303 10 q 294 -21 299 -8 q 288 -47 290 -33 q 285 -92 283 -72 q 282 -105 282 -99 q 275 -117 282 -111 l 267 -112 q 230 -112 247 -112 q 193 -118 213 -111 q 149 -112 175 -112 q 122 -113 135 -112 q 97 -115 110 -114 q 65 -115 82 -112 q 31 -119 47 -118 q 15 -115 19 -122 q 7 -101 11 -108 z "},"<":{"ha":469,"x_min":119,"x_max":517,"o":"m 494 879 q 479 849 490 863 q 465 819 468 835 q 476 822 471 818 q 487 831 482 826 q 497 838 492 835 q 507 836 501 840 q 514 822 515 829 q 508 807 513 815 q 499 790 503 799 q 500 775 494 782 q 511 774 506 774 q 515 764 517 774 q 498 731 510 747 q 472 698 486 714 q 444 665 458 682 q 418 631 429 649 q 389 590 410 608 q 363 549 368 572 q 317 494 338 521 q 278 436 296 468 q 283 398 275 414 q 296 363 292 382 q 308 337 300 347 q 324 314 315 326 q 334 281 326 297 q 350 250 342 265 q 366 219 358 235 q 378 186 374 203 q 419 108 400 149 q 465 35 438 67 q 463 26 465 31 q 456 19 461 21 q 447 24 453 26 q 438 29 440 21 q 435 37 439 33 q 428 43 431 40 q 410 42 417 39 q 397 50 403 44 q 384 61 390 56 q 369 67 378 67 q 365 56 364 63 q 358 50 367 49 q 328 70 339 57 q 300 94 317 83 q 294 80 296 89 q 286 67 293 71 q 278 76 278 67 q 268 86 278 86 q 245 160 263 125 q 211 231 228 196 q 178 289 192 258 q 153 350 164 319 q 138 368 146 358 q 136 393 129 378 q 126 408 133 404 q 122 424 119 411 q 147 460 128 446 q 176 494 165 475 q 192 515 186 504 q 202 537 197 526 q 214 558 207 547 q 235 575 221 568 q 267 617 249 597 q 300 658 286 638 q 326 694 315 675 q 356 728 336 714 q 382 765 368 749 q 408 800 396 781 q 429 819 421 808 q 444 842 438 831 q 458 866 451 854 q 475 889 464 878 q 485 885 479 885 q 494 879 492 886 z "},">":{"ha":467,"x_min":135,"x_max":532,"o":"m 157 -22 q 172 7 161 -7 q 186 36 182 21 q 175 33 181 38 q 164 25 169 29 q 153 19 158 21 q 144 21 149 17 q 137 34 135 26 q 144 49 139 42 q 152 65 149 57 q 150 81 156 74 q 140 83 146 83 q 136 93 135 83 q 179 158 147 126 q 233 226 211 190 q 263 267 243 249 q 289 308 282 285 q 333 362 313 336 q 372 419 354 388 q 367 459 375 443 q 354 494 358 475 q 344 520 351 510 q 329 543 336 531 q 301 606 322 578 q 274 669 281 635 q 233 749 251 707 q 185 822 214 790 q 188 831 186 826 q 193 836 190 835 q 205 833 199 829 q 213 828 211 836 q 217 819 213 822 q 224 814 221 817 q 240 815 233 818 q 253 807 247 813 q 266 796 260 801 q 281 789 272 790 q 285 800 286 793 q 293 807 285 807 q 324 787 313 800 q 351 763 335 774 q 356 776 354 768 q 364 790 357 785 q 370 787 368 790 q 373 780 372 783 q 376 774 374 776 q 383 771 378 771 q 406 696 390 732 q 439 626 422 660 q 473 568 458 599 q 499 506 488 538 q 513 488 504 497 q 514 464 521 479 q 524 449 517 453 q 529 432 532 446 q 505 396 524 411 q 475 361 486 381 q 460 341 465 351 q 450 319 456 331 q 438 299 444 308 q 417 282 431 289 q 383 240 401 260 q 351 197 365 219 q 325 162 336 181 q 294 128 314 143 q 269 92 283 108 q 242 56 256 76 q 207 14 218 39 q 176 -32 196 -11 q 166 -30 172 -29 q 157 -22 160 -31 z "},"{":{"ha":396,"x_min":113,"x_max":563,"o":"m 563 888 q 554 878 560 881 q 546 868 549 875 q 513 851 529 861 q 482 828 497 840 l 493 813 l 472 796 q 495 780 481 785 q 521 768 510 775 l 522 765 q 515 761 519 763 q 503 757 510 760 q 460 758 483 760 q 421 738 438 756 q 405 713 414 726 q 388 690 396 700 q 383 667 386 679 q 371 640 379 654 q 374 601 367 619 q 375 560 382 582 q 385 511 389 538 q 368 463 382 485 q 353 445 357 454 q 345 428 349 436 q 336 411 342 419 q 318 397 331 403 q 338 375 328 388 q 353 349 349 363 q 352 331 350 339 q 356 314 354 322 q 354 297 357 306 q 340 281 351 289 q 319 233 331 258 q 293 189 308 208 q 287 171 292 179 q 276 154 282 163 q 267 137 271 146 q 267 118 264 128 q 258 104 263 111 q 257 89 254 97 q 263 67 261 78 q 279 51 265 57 q 306 35 292 40 q 335 25 319 31 l 339 18 q 324 10 332 8 q 308 6 317 13 q 322 -5 314 -3 q 336 -14 331 -7 q 326 -24 332 -19 q 313 -33 319 -29 q 339 -53 325 -44 q 363 -72 353 -61 q 363 -79 364 -76 q 358 -86 363 -82 q 325 -97 340 -94 q 295 -98 310 -99 q 265 -97 281 -97 q 231 -100 249 -96 q 195 -92 211 -101 q 163 -75 179 -82 q 136 -18 140 -50 q 116 6 119 -11 q 117 40 113 24 q 127 100 117 69 q 142 160 138 131 q 151 177 149 167 q 157 196 153 188 q 188 238 182 215 q 210 283 193 261 q 209 305 208 293 q 196 318 210 317 q 169 320 185 324 q 142 322 154 317 q 131 321 133 314 q 131 343 128 332 q 132 365 133 354 q 144 386 135 378 q 150 406 153 394 q 140 420 147 414 q 139 433 132 426 q 167 445 154 442 q 197 451 181 449 q 208 463 200 460 q 223 470 215 467 q 236 479 231 474 q 240 496 242 485 q 238 515 240 506 q 232 531 235 524 q 242 547 235 539 q 246 563 249 554 q 235 579 238 568 q 231 599 233 590 q 238 618 239 610 q 243 638 236 626 q 244 670 233 653 q 265 703 256 688 q 284 762 261 733 q 328 814 307 790 q 344 824 335 818 q 357 842 354 831 q 388 867 371 857 q 424 875 406 878 q 440 880 432 872 q 458 889 447 888 q 502 890 479 889 q 547 893 525 890 q 563 888 558 893 z "},"}":{"ha":413,"x_min":32,"x_max":482,"o":"m 32 -60 q 41 -50 35 -53 q 49 -40 47 -47 q 83 -23 67 -33 q 114 0 99 -12 l 103 15 l 122 32 q 101 48 115 43 q 75 60 86 53 l 74 63 q 81 67 76 65 q 92 71 86 68 q 135 70 113 68 q 174 90 158 72 q 190 115 181 101 q 208 138 200 128 q 213 161 210 149 q 224 188 215 174 q 221 227 228 208 q 221 268 214 246 q 210 317 207 290 q 226 365 214 343 q 242 381 238 372 q 251 399 247 390 q 259 417 254 408 q 276 431 264 425 q 257 453 267 440 q 243 479 247 465 q 244 497 246 489 q 240 514 242 506 q 241 531 239 522 q 254 547 243 539 q 276 594 265 569 q 301 639 286 619 q 308 657 303 649 q 319 674 314 665 q 328 691 325 682 q 329 710 332 700 q 338 724 333 717 q 339 739 342 731 q 332 760 335 750 q 315 776 329 771 q 289 792 303 788 q 260 803 275 797 l 256 810 q 271 817 263 819 q 286 822 279 815 q 274 833 282 831 q 258 842 265 835 q 269 852 263 847 q 282 861 275 857 q 256 881 269 872 q 232 900 243 889 q 236 914 232 908 q 270 924 254 922 q 301 926 286 926 q 331 924 315 925 q 364 928 346 924 q 401 919 385 929 q 433 903 417 910 q 451 876 444 890 q 460 846 457 863 q 478 822 475 839 q 479 788 482 804 q 469 728 479 758 q 454 668 458 697 q 444 651 446 661 q 438 632 443 640 q 407 590 413 613 q 386 544 401 567 q 387 523 388 535 q 400 510 386 511 q 426 508 411 504 q 454 506 442 511 q 465 507 463 514 q 465 485 468 496 q 463 463 461 474 q 451 442 460 450 q 446 422 442 433 q 456 408 449 414 q 457 394 463 401 q 428 383 442 386 q 399 376 415 379 q 388 365 396 368 q 373 358 381 361 q 360 349 365 354 q 354 332 354 343 q 364 297 354 314 q 354 281 361 289 q 350 265 347 274 q 360 249 358 260 q 365 229 361 238 q 358 210 356 218 q 353 190 360 201 q 351 158 363 175 q 331 125 340 140 q 311 66 333 94 q 268 14 289 38 q 251 3 261 10 q 238 -14 240 -3 q 207 -40 224 -29 q 171 -47 190 -50 q 156 -52 164 -44 q 138 -61 147 -60 q 94 -62 117 -61 q 49 -65 71 -62 q 32 -60 38 -65 z "},"":{"ha":931,"x_min":139,"x_max":981,"o":"m 718 811 q 733 810 725 808 q 750 815 742 813 q 767 817 758 817 q 782 811 775 817 q 802 799 793 807 q 818 783 811 792 q 855 771 843 786 q 881 743 867 756 q 913 711 903 732 q 933 669 924 690 q 957 643 950 661 q 963 607 964 625 q 976 571 974 589 q 978 534 979 553 q 975 495 976 515 q 976 454 974 475 q 971 435 972 444 q 980 426 981 432 q 976 414 979 421 q 969 400 972 407 q 969 388 965 393 q 914 283 947 331 q 844 183 881 236 q 811 156 824 172 q 781 128 799 139 q 763 106 774 117 q 746 82 751 96 q 712 67 726 75 q 676 61 697 58 q 648 48 664 50 q 618 35 632 46 q 553 19 588 29 q 488 13 519 8 q 447 10 468 11 q 404 8 426 8 q 344 13 375 8 q 338 27 343 22 q 327 35 333 32 q 313 39 321 38 q 300 43 306 40 q 288 54 296 50 q 274 63 281 58 q 260 72 267 67 q 254 88 254 76 q 219 123 231 100 q 192 169 207 146 q 168 192 181 181 q 157 222 156 203 q 154 244 163 236 q 143 264 146 253 q 142 301 144 283 q 144 339 140 319 q 140 390 139 361 q 160 442 140 419 q 166 482 168 463 q 176 521 164 501 q 194 546 189 533 q 206 572 200 558 q 218 598 211 585 q 240 622 225 611 q 249 642 242 633 q 266 659 257 651 q 284 675 275 667 q 297 694 293 683 q 326 713 313 704 q 347 736 339 721 q 377 753 361 747 q 401 776 393 760 q 437 790 419 786 q 472 806 454 794 q 490 807 481 803 q 507 816 499 811 q 524 824 515 821 q 542 825 533 828 q 565 827 553 822 q 589 839 578 832 q 622 833 604 832 q 658 835 640 835 q 692 831 676 835 q 718 811 707 826 m 588 707 q 553 703 568 714 q 519 694 536 701 q 486 676 503 686 q 452 657 469 667 q 418 643 435 647 q 399 623 413 628 q 375 606 385 618 q 350 575 368 586 q 319 549 332 564 l 311 515 q 297 495 300 506 q 293 474 294 485 q 290 453 292 464 q 278 432 288 442 q 279 403 281 417 q 276 377 278 390 q 275 351 275 364 q 281 325 275 338 q 286 291 288 308 q 292 258 285 274 q 303 252 301 257 q 306 240 306 247 q 305 226 306 233 q 307 215 304 219 l 310 217 q 335 194 321 203 q 361 169 350 185 q 372 162 365 164 q 385 158 378 160 q 397 152 392 156 q 404 140 401 149 q 446 134 424 138 q 492 136 468 131 q 522 147 506 150 q 551 143 539 143 q 575 148 561 147 q 603 151 589 149 q 628 159 617 153 q 647 181 640 165 q 701 213 678 192 q 750 253 724 235 q 772 292 757 274 q 801 329 788 310 q 808 344 808 336 q 818 358 808 351 q 832 377 831 368 q 832 395 833 386 q 831 414 831 404 q 840 435 831 424 q 845 477 849 454 q 854 524 842 500 l 835 549 q 825 583 835 568 q 810 614 815 599 q 802 636 810 629 q 784 649 794 643 q 764 660 774 654 q 750 678 754 665 q 712 685 728 676 q 679 700 696 693 q 642 699 660 700 q 610 704 625 699 q 595 701 601 704 q 588 707 589 697 m 653 640 q 662 638 657 639 q 672 635 667 636 q 681 618 679 626 q 688 600 683 610 q 681 565 686 583 q 671 531 676 547 q 675 521 676 526 q 675 508 674 515 q 668 488 671 499 q 657 469 665 476 q 635 438 653 450 q 599 418 617 425 q 602 408 601 414 q 606 397 603 403 q 608 379 601 386 q 610 361 615 372 q 615 350 613 354 q 615 339 618 346 q 637 292 631 317 q 658 246 643 267 q 667 229 660 235 q 676 215 674 224 q 673 213 675 213 q 669 215 671 214 q 665 219 668 218 q 661 222 663 219 q 650 228 657 228 q 639 232 643 228 q 631 227 633 233 q 625 225 629 221 q 599 246 617 242 q 592 244 594 249 q 585 242 589 239 l 583 249 q 577 249 581 249 q 575 253 574 250 q 577 260 582 257 q 574 269 572 264 q 553 317 563 292 q 536 367 543 342 q 533 372 533 369 q 529 376 532 374 l 526 371 q 520 332 526 353 q 517 294 514 311 q 512 253 511 274 q 519 213 513 232 q 518 208 519 210 q 515 210 517 207 q 505 224 506 214 q 493 236 504 233 q 486 238 490 238 q 481 233 482 239 q 476 228 482 231 q 469 247 472 236 q 458 267 465 258 q 451 260 454 264 q 442 257 447 256 q 445 278 444 268 q 449 300 446 289 q 456 344 451 324 q 465 389 460 365 q 467 407 464 397 q 474 428 471 417 q 478 458 469 443 q 483 489 486 474 q 487 510 482 500 q 489 529 492 519 q 493 543 494 536 q 494 558 492 550 q 478 562 488 563 q 463 563 469 561 q 453 560 457 557 q 458 567 454 564 q 463 574 461 569 q 459 578 460 575 q 461 582 458 581 q 455 585 461 589 q 449 588 449 582 q 440 587 446 592 q 431 588 433 582 q 457 608 440 603 q 485 625 474 613 q 488 626 485 624 q 481 632 486 632 q 478 639 475 632 q 492 642 486 643 q 506 646 497 642 q 533 644 518 642 q 558 645 544 646 q 585 647 572 644 q 619 644 600 640 q 653 640 639 649 m 582 572 q 569 556 569 567 q 562 527 567 540 q 558 499 557 514 q 558 491 556 493 q 563 489 560 489 q 571 489 567 489 q 576 488 575 489 q 591 495 582 492 q 597 507 600 499 q 604 536 603 522 q 610 565 606 550 q 598 574 607 572 q 582 572 589 576 z "},"":{"ha":936,"x_min":138,"x_max":979,"o":"m 717 811 q 732 810 724 808 q 749 815 740 813 q 765 817 757 817 q 781 811 774 817 q 801 799 792 807 q 817 783 810 792 q 853 771 842 786 q 879 743 865 756 q 912 711 901 732 q 932 669 922 690 q 956 643 949 661 q 961 607 963 625 q 975 571 972 589 q 976 534 978 553 q 974 495 975 515 q 975 454 972 475 q 969 435 971 444 q 978 426 979 432 q 974 414 978 421 q 967 400 971 407 q 968 388 964 393 q 913 283 946 331 q 843 183 879 236 q 810 156 822 172 q 779 128 797 139 q 761 106 772 117 q 744 82 750 96 q 710 67 725 75 q 675 61 696 58 q 647 48 663 50 q 617 35 631 46 q 552 19 586 29 q 486 13 518 8 q 446 10 467 11 q 403 8 425 8 q 343 13 374 8 q 337 27 342 22 q 326 35 332 32 q 312 39 319 38 q 299 43 304 40 q 287 54 294 50 q 272 63 279 58 q 259 72 265 67 q 253 88 253 76 q 217 123 229 100 q 190 169 206 146 q 167 192 179 181 q 156 222 154 203 q 153 244 161 236 q 142 264 144 253 q 141 301 143 283 q 143 339 139 319 q 138 390 138 361 q 158 442 139 419 q 165 482 167 463 q 175 521 163 501 q 193 546 188 533 q 204 572 199 558 q 217 598 210 585 q 239 622 224 611 q 248 642 240 633 q 265 659 256 651 q 283 675 274 667 q 296 694 292 683 q 324 713 311 704 q 346 736 338 721 q 376 753 360 747 q 400 776 392 760 q 435 790 418 786 q 471 806 453 794 q 488 807 479 803 q 506 816 497 811 q 523 824 514 821 q 540 825 532 828 q 564 827 551 822 q 588 839 576 832 q 621 833 603 832 q 657 835 639 835 q 690 831 675 835 q 717 811 706 826 m 586 707 q 551 703 567 714 q 518 694 535 701 q 485 676 501 686 q 451 657 468 667 q 417 643 433 647 q 397 623 411 628 q 374 606 383 618 q 349 575 367 586 q 318 549 331 564 l 310 515 q 296 495 299 506 q 292 474 293 485 q 288 453 290 464 q 276 432 286 442 q 278 403 279 417 q 275 377 276 390 q 274 351 274 364 q 279 325 274 338 q 285 291 286 308 q 290 258 283 274 q 302 252 300 257 q 304 240 304 247 q 303 226 304 233 q 306 215 303 219 l 308 217 q 334 194 319 203 q 360 169 349 185 q 370 162 364 164 q 383 158 376 160 q 395 152 390 156 q 403 140 400 149 q 444 134 422 138 q 490 136 467 131 q 521 147 504 150 q 550 143 538 143 q 574 148 560 147 q 601 151 588 149 q 627 159 615 153 q 646 181 639 165 q 699 213 676 192 q 749 253 722 235 q 771 292 756 274 q 800 329 786 310 q 807 344 807 336 q 817 358 807 351 q 831 377 829 368 q 831 395 832 386 q 829 414 829 404 q 839 435 829 424 q 844 477 847 454 q 853 524 840 500 l 833 549 q 824 583 833 568 q 808 614 814 599 q 801 636 808 629 q 783 649 793 643 q 763 660 772 654 q 749 678 753 665 q 710 685 726 676 q 678 700 694 693 q 641 699 658 700 q 608 704 624 699 q 594 701 600 704 q 586 707 588 697 m 646 633 q 653 628 653 633 q 660 621 653 622 q 669 609 668 618 q 682 600 671 600 q 693 578 697 590 q 692 550 689 565 q 688 531 689 539 q 681 513 688 522 q 673 503 678 504 q 663 502 668 501 q 653 501 658 503 q 647 492 649 500 q 642 485 646 486 q 636 478 639 483 q 619 465 624 476 q 604 451 615 453 q 591 442 600 442 q 581 431 582 442 q 571 429 575 422 q 575 458 574 443 q 574 486 576 472 q 583 507 581 497 q 582 528 585 517 q 570 538 575 531 q 554 539 565 546 q 544 524 550 532 q 531 513 539 517 q 523 490 524 501 q 513 467 522 478 q 508 431 515 449 q 504 393 501 413 q 499 375 501 383 q 492 360 497 367 q 494 339 490 349 q 488 319 499 329 q 495 312 492 317 q 503 307 499 307 q 517 307 510 310 q 531 311 524 304 q 538 316 536 313 q 540 324 539 319 q 542 331 540 328 q 549 336 543 335 q 551 351 551 343 q 560 361 551 358 q 567 351 563 358 q 578 351 571 344 q 590 353 585 354 q 601 350 596 351 q 610 349 606 349 q 621 356 615 349 q 637 374 631 361 q 656 381 643 386 q 651 351 653 367 q 647 321 650 336 q 640 296 644 308 q 628 272 635 283 q 611 258 621 264 q 594 242 601 251 q 566 226 581 233 q 533 219 551 218 q 517 214 525 219 q 501 217 508 208 q 462 215 479 210 q 432 231 444 219 q 416 233 422 229 q 405 242 410 236 q 397 256 400 249 q 389 268 393 263 q 388 283 392 278 q 386 294 385 288 q 399 336 394 314 q 403 376 404 358 q 405 391 408 383 q 400 406 401 399 q 407 426 403 417 q 414 446 411 435 l 428 517 q 442 536 433 528 q 450 556 451 544 q 472 578 461 567 q 490 603 483 589 q 499 612 494 607 q 508 615 503 617 q 520 613 514 611 q 533 617 526 614 q 545 623 539 619 q 557 625 551 626 q 574 628 567 622 q 590 632 582 635 q 610 629 600 635 q 628 624 617 626 q 646 633 639 622 z "},"@":{"ha":974,"x_min":129,"x_max":1018,"o":"m 786 833 q 808 826 799 832 q 833 822 818 819 q 856 806 843 813 q 882 796 869 799 q 909 771 897 785 q 932 742 921 757 q 954 711 943 726 q 979 683 965 696 q 986 667 981 674 q 998 653 992 660 q 1008 638 1004 646 q 1013 621 1013 631 q 1011 585 1006 601 q 1018 551 1017 568 q 1014 522 1014 536 q 1015 492 1014 507 q 1014 463 1015 478 q 1006 433 1013 449 q 1001 412 999 422 q 996 389 1004 401 q 984 366 988 378 q 977 342 981 354 q 969 319 974 331 q 953 299 964 308 q 953 285 956 292 q 944 271 950 278 q 934 257 939 264 q 929 242 929 250 q 903 199 922 218 q 865 165 883 181 q 817 117 846 133 q 757 89 788 100 q 689 58 726 61 q 619 51 651 54 l 588 60 q 583 76 583 68 q 585 93 583 85 q 588 110 588 101 q 583 125 588 118 q 534 97 560 113 q 482 82 508 82 q 449 63 467 71 q 417 65 432 54 q 405 77 413 72 q 392 88 397 82 q 384 101 386 93 q 388 121 382 108 q 384 161 379 139 q 385 206 389 183 q 394 240 389 221 q 393 274 400 258 q 407 304 404 289 q 410 335 410 319 q 412 365 411 350 q 421 396 413 381 q 427 417 426 406 q 428 438 428 428 q 433 458 429 449 q 447 478 436 468 q 458 516 450 496 q 489 547 467 536 q 510 565 499 560 q 535 573 522 571 q 559 577 547 575 q 582 583 571 579 q 606 581 594 581 q 631 583 618 581 q 658 583 643 581 q 685 588 672 586 q 712 590 699 590 q 736 583 725 590 q 747 590 740 590 q 757 592 753 589 q 767 580 767 589 q 767 561 767 571 q 758 537 760 550 q 755 510 756 524 q 753 483 754 497 q 746 457 751 469 q 745 439 747 449 q 740 419 743 429 q 735 401 736 410 q 738 383 733 392 q 733 364 735 374 q 724 346 732 354 q 721 297 726 324 q 719 247 715 271 q 716 231 718 239 q 715 215 714 224 q 736 211 724 207 q 760 222 749 215 q 785 240 771 233 q 806 261 799 246 q 817 284 810 274 q 831 304 824 294 q 843 325 838 314 q 850 349 849 336 q 864 386 854 367 q 867 424 874 406 q 885 479 888 451 q 890 513 893 497 q 880 542 886 528 q 869 569 874 556 q 868 600 864 583 q 862 613 867 608 q 852 623 857 618 q 844 634 847 628 q 844 649 842 640 q 813 682 829 668 q 772 703 796 696 q 759 717 768 713 q 740 724 750 722 q 717 725 729 725 q 696 728 706 725 q 687 738 693 736 q 674 739 681 740 q 658 735 667 738 q 644 731 650 732 q 576 723 608 735 q 508 706 543 711 q 453 678 478 693 q 400 642 429 663 q 387 621 396 629 q 369 605 378 613 q 351 589 360 597 q 338 569 342 581 q 333 550 338 558 q 322 534 328 542 q 308 519 315 526 q 300 501 301 511 q 292 472 299 486 q 281 442 286 457 q 272 413 275 428 q 274 385 269 399 q 264 349 267 367 q 265 313 261 331 q 258 280 251 293 q 268 253 264 267 q 277 244 275 250 q 280 231 279 238 q 283 217 281 224 q 293 211 285 211 q 287 195 296 203 q 281 176 278 188 q 286 160 289 169 q 290 143 283 150 q 286 133 294 133 q 272 129 278 132 q 263 130 268 131 q 253 128 257 129 l 267 61 l 256 57 q 229 74 243 67 q 203 90 215 82 q 181 110 190 99 q 167 139 171 122 q 149 156 154 144 q 143 182 144 168 q 140 209 142 196 q 133 233 139 222 q 133 302 129 268 q 143 372 136 336 q 140 388 142 379 q 143 403 139 396 l 142 407 q 165 474 151 439 q 179 536 178 508 q 192 562 183 550 q 210 584 200 574 q 229 606 221 594 q 242 632 238 617 q 253 654 244 644 q 268 672 261 664 l 269 672 l 285 701 q 310 717 296 710 q 329 740 324 725 q 367 766 349 751 q 407 779 385 781 q 453 806 429 799 q 503 819 478 813 q 535 842 518 838 q 569 847 551 847 q 604 846 586 847 q 642 851 622 844 q 660 852 650 850 q 681 856 671 854 q 699 856 690 857 q 717 850 708 856 q 753 847 736 850 q 786 833 771 843 m 586 472 q 563 445 572 460 q 556 415 553 431 q 543 371 550 399 q 540 329 539 347 q 532 288 533 308 q 531 247 531 268 q 550 228 536 229 q 565 231 556 231 q 572 242 574 232 q 592 276 589 256 q 597 313 594 297 q 606 334 604 322 q 606 356 607 346 q 612 371 610 365 q 615 381 614 376 q 615 390 615 385 q 614 404 614 394 q 617 413 615 407 q 617 417 618 419 l 619 426 l 618 428 l 618 431 q 617 444 613 436 q 622 460 622 451 q 608 472 619 472 q 586 472 596 471 z "},"#":{"ha":658,"x_min":108,"x_max":772,"o":"m 389 921 q 422 874 404 897 q 447 824 439 851 q 458 837 454 828 q 474 844 463 846 l 475 839 q 472 796 471 815 q 463 756 465 776 q 453 717 460 736 q 459 710 454 710 q 469 713 464 711 q 480 716 475 715 q 489 711 485 717 q 514 711 501 714 q 538 719 526 708 q 536 731 538 725 q 533 742 535 738 q 543 759 542 750 q 544 778 544 768 q 545 797 544 788 q 551 817 546 807 l 551 824 q 567 819 564 829 q 581 810 571 810 q 586 832 583 821 q 592 854 589 843 q 599 890 596 872 q 599 924 601 908 q 610 928 600 931 q 624 878 614 903 q 640 825 635 853 q 652 827 644 818 q 667 839 660 836 q 671 822 672 832 q 676 806 669 813 q 665 754 669 781 q 658 704 660 728 q 693 708 675 699 q 715 708 703 708 q 739 714 728 707 q 744 710 743 714 q 753 708 746 706 q 763 707 756 706 q 772 703 771 708 q 738 683 756 692 q 706 658 721 674 q 716 651 707 650 q 726 644 725 653 q 709 634 718 640 q 693 619 700 628 q 690 601 693 610 q 674 593 686 593 q 650 592 663 590 q 633 582 638 593 q 629 563 636 571 q 619 543 622 554 l 626 519 q 617 495 619 507 q 619 472 614 483 q 679 474 650 471 q 736 474 708 476 q 740 474 738 472 q 743 472 743 476 q 726 462 738 464 q 713 449 715 460 q 685 431 697 442 q 658 414 674 419 q 669 392 669 404 q 675 369 668 381 q 666 362 674 363 q 656 360 658 361 l 599 354 l 592 333 q 585 297 594 318 q 576 258 576 276 q 568 211 569 232 q 556 164 567 190 q 560 115 558 140 q 565 67 561 90 q 558 65 561 64 q 553 68 556 65 q 549 73 551 71 q 543 74 547 75 q 533 94 535 82 q 515 113 531 107 q 505 105 508 110 q 496 93 501 100 q 485 99 485 90 q 481 114 486 108 q 465 142 465 125 q 457 174 464 158 q 450 166 451 172 q 440 163 449 160 q 442 203 438 182 q 453 242 446 224 q 453 266 450 253 q 453 290 456 279 q 455 304 456 299 q 453 315 454 310 q 451 326 451 321 q 457 338 451 331 q 423 340 439 342 q 390 335 407 338 q 385 324 385 331 q 376 319 385 317 q 377 301 381 310 q 369 285 374 293 q 363 270 365 278 q 368 254 361 263 q 363 224 367 239 q 363 193 360 208 q 353 128 354 161 q 344 64 351 96 q 334 61 338 57 q 328 68 331 65 q 324 76 325 71 q 317 83 324 82 q 304 125 318 104 q 291 130 299 128 q 276 128 283 132 q 268 119 275 121 q 254 115 261 118 q 247 124 249 118 q 243 136 246 131 q 235 147 235 140 q 238 161 236 154 q 238 174 239 168 q 228 183 238 181 q 238 223 239 204 q 247 261 238 242 q 251 296 244 278 q 256 331 257 314 q 246 339 254 338 q 231 338 238 340 q 170 333 197 338 q 111 333 143 329 q 108 336 111 336 q 135 357 119 347 q 167 372 151 367 q 167 381 168 378 q 163 385 165 383 q 160 390 161 388 q 161 399 158 393 q 185 405 172 401 q 210 414 199 408 q 201 427 208 421 q 204 444 194 433 q 199 461 194 450 q 219 465 208 465 q 240 465 229 465 q 260 468 250 465 q 276 481 269 471 q 284 527 283 504 q 293 574 285 550 q 258 576 276 575 q 221 578 240 578 q 171 572 193 578 l 169 579 q 215 607 197 586 q 222 610 222 604 q 226 619 222 615 q 246 628 235 624 q 257 643 257 632 q 264 663 260 654 q 264 678 268 671 q 258 685 261 681 q 257 696 254 690 q 289 700 272 700 q 322 703 306 700 q 334 727 333 714 q 338 756 335 740 q 346 791 342 771 q 350 828 350 811 q 342 835 347 832 q 343 846 336 839 q 362 847 351 851 q 379 854 372 843 q 376 889 378 871 q 372 922 375 907 q 381 928 375 933 q 389 921 386 922 m 472 583 q 460 582 465 583 q 449 574 456 581 q 440 576 442 571 q 431 576 438 582 q 416 525 419 551 q 406 472 413 499 q 449 479 429 483 q 488 471 468 475 q 494 503 485 488 q 497 536 503 518 q 507 582 511 560 l 503 579 q 485 574 494 576 q 472 583 475 572 z "},"=":{"ha":483,"x_min":94,"x_max":551,"o":"m 263 472 q 232 473 247 474 q 201 467 217 472 q 183 470 192 472 q 164 474 174 468 q 188 488 172 485 q 215 497 203 490 q 226 512 217 508 q 239 525 236 515 q 234 537 238 532 q 233 549 231 542 q 255 562 246 553 q 271 582 264 571 q 269 590 272 586 q 262 596 265 593 q 258 601 258 599 q 267 607 258 604 q 297 603 282 604 q 326 601 311 601 q 352 603 339 601 q 379 610 365 604 q 415 606 397 608 q 450 611 433 604 q 490 608 469 606 q 525 611 510 610 q 534 614 528 613 q 544 614 540 615 q 550 609 549 613 q 546 599 551 606 q 535 592 542 593 q 525 585 528 592 q 508 574 517 578 q 493 560 499 569 q 491 548 488 553 q 499 540 494 543 q 515 535 506 538 q 522 524 525 533 q 496 513 510 514 q 472 497 482 513 q 476 490 472 492 q 483 485 481 488 l 474 478 q 428 480 450 479 q 385 481 407 481 q 326 479 356 481 q 263 472 296 478 m 499 401 q 526 393 517 406 q 513 392 519 393 q 499 383 506 392 q 471 377 488 379 q 450 357 454 375 l 429 346 q 436 337 431 339 q 447 332 442 335 q 454 325 453 329 q 449 311 456 321 l 426 292 q 432 287 428 288 q 442 286 436 286 q 451 285 447 286 q 457 281 456 285 l 449 275 q 378 271 411 271 q 319 272 349 271 q 261 274 290 274 q 204 271 233 274 q 146 260 175 268 q 138 259 143 261 q 133 264 132 257 q 124 264 131 265 q 112 262 118 263 q 101 262 106 261 q 94 267 96 263 q 112 277 101 275 q 132 282 122 279 q 150 294 143 285 q 164 310 157 303 l 163 331 q 185 340 172 338 q 204 354 197 343 q 195 368 204 365 q 185 381 186 371 q 196 387 190 386 q 208 387 201 388 q 221 386 214 386 q 235 389 228 386 q 264 394 249 393 q 294 396 279 396 q 315 396 306 396 q 335 393 325 396 q 370 399 353 403 q 406 404 388 396 q 451 402 425 399 q 499 401 478 406 z "},"":{"ha":274,"x_min":194,"x_max":381,"o":"m 351 767 q 368 767 358 771 q 376 749 371 756 q 376 732 381 743 q 346 677 360 704 q 324 621 332 650 q 313 599 314 610 q 299 582 311 588 q 283 548 292 564 q 260 521 274 532 q 246 501 258 508 q 245 494 250 497 q 240 488 240 492 q 231 483 236 483 q 224 486 226 483 q 225 512 224 499 q 233 536 226 525 q 232 553 236 546 q 222 568 228 561 q 225 580 222 574 q 230 592 228 586 q 231 601 232 597 q 222 608 229 606 q 211 605 218 606 q 200 607 204 604 q 197 616 194 610 q 201 625 199 622 q 219 651 211 638 q 228 678 228 665 q 258 739 244 710 q 278 804 271 768 q 285 823 285 813 q 286 843 285 833 q 298 845 293 851 q 304 835 303 839 q 306 812 301 822 q 311 790 310 801 q 332 788 322 789 q 349 779 342 786 l 351 767 l 351 767 z "},"":{"ha":279,"x_min":210,"x_max":346,"o":"m 217 517 q 210 522 210 517 q 211 529 211 528 q 217 610 214 569 q 225 689 219 650 q 226 710 226 700 q 224 731 225 721 q 223 750 222 740 q 229 771 224 760 q 228 782 228 775 q 236 793 229 789 l 240 793 l 254 740 q 261 736 261 743 q 283 750 268 753 q 294 741 290 747 q 299 728 297 735 q 305 715 301 721 q 315 706 308 708 q 322 710 319 707 q 327 716 325 713 q 332 720 329 719 q 339 718 335 721 l 335 683 q 338 679 340 682 q 339 674 336 676 q 337 637 335 654 q 333 600 339 619 q 331 584 326 590 q 333 571 335 578 q 340 556 340 564 q 340 539 340 547 q 339 523 339 531 q 346 510 339 515 q 341 492 346 500 q 331 474 336 483 q 323 470 324 471 q 315 468 322 469 q 316 475 315 471 q 311 479 317 479 q 306 497 313 488 q 297 469 299 485 q 288 442 294 453 q 280 437 285 435 q 268 433 275 439 l 261 443 q 256 494 260 471 q 249 542 251 517 q 241 547 246 544 q 232 542 236 549 q 227 527 226 536 q 217 517 228 518 z "},"":{"ha":800,"x_min":78,"x_max":764,"o":"m 739 78 q 739 58 742 68 q 729 39 736 47 q 725 22 738 28 q 714 30 718 19 q 703 44 710 40 q 694 49 699 46 q 683 56 689 53 q 672 58 678 58 q 660 53 665 58 q 649 45 653 44 q 640 49 644 46 q 633 57 636 53 q 625 63 629 61 q 609 63 617 68 q 596 63 601 57 q 619 144 611 104 q 642 228 628 183 q 649 240 642 235 q 652 228 651 235 q 653 214 653 221 q 658 201 654 207 q 669 190 661 194 l 686 182 q 701 193 696 185 q 714 199 707 201 q 723 185 713 188 q 740 179 733 182 q 747 180 743 178 q 753 183 750 182 q 760 184 757 185 q 764 178 763 183 q 756 148 757 163 q 754 118 756 133 q 745 97 744 108 q 739 78 746 86 m 349 47 q 338 46 340 39 q 350 119 344 82 q 363 192 356 157 q 369 199 363 199 q 391 188 385 199 q 407 169 397 176 q 419 175 411 178 q 432 179 426 172 q 441 178 438 182 q 448 171 444 175 q 454 163 451 167 q 464 160 457 158 l 490 171 q 490 161 493 164 q 484 148 483 156 q 478 133 485 140 q 466 78 468 108 q 460 22 464 49 q 443 19 450 14 q 428 24 436 25 q 412 40 417 31 q 400 60 407 49 q 383 61 389 58 q 378 68 382 67 q 372 72 375 69 q 367 64 371 67 q 358 60 363 61 q 351 56 354 58 q 349 47 349 53 m 221 65 q 222 45 225 56 q 213 26 218 35 q 214 17 215 22 q 207 10 213 13 q 197 17 200 7 q 185 32 193 28 q 176 37 181 33 q 165 43 171 40 q 153 46 160 46 q 142 40 147 46 q 131 33 135 32 q 122 37 126 33 q 115 44 118 40 q 107 50 111 49 q 91 50 99 56 q 78 50 83 44 q 102 131 93 92 q 124 215 111 171 q 131 228 124 222 q 134 215 133 222 q 135 201 135 208 q 140 188 136 194 q 151 178 143 182 l 168 169 q 183 181 178 172 q 196 186 189 189 q 205 172 194 175 q 222 167 215 169 q 229 167 225 165 q 236 171 233 169 q 242 172 239 172 q 246 165 244 171 q 238 135 239 150 q 236 106 238 121 q 227 85 226 96 q 221 65 228 74 z "},"-":{"ha":496,"x_min":108,"x_max":539,"o":"m 511 463 q 539 454 529 467 q 525 453 532 454 q 513 444 518 453 q 499 441 507 442 q 484 438 492 440 q 470 432 476 436 q 463 418 464 428 l 443 407 q 449 398 443 400 q 460 393 454 396 q 467 386 465 390 q 461 372 468 382 l 439 353 q 445 348 440 349 q 456 347 450 347 q 465 347 461 347 q 471 342 469 346 l 461 336 q 390 332 425 332 q 333 333 361 332 q 275 335 304 335 q 217 332 247 335 q 160 321 188 329 q 151 320 157 322 q 146 325 144 318 q 137 325 143 326 q 125 323 131 324 q 115 323 119 322 q 108 328 110 324 q 124 338 114 336 q 144 343 135 340 q 163 355 156 346 q 176 371 169 364 l 175 392 q 198 401 186 399 q 217 415 210 404 q 208 429 217 426 q 197 442 199 432 q 208 448 203 447 q 220 448 214 449 q 233 447 226 447 q 247 450 240 447 q 276 456 261 454 q 307 457 292 457 q 328 457 318 457 q 347 454 338 457 q 383 460 365 464 q 419 465 400 457 q 465 463 439 460 q 511 463 490 467 z "},"_":{"ha":621,"x_min":-8,"x_max":599,"o":"m 571 -10 q 599 -18 589 -6 q 585 -19 592 -18 q 571 -28 578 -19 q 543 -34 560 -32 q 522 -54 526 -36 l 503 -65 q 508 -74 503 -72 q 519 -79 514 -76 q 526 -86 525 -82 q 521 -100 528 -90 l 499 -119 q 504 -124 500 -124 q 514 -125 508 -125 q 524 -126 519 -125 q 531 -131 528 -126 l 521 -136 q 426 -140 483 -140 q 323 -139 378 -140 q 215 -137 268 -137 q 117 -140 163 -137 q 42 -151 71 -143 q 33 -152 39 -150 q 29 -147 28 -154 q 20 -147 26 -146 q 8 -149 14 -149 q -2 -149 3 -150 q -8 -144 -7 -149 q 8 -134 -1 -136 q 28 -129 18 -132 q 46 -117 39 -126 q 60 -101 53 -108 l 58 -81 q 81 -71 68 -74 q 100 -57 93 -68 q 91 -43 100 -46 q 81 -31 82 -40 q 92 -24 86 -25 q 103 -24 97 -24 q 117 -25 110 -25 q 131 -22 124 -25 q 160 -17 144 -18 q 190 -15 175 -15 q 211 -15 201 -15 q 231 -18 221 -15 q 264 -12 238 -14 q 324 -11 290 -11 l 401 -11 q 450 -10 429 -11 q 478 -7 471 -10 q 524 -9 497 -12 q 571 -10 550 -6 z "},"'":{"ha":271,"x_min":189,"x_max":351,"o":"m 332 625 q 317 550 325 588 q 313 475 310 513 l 308 468 q 302 469 304 467 q 298 475 300 472 q 292 480 296 478 q 283 481 289 482 q 282 489 281 483 q 282 497 283 494 q 276 514 279 504 q 261 522 272 524 q 247 525 251 521 q 240 536 242 529 q 237 551 238 543 q 232 564 236 558 q 216 547 225 558 q 196 538 207 535 q 195 547 189 542 q 197 558 201 553 q 201 593 203 576 q 213 629 200 610 q 213 649 207 638 q 215 668 219 660 l 232 750 q 226 763 222 754 q 232 778 229 771 q 240 813 235 796 q 232 844 244 831 q 242 853 235 856 q 253 847 250 850 q 265 826 263 840 q 275 800 267 811 q 276 794 275 797 q 279 792 276 792 q 281 784 279 788 q 285 776 282 781 q 293 788 290 781 q 299 802 296 796 q 306 812 301 808 q 319 811 311 815 q 326 782 325 797 q 335 754 326 767 q 338 759 339 756 q 343 763 338 763 q 351 740 350 751 q 349 715 351 728 q 343 693 346 704 q 342 671 340 682 q 338 649 339 661 q 332 625 338 636 z "},",":{"ha":256,"x_min":38,"x_max":224,"o":"m 194 103 q 211 103 204 107 q 219 85 214 92 q 219 68 224 79 q 190 13 203 40 q 167 -43 176 -14 q 156 -65 158 -54 q 142 -82 154 -76 q 126 -116 135 -100 q 104 -143 117 -132 q 90 -162 100 -156 q 89 -169 94 -167 q 85 -176 83 -172 q 75 -181 81 -181 q 67 -178 69 -181 q 69 -152 68 -165 q 76 -128 71 -139 q 75 -110 79 -118 q 67 -96 71 -103 q 69 -84 67 -90 q 73 -72 71 -78 q 74 -62 75 -67 q 65 -56 72 -58 q 54 -59 61 -58 q 44 -57 47 -60 q 40 -48 38 -54 q 46 -39 43 -42 q 63 -12 54 -26 q 72 14 71 1 q 101 75 88 46 q 121 140 114 104 q 128 159 128 149 q 129 179 128 169 q 142 181 138 188 q 149 171 146 175 q 149 148 144 158 q 156 126 153 138 q 176 124 167 125 q 192 115 186 122 l 194 103 l 194 103 z "},".":{"ha":276,"x_min":69,"x_max":238,"o":"m 213 39 q 213 19 217 29 q 204 0 210 8 q 206 -9 207 -4 q 199 -17 204 -14 q 188 -9 192 -19 q 176 6 185 1 q 167 10 172 7 q 157 17 163 14 q 145 19 151 19 q 133 14 139 19 q 122 6 126 6 q 114 10 118 7 q 106 18 110 14 q 99 24 103 22 q 83 24 90 29 q 69 24 75 18 q 93 105 85 65 q 115 189 101 144 q 122 201 115 196 q 126 189 125 196 q 127 175 126 182 q 131 162 128 168 q 143 151 135 156 l 160 143 q 175 154 169 146 q 188 160 181 163 q 197 146 186 149 q 214 140 207 143 q 221 141 217 139 q 228 144 225 143 q 233 145 231 146 q 238 139 236 144 q 230 109 231 124 q 228 79 229 94 q 219 58 218 69 q 213 39 219 47 z "},";":{"ha":263,"x_min":38,"x_max":288,"o":"m 142 258 q 131 257 133 250 q 143 331 138 293 q 156 403 149 368 q 163 410 158 410 q 184 399 178 410 q 201 381 190 388 q 213 386 204 389 q 225 390 221 383 q 234 390 231 393 q 241 382 238 386 q 247 374 244 378 q 257 371 250 369 l 283 382 q 283 372 288 376 q 277 359 276 367 q 271 344 278 351 q 260 290 261 319 q 253 233 258 260 q 238 231 244 225 q 221 235 231 236 q 205 251 210 242 q 193 271 200 260 q 176 272 183 269 q 172 279 175 278 q 165 283 168 281 q 161 275 165 278 q 153 271 157 272 q 145 267 149 269 q 142 258 142 264 m 194 103 q 211 103 204 107 q 219 85 214 92 q 219 68 224 79 q 190 13 203 40 q 167 -43 176 -14 q 156 -65 158 -54 q 142 -82 154 -76 q 126 -116 135 -100 q 104 -143 117 -132 q 90 -162 100 -156 q 89 -169 94 -167 q 85 -176 83 -172 q 75 -181 81 -181 q 67 -178 69 -181 q 69 -152 68 -165 q 76 -128 71 -139 q 75 -110 79 -118 q 67 -96 71 -103 q 69 -84 67 -90 q 73 -72 71 -78 q 74 -62 75 -67 q 65 -56 72 -58 q 54 -59 61 -58 q 44 -57 47 -60 q 40 -48 38 -54 q 46 -39 43 -42 q 63 -12 54 -26 q 72 14 71 1 q 101 75 88 46 q 121 140 114 104 q 128 159 128 149 q 129 179 128 169 q 142 181 138 188 q 149 171 146 175 q 149 148 144 158 q 156 126 153 138 q 176 124 167 125 q 192 115 186 122 l 194 103 z "},"`":{"ha":279,"x_min":243,"x_max":379,"o":"m 250 678 q 244 683 243 678 q 246 690 246 689 q 251 771 247 731 q 260 850 254 811 q 260 872 261 861 q 258 892 260 882 q 258 911 257 901 q 264 932 258 921 q 263 943 263 936 q 271 954 264 950 l 275 954 l 288 901 q 296 897 294 903 q 305 908 299 904 q 318 911 311 913 q 328 902 325 908 q 334 889 332 896 q 339 876 336 882 q 350 867 342 869 q 356 871 354 868 q 361 877 358 874 q 367 881 364 881 q 374 879 369 882 l 369 844 q 372 840 375 843 q 372 835 369 838 q 371 798 368 815 q 368 761 374 781 q 365 745 361 751 q 368 732 369 739 q 375 717 375 725 q 374 700 375 708 q 372 684 372 692 q 379 671 372 676 q 375 653 379 661 q 365 635 371 644 q 357 631 357 632 q 350 629 357 631 q 349 636 349 632 q 344 640 350 640 q 339 658 347 647 q 331 630 333 646 q 322 603 329 614 q 313 598 318 596 q 301 594 308 600 l 296 604 q 290 655 293 632 q 283 703 286 678 q 275 708 279 706 q 267 703 271 710 q 261 688 261 697 q 250 678 261 679 z "},"":{"ha":703,"x_min":207,"x_max":807,"o":"m 471 889 q 476 888 474 889 q 482 889 478 888 l 483 886 q 451 868 468 874 q 421 847 433 863 q 422 844 421 844 q 426 842 424 843 q 429 841 428 842 q 429 836 431 840 q 419 831 426 833 q 415 822 413 829 q 421 819 418 819 q 426 815 424 818 q 408 812 417 808 q 389 813 399 815 l 381 811 q 369 784 376 796 q 365 757 361 772 q 357 709 363 732 q 347 661 351 686 q 341 621 346 640 q 332 579 336 601 q 324 526 328 553 q 317 471 319 499 q 317 444 314 457 q 322 418 319 431 q 327 405 325 411 q 336 393 329 399 q 325 390 329 386 q 315 396 321 393 q 300 422 303 407 q 286 449 297 438 q 277 442 278 449 q 269 438 276 435 q 265 457 268 447 q 256 476 261 467 q 252 475 253 478 q 249 471 251 472 q 247 465 249 468 q 242 465 244 463 l 239 468 q 244 499 242 483 q 250 529 247 514 q 263 592 258 560 q 274 667 274 631 q 286 744 275 704 q 289 757 283 751 q 294 768 294 763 l 299 811 q 289 810 294 814 q 278 810 283 807 q 258 810 267 808 q 239 804 249 811 q 236 806 236 804 q 233 807 236 807 l 207 803 q 208 807 207 807 q 231 819 219 813 q 251 833 243 826 q 253 840 256 838 q 245 844 249 840 q 238 846 242 847 l 235 849 q 244 853 239 854 q 251 854 249 851 q 264 863 256 858 q 269 875 272 868 q 263 880 268 881 q 261 886 257 879 q 283 887 272 888 q 303 889 294 886 q 330 888 318 889 q 357 890 342 888 q 394 886 375 889 q 432 888 413 883 q 467 892 450 888 l 471 889 m 569 879 q 574 888 572 882 q 583 890 576 893 q 596 862 594 878 q 601 831 597 846 q 606 792 604 811 q 604 751 607 774 q 610 735 611 744 q 614 718 610 725 q 615 712 615 715 q 618 707 614 708 l 625 679 q 641 703 635 689 q 658 729 647 718 q 672 756 661 744 q 689 781 683 767 q 697 796 694 788 q 707 811 699 804 q 710 822 707 817 q 715 833 713 828 q 719 843 718 838 q 717 853 721 849 q 722 856 717 856 q 728 852 725 854 q 735 853 731 850 q 745 870 744 860 q 747 892 746 881 q 743 915 750 904 q 744 918 742 917 q 747 921 746 919 q 770 901 763 914 q 785 876 778 889 q 792 884 788 881 q 797 893 796 888 q 801 894 800 893 q 804 893 803 896 q 806 863 807 878 q 801 832 804 847 q 794 801 799 817 q 788 771 790 786 q 785 748 789 760 q 779 725 782 736 q 774 699 776 711 q 771 671 771 686 q 764 623 764 647 q 750 574 764 599 q 740 512 747 543 q 736 451 732 481 q 733 430 728 440 q 736 408 739 419 l 733 407 q 713 420 722 414 q 701 439 704 426 q 690 438 696 442 q 679 435 683 435 q 679 450 681 443 q 675 464 678 457 q 672 455 672 461 q 665 451 671 449 l 656 454 q 665 514 663 485 q 674 572 668 543 q 680 603 679 588 q 683 635 681 619 q 667 607 672 622 q 649 579 661 592 q 647 574 650 576 q 644 569 644 572 q 628 540 638 554 q 610 511 619 525 q 601 488 603 499 q 589 465 600 476 q 585 457 588 461 q 579 449 582 453 q 574 455 574 450 q 572 463 574 460 q 569 471 571 467 q 565 481 568 475 q 571 494 571 488 q 568 508 571 501 q 563 522 565 515 q 561 538 560 529 q 555 565 557 550 q 547 592 553 579 l 551 604 l 549 607 q 549 621 551 614 q 543 633 546 628 q 528 584 538 608 q 517 532 519 560 q 512 510 511 521 q 506 486 513 499 l 506 471 l 503 469 q 503 433 506 451 q 506 400 500 415 l 501 399 q 484 415 494 407 q 469 435 474 424 q 463 432 467 436 q 456 431 460 428 q 453 449 454 440 q 449 465 451 457 q 444 458 444 465 q 437 453 439 457 q 428 447 435 449 q 427 460 426 454 q 426 472 428 465 l 428 472 q 430 481 428 476 q 432 490 432 485 q 439 516 438 503 q 446 543 440 529 q 449 562 449 551 q 454 582 449 572 q 453 593 451 588 q 458 603 456 599 q 461 614 460 608 q 458 624 463 619 l 471 649 l 468 664 q 478 705 474 685 q 486 744 482 725 l 499 794 q 501 815 494 804 q 504 835 508 826 q 508 851 508 843 q 511 867 507 858 q 510 873 514 871 q 513 878 506 875 q 522 878 517 879 q 529 881 526 878 q 514 921 531 903 l 519 924 q 546 903 532 913 q 569 879 560 894 z "}," ":{"ha":325,"x_min":0,"x_max":0,"o":""},"$":{"ha":399,"x_min":50,"x_max":503,"o":"m 251 -65 q 236 -140 244 -103 q 232 -215 228 -178 l 226 -222 q 220 -221 222 -224 q 216 -215 218 -218 q 210 -210 214 -212 q 201 -210 207 -208 q 200 -201 199 -207 q 200 -193 201 -196 q 194 -176 197 -186 q 181 -168 192 -167 q 165 -165 169 -169 q 159 -154 161 -161 q 156 -140 157 -147 q 150 -126 154 -132 q 135 -144 143 -132 q 114 -153 126 -156 q 113 -143 107 -149 q 115 -132 119 -137 q 119 -97 121 -114 q 131 -61 118 -81 q 132 -42 126 -53 q 133 -22 138 -31 l 133 -21 q 127 -16 131 -18 q 121 -11 124 -14 q 114 -1 119 -4 q 102 3 108 1 q 90 8 96 6 q 82 18 85 11 q 63 42 67 24 q 50 71 60 60 q 56 128 57 97 q 65 183 56 158 l 63 185 q 67 255 74 221 q 57 325 61 289 q 60 336 61 331 q 58 347 60 342 q 57 356 57 351 q 64 364 57 360 q 81 334 71 349 q 94 304 90 319 l 97 304 q 103 266 97 285 q 125 236 110 247 q 136 238 132 231 q 147 242 140 246 q 154 219 156 232 q 165 201 153 206 q 174 203 171 200 q 179 209 176 206 q 185 215 182 213 q 193 214 189 217 q 192 192 194 203 q 190 169 190 181 q 190 149 189 158 q 199 131 190 139 q 208 132 206 136 q 215 132 210 128 q 238 134 226 135 q 261 147 250 133 l 268 160 q 270 185 268 172 q 272 208 272 197 q 269 230 272 219 q 256 247 265 240 q 255 263 260 258 q 244 271 250 268 q 233 278 238 274 q 232 294 228 283 q 222 310 231 304 q 208 324 213 315 q 193 331 196 324 q 182 343 190 339 l 151 371 q 149 393 153 383 q 138 412 144 403 q 127 430 132 421 q 122 450 122 439 q 126 508 133 479 q 135 542 132 525 q 136 576 138 558 q 148 609 139 593 q 151 642 157 625 q 175 687 167 665 q 207 726 183 708 q 229 753 215 740 q 258 774 243 767 q 284 777 271 778 q 308 790 297 776 q 308 803 311 799 l 326 885 q 320 897 317 889 q 325 913 324 906 q 334 948 329 931 q 325 979 339 965 q 335 988 328 990 q 347 982 343 985 q 359 960 357 975 q 369 935 361 946 q 369 929 368 932 q 372 926 369 926 q 374 919 372 922 q 379 911 376 915 q 388 923 385 915 q 393 937 390 931 q 400 947 396 943 q 413 946 404 950 q 419 917 418 932 q 429 889 421 901 q 433 894 433 890 q 438 897 432 897 q 445 874 444 886 q 443 850 446 863 q 438 828 440 839 q 436 806 435 817 q 433 795 433 800 q 432 783 433 790 l 443 782 q 486 735 476 765 q 503 672 496 704 q 491 613 496 646 q 479 553 486 581 q 476 519 478 536 q 474 487 474 503 q 477 456 474 471 q 490 431 481 442 q 492 426 494 431 q 486 418 490 421 q 463 437 471 424 q 449 463 456 450 q 435 488 443 476 q 414 501 428 499 q 403 497 408 494 q 397 522 400 510 q 385 543 394 533 q 377 534 382 536 q 367 531 372 532 q 359 526 363 529 q 356 514 356 522 q 347 515 349 508 q 346 525 344 521 q 349 571 351 547 q 361 618 347 594 q 351 640 353 631 q 339 650 350 651 q 319 647 328 649 q 294 623 301 639 q 286 589 288 607 q 279 533 283 563 q 283 478 275 504 q 307 456 297 468 q 325 430 317 443 q 343 404 333 417 q 368 383 353 392 q 374 363 368 371 q 387 349 381 356 q 399 334 393 342 q 406 314 406 326 q 418 260 414 289 q 411 201 422 231 q 414 174 417 188 q 406 147 411 160 q 394 119 401 133 q 385 92 388 106 l 343 29 q 328 19 335 25 q 317 6 322 13 q 306 -6 313 0 q 290 -11 300 -11 q 258 -26 276 -25 q 251 -65 258 -44 z "},"A":{"ha":483,"x_min":67,"x_max":574,"o":"m 501 760 l 544 760 q 569 704 565 736 q 560 639 574 672 q 549 604 558 622 q 539 568 539 586 q 530 547 532 557 q 528 528 528 538 q 527 508 528 518 q 522 488 526 499 q 510 422 519 453 q 493 360 500 392 q 494 348 496 354 q 489 335 492 342 q 485 322 486 328 q 489 311 485 315 q 474 256 478 283 q 451 201 471 228 q 453 185 451 192 q 458 169 456 179 q 451 144 451 156 q 452 121 451 132 q 453 98 453 110 q 444 74 453 86 l 443 64 q 438 29 442 47 q 429 -8 433 11 q 425 -31 426 -19 q 425 -51 424 -42 q 425 -78 422 -65 q 425 -101 428 -90 q 415 -104 418 -106 q 410 -99 413 -103 q 405 -92 407 -96 q 399 -87 403 -87 q 385 -69 383 -82 q 382 -43 386 -56 q 376 -31 378 -39 q 372 -15 375 -22 q 364 -3 369 -7 q 347 -6 358 0 q 335 -11 342 -8 q 329 -4 329 -14 l 328 38 q 319 34 322 38 q 313 26 315 31 q 306 17 310 21 q 296 13 301 13 l 293 19 q 306 70 304 46 q 318 118 308 94 q 318 140 315 128 q 311 157 321 151 q 278 162 294 167 q 242 150 261 157 q 231 126 235 139 q 224 103 226 114 q 217 53 218 78 q 208 3 217 28 q 206 -47 206 -21 q 199 -96 206 -72 q 188 -92 192 -96 q 181 -83 185 -87 q 172 -73 176 -78 q 158 -68 167 -68 q 147 -48 151 -58 q 128 -37 143 -37 q 120 -24 121 -32 q 119 -7 119 -15 q 115 8 118 1 q 101 15 113 14 q 93 10 97 15 q 84 0 89 4 q 75 -6 79 -4 q 67 -1 71 -8 q 74 31 72 14 q 79 63 75 47 q 88 110 83 86 q 97 158 92 133 q 112 226 104 192 q 126 292 119 260 q 133 305 129 299 q 135 319 138 311 q 131 336 128 326 q 140 353 133 346 q 147 369 151 361 q 144 386 143 378 q 160 451 151 417 q 174 518 168 486 q 171 533 168 526 q 181 550 174 540 q 172 556 178 557 q 163 560 165 554 q 170 573 165 567 q 164 582 175 579 q 154 583 160 585 q 144 580 149 582 q 135 578 139 578 q 131 583 131 578 l 157 610 q 149 616 153 611 q 143 625 146 621 q 135 631 140 629 q 124 626 131 632 q 113 619 118 624 q 103 618 108 614 q 101 636 106 628 q 104 654 97 644 q 122 671 111 663 q 136 692 133 679 q 160 714 147 703 q 188 732 172 725 q 183 736 186 735 q 175 742 179 738 q 173 744 172 742 q 176 747 174 747 q 210 757 190 750 q 240 753 229 764 q 252 753 246 751 q 264 758 258 756 q 275 759 269 760 q 283 751 281 758 q 323 753 301 750 q 363 761 344 756 q 383 758 372 757 q 403 762 393 760 q 423 765 414 764 q 440 760 432 765 q 472 764 457 765 q 501 760 486 763 m 386 642 q 365 641 376 646 q 346 629 353 636 q 334 603 343 615 q 321 578 325 592 q 309 510 322 546 q 293 442 296 474 q 295 421 297 432 q 290 398 293 410 q 283 374 286 386 q 282 351 279 363 q 276 330 282 340 q 276 310 271 319 q 294 311 286 317 q 311 307 301 306 q 322 308 317 304 q 331 306 326 311 q 344 313 342 303 q 350 329 347 324 q 353 367 350 346 q 364 407 357 388 q 359 424 364 417 q 358 442 354 432 q 372 463 368 451 q 377 485 375 474 q 381 510 379 497 q 389 535 383 522 q 392 564 385 550 q 390 580 388 572 q 394 595 392 588 q 400 610 397 603 q 400 626 403 618 q 386 642 400 636 z "}}}
